%TF.GenerationSoftware,KiCad,Pcbnew,(6.0.0)*%
%TF.CreationDate,2022-03-02T17:10:44+00:00*%
%TF.ProjectId,Window sensor V5,57696e64-6f77-4207-9365-6e736f722056,rev?*%
%TF.SameCoordinates,Original*%
%TF.FileFunction,Copper,L1,Top*%
%TF.FilePolarity,Positive*%
%FSLAX46Y46*%
G04 Gerber Fmt 4.6, Leading zero omitted, Abs format (unit mm)*
G04 Created by KiCad (PCBNEW (6.0.0)) date 2022-03-02 17:10:44*
%MOMM*%
%LPD*%
G01*
G04 APERTURE LIST*
G04 Aperture macros list*
%AMRoundRect*
0 Rectangle with rounded corners*
0 $1 Rounding radius*
0 $2 $3 $4 $5 $6 $7 $8 $9 X,Y pos of 4 corners*
0 Add a 4 corners polygon primitive as box body*
4,1,4,$2,$3,$4,$5,$6,$7,$8,$9,$2,$3,0*
0 Add four circle primitives for the rounded corners*
1,1,$1+$1,$2,$3*
1,1,$1+$1,$4,$5*
1,1,$1+$1,$6,$7*
1,1,$1+$1,$8,$9*
0 Add four rect primitives between the rounded corners*
20,1,$1+$1,$2,$3,$4,$5,0*
20,1,$1+$1,$4,$5,$6,$7,0*
20,1,$1+$1,$6,$7,$8,$9,0*
20,1,$1+$1,$8,$9,$2,$3,0*%
G04 Aperture macros list end*
%TA.AperFunction,SMDPad,CuDef*%
%ADD10RoundRect,0.200000X-0.275000X0.200000X-0.275000X-0.200000X0.275000X-0.200000X0.275000X0.200000X0*%
%TD*%
%TA.AperFunction,SMDPad,CuDef*%
%ADD11RoundRect,0.200000X0.275000X-0.200000X0.275000X0.200000X-0.275000X0.200000X-0.275000X-0.200000X0*%
%TD*%
%TA.AperFunction,SMDPad,CuDef*%
%ADD12RoundRect,0.200000X0.200000X0.275000X-0.200000X0.275000X-0.200000X-0.275000X0.200000X-0.275000X0*%
%TD*%
%TA.AperFunction,ComponentPad*%
%ADD13C,2.000000*%
%TD*%
%TA.AperFunction,SMDPad,CuDef*%
%ADD14RoundRect,0.243750X0.456250X-0.243750X0.456250X0.243750X-0.456250X0.243750X-0.456250X-0.243750X0*%
%TD*%
%TA.AperFunction,SMDPad,CuDef*%
%ADD15RoundRect,0.200000X0.200000X0.800000X-0.200000X0.800000X-0.200000X-0.800000X0.200000X-0.800000X0*%
%TD*%
%TA.AperFunction,SMDPad,CuDef*%
%ADD16RoundRect,0.150000X0.512500X0.150000X-0.512500X0.150000X-0.512500X-0.150000X0.512500X-0.150000X0*%
%TD*%
%TA.AperFunction,SMDPad,CuDef*%
%ADD17R,2.000000X2.000000*%
%TD*%
%TA.AperFunction,SMDPad,CuDef*%
%ADD18RoundRect,0.225000X-0.250000X0.225000X-0.250000X-0.225000X0.250000X-0.225000X0.250000X0.225000X0*%
%TD*%
%TA.AperFunction,SMDPad,CuDef*%
%ADD19RoundRect,0.150000X-0.512500X-0.150000X0.512500X-0.150000X0.512500X0.150000X-0.512500X0.150000X0*%
%TD*%
%TA.AperFunction,ComponentPad*%
%ADD20R,1.700000X1.700000*%
%TD*%
%TA.AperFunction,ComponentPad*%
%ADD21O,1.700000X1.700000*%
%TD*%
%TA.AperFunction,SMDPad,CuDef*%
%ADD22RoundRect,0.200000X0.800000X-0.200000X0.800000X0.200000X-0.800000X0.200000X-0.800000X-0.200000X0*%
%TD*%
%TA.AperFunction,SMDPad,CuDef*%
%ADD23RoundRect,0.225000X-0.225000X-0.250000X0.225000X-0.250000X0.225000X0.250000X-0.225000X0.250000X0*%
%TD*%
%TA.AperFunction,SMDPad,CuDef*%
%ADD24RoundRect,0.200000X-0.200000X-0.275000X0.200000X-0.275000X0.200000X0.275000X-0.200000X0.275000X0*%
%TD*%
%TA.AperFunction,SMDPad,CuDef*%
%ADD25RoundRect,0.225000X0.250000X-0.225000X0.250000X0.225000X-0.250000X0.225000X-0.250000X-0.225000X0*%
%TD*%
%TA.AperFunction,ComponentPad*%
%ADD26RoundRect,0.250000X0.625000X-0.350000X0.625000X0.350000X-0.625000X0.350000X-0.625000X-0.350000X0*%
%TD*%
%TA.AperFunction,ComponentPad*%
%ADD27O,1.750000X1.200000*%
%TD*%
%TA.AperFunction,ViaPad*%
%ADD28C,0.800000*%
%TD*%
%TA.AperFunction,Conductor*%
%ADD29C,0.400000*%
%TD*%
%TA.AperFunction,Conductor*%
%ADD30C,0.600000*%
%TD*%
%TA.AperFunction,Conductor*%
%ADD31C,0.200000*%
%TD*%
%TA.AperFunction,Conductor*%
%ADD32C,0.250000*%
%TD*%
G04 APERTURE END LIST*
D10*
%TO.P,R5,1*%
%TO.N,Net-(C6-Pad1)*%
X117195600Y-71615800D03*
%TO.P,R5,2*%
%TO.N,GND*%
X117195600Y-73265800D03*
%TD*%
D11*
%TO.P,R9,1*%
%TO.N,Net-(R9-Pad1)*%
X130479800Y-82333600D03*
%TO.P,R9,2*%
%TO.N,GND*%
X130479800Y-80683600D03*
%TD*%
D12*
%TO.P,R8,1*%
%TO.N,END*%
X124142000Y-79070200D03*
%TO.P,R8,2*%
%TO.N,Net-(R8-Pad2)*%
X122492000Y-79070200D03*
%TD*%
D13*
%TO.P,SW2,1,1*%
%TO.N,+BATT*%
X138394000Y-75002000D03*
X138394000Y-81502000D03*
%TO.P,SW2,2,2*%
%TO.N,INPUT*%
X133894000Y-75002000D03*
X133894000Y-81502000D03*
%TD*%
D14*
%TO.P,D1,1,K*%
%TO.N,GND*%
X142621000Y-79169500D03*
%TO.P,D1,2,A*%
%TO.N,Net-(D1-Pad2)*%
X142621000Y-77294500D03*
%TD*%
D15*
%TO.P,RESET,1,1*%
%TO.N,GND*%
X130141400Y-72009000D03*
%TO.P,RESET,2,2*%
%TO.N,Net-(RESET1-Pad2)*%
X125941400Y-72009000D03*
%TD*%
D12*
%TO.P,R6,1*%
%TO.N,Net-(R2-Pad1)*%
X120789200Y-79044800D03*
%TO.P,R6,2*%
%TO.N,GPIO13*%
X119139200Y-79044800D03*
%TD*%
D16*
%TO.P,U5,1,IN*%
%TO.N,+BATT*%
X122092300Y-82661800D03*
%TO.P,U5,2,GND*%
%TO.N,GND*%
X122092300Y-81711800D03*
%TO.P,U5,3,EN*%
%TO.N,Net-(R8-Pad2)*%
X122092300Y-80761800D03*
%TO.P,U5,4,BP*%
%TO.N,unconnected-(U5-Pad4)*%
X119817300Y-80761800D03*
%TO.P,U5,5,OUT*%
%TO.N,VCC*%
X119817300Y-82661800D03*
%TD*%
D17*
%TO.P,SW1,1,1*%
%TO.N,GND*%
X117559000Y-86766400D03*
%TO.P,SW1,2,2*%
%TO.N,Net-(R1-Pad2)*%
X137945000Y-86766400D03*
%TD*%
D18*
%TO.P,C3,1*%
%TO.N,+BATT*%
X121005600Y-75856800D03*
%TO.P,C3,2*%
%TO.N,GND*%
X121005600Y-77406800D03*
%TD*%
D11*
%TO.P,R2,1*%
%TO.N,Net-(R2-Pad1)*%
X124104400Y-77456800D03*
%TO.P,R2,2*%
%TO.N,Net-(C4-Pad1)*%
X124104400Y-75806800D03*
%TD*%
%TO.P,R4,1*%
%TO.N,+BATT*%
X123418600Y-73265800D03*
%TO.P,R4,2*%
%TO.N,Net-(C6-Pad1)*%
X123418600Y-71615800D03*
%TD*%
%TO.P,R7,1*%
%TO.N,INPUT*%
X128701800Y-82333600D03*
%TO.P,R7,2*%
%TO.N,Net-(R7-Pad2)*%
X128701800Y-80683600D03*
%TD*%
D19*
%TO.P,U2,1*%
%TO.N,Net-(R1-Pad2)*%
X127335700Y-75656400D03*
%TO.P,U2,2*%
%TO.N,Net-(C4-Pad1)*%
X127335700Y-76606400D03*
%TO.P,U2,3,GND*%
%TO.N,GND*%
X127335700Y-77556400D03*
%TO.P,U2,4*%
%TO.N,Net-(R7-Pad2)*%
X129610700Y-77556400D03*
%TO.P,U2,5,+BATT*%
%TO.N,+BATT*%
X129610700Y-75656400D03*
%TD*%
D20*
%TO.P,J2,1,Pin_1*%
%TO.N,Net-(J2-Pad1)*%
X145694400Y-86609000D03*
D21*
%TO.P,J2,2,Pin_2*%
%TO.N,Net-(J2-Pad2)*%
X145186400Y-84069000D03*
%TO.P,J2,3,Pin_3*%
%TO.N,VCC*%
X145694400Y-81529000D03*
%TO.P,J2,4,Pin_4*%
%TO.N,unconnected-(J2-Pad4)*%
X145186400Y-78989000D03*
%TO.P,J2,5,Pin_5*%
%TO.N,GND*%
X145694400Y-76449000D03*
%TD*%
D18*
%TO.P,C1,1*%
%TO.N,+BATT*%
X131597400Y-75729800D03*
%TO.P,C1,2*%
%TO.N,GND*%
X131597400Y-77279800D03*
%TD*%
D22*
%TO.P,FLASH,1,1*%
%TO.N,Net-(FLASH1-Pad1)*%
X141833600Y-85843800D03*
%TO.P,FLASH,2,2*%
%TO.N,GND*%
X141833600Y-81643800D03*
%TD*%
D19*
%TO.P,U1,1*%
%TO.N,Net-(R1-Pad2)*%
X116997900Y-75478600D03*
%TO.P,U1,2*%
%TO.N,GND*%
X116997900Y-76428600D03*
%TO.P,U1,3,GND*%
X116997900Y-77378600D03*
%TO.P,U1,4*%
%TO.N,Net-(R2-Pad1)*%
X119272900Y-77378600D03*
%TO.P,U1,5,+BATT*%
%TO.N,+BATT*%
X119272900Y-75478600D03*
%TD*%
D11*
%TO.P,R3,1*%
%TO.N,VCC*%
X121862850Y-73265800D03*
%TO.P,R3,2*%
%TO.N,Net-(C5-Pad1)*%
X121862850Y-71615800D03*
%TD*%
D18*
%TO.P,C2,1*%
%TO.N,+BATT*%
X125628400Y-75856800D03*
%TO.P,C2,2*%
%TO.N,GND*%
X125628400Y-77406800D03*
%TD*%
%TO.P,C4,1*%
%TO.N,Net-(C4-Pad1)*%
X122555000Y-75856800D03*
%TO.P,C4,2*%
%TO.N,GND*%
X122555000Y-77406800D03*
%TD*%
D23*
%TO.P,C8,1*%
%TO.N,Net-(C8-Pad1)*%
X130060400Y-69316600D03*
%TO.P,C8,2*%
%TO.N,GND*%
X131610400Y-69316600D03*
%TD*%
D11*
%TO.P,R11,1*%
%TO.N,VCC*%
X140690600Y-79077000D03*
%TO.P,R11,2*%
%TO.N,Net-(D1-Pad2)*%
X140690600Y-77427000D03*
%TD*%
D18*
%TO.P,C6,1*%
%TO.N,Net-(C6-Pad1)*%
X118751350Y-71665800D03*
%TO.P,C6,2*%
%TO.N,GND*%
X118751350Y-73215800D03*
%TD*%
D24*
%TO.P,R10,1*%
%TO.N,VCC*%
X122873000Y-84226400D03*
%TO.P,R10,2*%
%TO.N,Net-(FLASH1-Pad1)*%
X124523000Y-84226400D03*
%TD*%
D25*
%TO.P,C7,1*%
%TO.N,VCC*%
X117754400Y-82537600D03*
%TO.P,C7,2*%
%TO.N,GND*%
X117754400Y-80987600D03*
%TD*%
D12*
%TO.P,R1,1*%
%TO.N,+BATT*%
X119519200Y-84251800D03*
%TO.P,R1,2*%
%TO.N,Net-(R1-Pad2)*%
X117869200Y-84251800D03*
%TD*%
D18*
%TO.P,C5,1*%
%TO.N,Net-(C5-Pad1)*%
X120307100Y-71665800D03*
%TO.P,C5,2*%
%TO.N,GND*%
X120307100Y-73215800D03*
%TD*%
D16*
%TO.P,U4,1*%
%TO.N,INPUT*%
X126359500Y-82687200D03*
%TO.P,U4,2*%
%TO.N,END*%
X126359500Y-81737200D03*
%TO.P,U4,3,GND*%
%TO.N,GND*%
X126359500Y-80787200D03*
%TO.P,U4,4*%
%TO.N,Net-(R8-Pad2)*%
X124084500Y-80787200D03*
%TO.P,U4,5,+BATT*%
%TO.N,+BATT*%
X124084500Y-82687200D03*
%TD*%
D12*
%TO.P,R12,1*%
%TO.N,INPUT*%
X128561600Y-69316600D03*
%TO.P,R12,2*%
%TO.N,Net-(C8-Pad1)*%
X126911600Y-69316600D03*
%TD*%
D26*
%TO.P,J1,1,Pin_1*%
%TO.N,+BATT*%
X145375800Y-72170800D03*
D27*
%TO.P,J1,2,Pin_2*%
%TO.N,GND*%
X145375800Y-70170800D03*
%TD*%
D28*
%TO.N,GND*%
X132842000Y-85598000D03*
X132511800Y-86410800D03*
X131876800Y-85775800D03*
%TO.N,Net-(C5-Pad1)*%
X119995502Y-70459600D03*
%TO.N,Net-(C6-Pad1)*%
X117995502Y-70459600D03*
%TO.N,VCC*%
X140716000Y-80314800D03*
X119811800Y-81788000D03*
X121843800Y-74129580D03*
X123082939Y-83461300D03*
%TO.N,Net-(FLASH1-Pad1)*%
X140208000Y-87090980D03*
X125823204Y-84176463D03*
%TO.N,Net-(R1-Pad2)*%
X135813800Y-79654400D03*
X135763000Y-86473700D03*
%TO.N,GPIO13*%
X118110000Y-79019400D03*
%TO.N,INPUT*%
X132050207Y-70362627D03*
%TO.N,END*%
X125298200Y-79502000D03*
%TO.N,Net-(R9-Pad1)*%
X129565400Y-83108800D03*
%TO.N,Net-(RESET1-Pad2)*%
X117500400Y-68478400D03*
%TO.N,Net-(C8-Pad1)*%
X127558800Y-72618600D03*
%TD*%
D29*
%TO.N,+BATT*%
X131597400Y-75729800D02*
X129684100Y-75729800D01*
D30*
X133324600Y-76555600D02*
X132498800Y-75729800D01*
D29*
X129425580Y-74955400D02*
X125564780Y-74955400D01*
D30*
X145264800Y-72161400D02*
X138658600Y-72161400D01*
D29*
X123418600Y-73265800D02*
X123418600Y-74955400D01*
D31*
X125628400Y-74980800D02*
X125628400Y-75031360D01*
D29*
X122092300Y-82661800D02*
X124059100Y-82661800D01*
X129610700Y-75656400D02*
X129610700Y-75203900D01*
X121069220Y-74955400D02*
X119656520Y-74955400D01*
X121005600Y-75019020D02*
X121069220Y-74955400D01*
X125628400Y-75856800D02*
X125628400Y-74980800D01*
D30*
X121973480Y-82780620D02*
X121973480Y-85168880D01*
D32*
X119519200Y-84251800D02*
X121894600Y-84251800D01*
D30*
X122092300Y-82661800D02*
X121973480Y-82780620D01*
D29*
X125564780Y-74955400D02*
X123380380Y-74955400D01*
D30*
X121973480Y-85168880D02*
X121970800Y-85171560D01*
X138419400Y-72400600D02*
X138419400Y-76555600D01*
X121970800Y-87198200D02*
X122082911Y-87310311D01*
X121970800Y-85171560D02*
X121970800Y-87198200D01*
D29*
X123380380Y-74955400D02*
X121069220Y-74955400D01*
D31*
X123418600Y-75056760D02*
X123418480Y-75056880D01*
X123418600Y-74955400D02*
X123418600Y-75056760D01*
D30*
X122082911Y-87310311D02*
X133288689Y-87310311D01*
D29*
X119481600Y-74980800D02*
X119272900Y-75189500D01*
D30*
X138658600Y-72161400D02*
X138419400Y-72400600D01*
D29*
X129610700Y-75203900D02*
X129463680Y-75056880D01*
X121005600Y-75856800D02*
X121005600Y-75019020D01*
D30*
X133288689Y-87310311D02*
X138419400Y-82179600D01*
D29*
X119634000Y-74980800D02*
X119481600Y-74980800D01*
D30*
X138419400Y-76555600D02*
X133324600Y-76555600D01*
D29*
X129684100Y-75729800D02*
X129610700Y-75656400D01*
X119272900Y-75189500D02*
X119272900Y-75478600D01*
D30*
X132498800Y-75729800D02*
X131597400Y-75729800D01*
D32*
%TO.N,Net-(C4-Pad1)*%
X122555000Y-75856800D02*
X124054400Y-75856800D01*
X124104400Y-76555600D02*
X124180120Y-76631320D01*
X124104400Y-75806800D02*
X124104400Y-76555600D01*
X124180120Y-76631320D02*
X127310780Y-76631320D01*
%TO.N,Net-(C5-Pad1)*%
X119995502Y-70617902D02*
X120307100Y-70929500D01*
X120307100Y-71665800D02*
X121812850Y-71665800D01*
X119995502Y-70459600D02*
X119995502Y-70617902D01*
X120307100Y-70929500D02*
X120307100Y-71665800D01*
%TO.N,Net-(C6-Pad1)*%
X122594080Y-72440320D02*
X118769920Y-72440320D01*
X117957600Y-70459600D02*
X117995502Y-70459600D01*
X117944400Y-71615800D02*
X117944400Y-70472800D01*
X117944400Y-71615800D02*
X118701350Y-71615800D01*
X123418600Y-71615800D02*
X122594080Y-72440320D01*
X118769920Y-72440320D02*
X118745000Y-72415400D01*
X117195600Y-71615800D02*
X117944400Y-71615800D01*
X118745000Y-72415400D02*
X118745000Y-71672150D01*
X117944400Y-70472800D02*
X117957600Y-70459600D01*
D30*
%TO.N,VCC*%
X119817300Y-82661800D02*
X119817300Y-81793500D01*
D32*
X119817300Y-81793500D02*
X119811800Y-81788000D01*
X117754400Y-82537600D02*
X119693100Y-82537600D01*
X121862850Y-74148950D02*
X121843800Y-74168000D01*
X121862850Y-73265800D02*
X121862850Y-74148950D01*
X123082939Y-83461300D02*
X123082939Y-84016461D01*
X121843800Y-74168000D02*
X121843800Y-74129580D01*
X140716000Y-79311000D02*
X140716000Y-80314800D01*
%TO.N,Net-(FLASH1-Pad1)*%
X141737620Y-87090980D02*
X141782800Y-87045800D01*
X125823204Y-84176463D02*
X125773267Y-84226400D01*
X125773267Y-84226400D02*
X124523000Y-84226400D01*
X140208000Y-87090980D02*
X141737620Y-87090980D01*
X141782800Y-87045800D02*
X141782800Y-85920000D01*
%TO.N,Net-(R1-Pad2)*%
X138242000Y-86766400D02*
X137949300Y-86473700D01*
X135788400Y-79629000D02*
X135788400Y-77368400D01*
X128285200Y-75656400D02*
X127335700Y-75656400D01*
X116224280Y-75478600D02*
X116997900Y-75478600D01*
X135763000Y-86766400D02*
X135763000Y-86473700D01*
X116078000Y-84328000D02*
X116078000Y-87884000D01*
X116078000Y-84328000D02*
X116078000Y-84251800D01*
X130684920Y-76354320D02*
X128975048Y-76354320D01*
X117869200Y-84251800D02*
X116078000Y-84251800D01*
X137949300Y-86473700D02*
X135763000Y-86473700D01*
X116078000Y-77792272D02*
X116010880Y-77725152D01*
X135788400Y-77368400D02*
X135600120Y-77180120D01*
X132390116Y-76504320D02*
X130834920Y-76504320D01*
X134438489Y-88090911D02*
X135763000Y-86766400D01*
X116078000Y-84328000D02*
X116078000Y-77792272D01*
X116010880Y-77725152D02*
X116010880Y-75692000D01*
X133065916Y-77180120D02*
X132390116Y-76504320D01*
X116078000Y-87884000D02*
X116284911Y-88090911D01*
X130834920Y-76504320D02*
X130684920Y-76354320D01*
X116010880Y-75692000D02*
X116224280Y-75478600D01*
X135600120Y-77180120D02*
X133065916Y-77180120D01*
X128285200Y-75664472D02*
X128285200Y-75656400D01*
X128975048Y-76354320D02*
X128285200Y-75664472D01*
X116284911Y-88090911D02*
X134438489Y-88090911D01*
X135813800Y-79654400D02*
X135788400Y-79629000D01*
%TO.N,Net-(R2-Pad1)*%
X120726200Y-78181320D02*
X120763800Y-78218920D01*
X123279880Y-76632280D02*
X124104400Y-77456800D01*
X120763800Y-78218920D02*
X120763800Y-78968600D01*
X119532520Y-78181320D02*
X120726200Y-78181320D01*
X119272900Y-77921700D02*
X119532520Y-78181320D01*
X119272900Y-77378600D02*
X119272900Y-77921700D01*
X119272900Y-77378600D02*
X120019220Y-76632280D01*
X120019220Y-76632280D02*
X123279880Y-76632280D01*
%TO.N,GPIO13*%
X118110000Y-79019400D02*
X119113800Y-79019400D01*
%TO.N,INPUT*%
X129361120Y-70116120D02*
X128561600Y-69316600D01*
X131803700Y-70116120D02*
X130771320Y-70116120D01*
X132050207Y-70362627D02*
X131803700Y-70116120D01*
X129641600Y-81955017D02*
X130094617Y-81502000D01*
X127673600Y-82333600D02*
X128701800Y-82333600D01*
X126359500Y-82687200D02*
X127320000Y-82687200D01*
X130771320Y-70116120D02*
X130759200Y-70104000D01*
X130759200Y-70104000D02*
X130747080Y-70116120D01*
X129641600Y-82169000D02*
X129641600Y-81955017D01*
X128740400Y-82372200D02*
X129438400Y-82372200D01*
X130747080Y-70116120D02*
X129361120Y-70116120D01*
X129438400Y-82372200D02*
X129641600Y-82169000D01*
X130094617Y-81502000D02*
X133894000Y-81502000D01*
X127320000Y-82687200D02*
X127673600Y-82333600D01*
%TO.N,Net-(R7-Pad2)*%
X128701800Y-80683600D02*
X128701800Y-78465300D01*
X128701800Y-78465300D02*
X129610700Y-77556400D01*
%TO.N,END*%
X125298200Y-79502000D02*
X124866400Y-79070200D01*
X125298200Y-79502000D02*
X125298200Y-81059472D01*
X125975928Y-81737200D02*
X126359500Y-81737200D01*
X125298200Y-81059472D02*
X125975928Y-81737200D01*
X124866400Y-79070200D02*
X124142000Y-79070200D01*
%TO.N,Net-(R8-Pad2)*%
X122492000Y-79019400D02*
X122492000Y-79565000D01*
X122492000Y-79565000D02*
X122092300Y-79964700D01*
X122092300Y-79964700D02*
X122092300Y-80761800D01*
X122092300Y-80761800D02*
X124059100Y-80761800D01*
%TO.N,Net-(R9-Pad1)*%
X129704600Y-83108800D02*
X130479800Y-82333600D01*
X129565400Y-83108800D02*
X129704600Y-83108800D01*
%TO.N,Net-(RESET1-Pad2)*%
X125831600Y-68453000D02*
X125941400Y-68562800D01*
X117525800Y-68453000D02*
X125831600Y-68453000D01*
X125941400Y-68562800D02*
X125941400Y-72009000D01*
X117500400Y-68478400D02*
X117525800Y-68453000D01*
%TO.N,Net-(C8-Pad1)*%
X130124200Y-68605400D02*
X130124200Y-69252800D01*
X130035880Y-68517080D02*
X130124200Y-68605400D01*
X126911600Y-71971400D02*
X126911600Y-69316600D01*
X126949200Y-68529200D02*
X127203200Y-68529200D01*
X126898400Y-69303400D02*
X126898400Y-68580000D01*
X127215320Y-68517080D02*
X130035880Y-68517080D01*
X127203200Y-68529200D02*
X127215320Y-68517080D01*
X126898400Y-68580000D02*
X126949200Y-68529200D01*
X127558800Y-72618600D02*
X126911600Y-71971400D01*
%TO.N,Net-(D1-Pad2)*%
X140690600Y-77427000D02*
X142488500Y-77427000D01*
%TD*%
%TA.AperFunction,Conductor*%
%TO.N,GND*%
G36*
X116919591Y-68113107D02*
G01*
X116955555Y-68162607D01*
X116955555Y-68223793D01*
X116952865Y-68231084D01*
X116915356Y-68321638D01*
X116894718Y-68478400D01*
X116915356Y-68635162D01*
X116975864Y-68781241D01*
X117072118Y-68906682D01*
X117197559Y-69002936D01*
X117343638Y-69063444D01*
X117500400Y-69084082D01*
X117657162Y-69063444D01*
X117803241Y-69002936D01*
X117928682Y-68906682D01*
X117997319Y-68817232D01*
X118047742Y-68782577D01*
X118075860Y-68778500D01*
X125516900Y-68778500D01*
X125575091Y-68797407D01*
X125611055Y-68846907D01*
X125615900Y-68877500D01*
X125615900Y-70762786D01*
X125596993Y-70820977D01*
X125561846Y-70850995D01*
X125510000Y-70877412D01*
X125509996Y-70877415D01*
X125503058Y-70880950D01*
X125413350Y-70970658D01*
X125409815Y-70977595D01*
X125409814Y-70977597D01*
X125370693Y-71054377D01*
X125355754Y-71083696D01*
X125354535Y-71091390D01*
X125354535Y-71091391D01*
X125352110Y-71106702D01*
X125340900Y-71177481D01*
X125340901Y-72840518D01*
X125341510Y-72844361D01*
X125341510Y-72844366D01*
X125345270Y-72868104D01*
X125355754Y-72934304D01*
X125384552Y-72990823D01*
X125408680Y-73038176D01*
X125413350Y-73047342D01*
X125503058Y-73137050D01*
X125509995Y-73140585D01*
X125509997Y-73140586D01*
X125549169Y-73160545D01*
X125616096Y-73194646D01*
X125623790Y-73195865D01*
X125623791Y-73195865D01*
X125706035Y-73208891D01*
X125706037Y-73208891D01*
X125709881Y-73209500D01*
X125941370Y-73209500D01*
X126172918Y-73209499D01*
X126176761Y-73208890D01*
X126176766Y-73208890D01*
X126213617Y-73203053D01*
X126266704Y-73194646D01*
X126333631Y-73160545D01*
X126372803Y-73140586D01*
X126372805Y-73140585D01*
X126379742Y-73137050D01*
X126469450Y-73047342D01*
X126474121Y-73038176D01*
X126523510Y-72941244D01*
X126523510Y-72941243D01*
X126527046Y-72934304D01*
X126528380Y-72925885D01*
X126541291Y-72844365D01*
X126541291Y-72844363D01*
X126541900Y-72840519D01*
X126541900Y-72301034D01*
X126560807Y-72242843D01*
X126610307Y-72206879D01*
X126671493Y-72206879D01*
X126710904Y-72231030D01*
X126935507Y-72455633D01*
X126963284Y-72510150D01*
X126963656Y-72538555D01*
X126953118Y-72618600D01*
X126973756Y-72775362D01*
X127034264Y-72921441D01*
X127130518Y-73046882D01*
X127255959Y-73143136D01*
X127402038Y-73203644D01*
X127558800Y-73224282D01*
X127715562Y-73203644D01*
X127861641Y-73143136D01*
X127987082Y-73046882D01*
X128083336Y-72921441D01*
X128111413Y-72853657D01*
X129441400Y-72853657D01*
X129441689Y-72858991D01*
X129447371Y-72911298D01*
X129450222Y-72923287D01*
X129495843Y-73044982D01*
X129502543Y-73057219D01*
X129579981Y-73160545D01*
X129589855Y-73170419D01*
X129693181Y-73247857D01*
X129705418Y-73254557D01*
X129827113Y-73300178D01*
X129839102Y-73303029D01*
X129891409Y-73308711D01*
X129896743Y-73309000D01*
X129975720Y-73309000D01*
X129988405Y-73304878D01*
X129991400Y-73300757D01*
X129991400Y-73293320D01*
X130291400Y-73293320D01*
X130295522Y-73306005D01*
X130299643Y-73309000D01*
X130386057Y-73309000D01*
X130391391Y-73308711D01*
X130443698Y-73303029D01*
X130455687Y-73300178D01*
X130577382Y-73254557D01*
X130589619Y-73247857D01*
X130692945Y-73170419D01*
X130702819Y-73160545D01*
X130780257Y-73057219D01*
X130786957Y-73044982D01*
X130832578Y-72923287D01*
X130835429Y-72911298D01*
X130841111Y-72858991D01*
X130841400Y-72853657D01*
X130841400Y-72174680D01*
X130837278Y-72161995D01*
X130833157Y-72159000D01*
X130307080Y-72159000D01*
X130294395Y-72163122D01*
X130291400Y-72167243D01*
X130291400Y-73293320D01*
X129991400Y-73293320D01*
X129991400Y-72174680D01*
X129987278Y-72161995D01*
X129983157Y-72159000D01*
X129457080Y-72159000D01*
X129444395Y-72163122D01*
X129441400Y-72167243D01*
X129441400Y-72853657D01*
X128111413Y-72853657D01*
X128143844Y-72775362D01*
X128164482Y-72618600D01*
X128143844Y-72461838D01*
X128083336Y-72315759D01*
X127987082Y-72190318D01*
X127861641Y-72094064D01*
X127715562Y-72033556D01*
X127558800Y-72012918D01*
X127478758Y-72023456D01*
X127418599Y-72012306D01*
X127395833Y-71995307D01*
X127266096Y-71865570D01*
X127254759Y-71843320D01*
X129441400Y-71843320D01*
X129445522Y-71856005D01*
X129449643Y-71859000D01*
X129975720Y-71859000D01*
X129988405Y-71854878D01*
X129991400Y-71850757D01*
X129991400Y-71843320D01*
X130291400Y-71843320D01*
X130295522Y-71856005D01*
X130299643Y-71859000D01*
X130825720Y-71859000D01*
X130838405Y-71854878D01*
X130841400Y-71850757D01*
X130841400Y-71164343D01*
X130841111Y-71159009D01*
X130835429Y-71106702D01*
X130832578Y-71094713D01*
X130786957Y-70973018D01*
X130780257Y-70960781D01*
X130702819Y-70857455D01*
X130692945Y-70847581D01*
X130589619Y-70770143D01*
X130577382Y-70763443D01*
X130455687Y-70717822D01*
X130443698Y-70714971D01*
X130391391Y-70709289D01*
X130386057Y-70709000D01*
X130307080Y-70709000D01*
X130294395Y-70713122D01*
X130291400Y-70717243D01*
X130291400Y-71843320D01*
X129991400Y-71843320D01*
X129991400Y-70724680D01*
X129987278Y-70711995D01*
X129983157Y-70709000D01*
X129896743Y-70709000D01*
X129891409Y-70709289D01*
X129839102Y-70714971D01*
X129827113Y-70717822D01*
X129705418Y-70763443D01*
X129693181Y-70770143D01*
X129589855Y-70847581D01*
X129579981Y-70857455D01*
X129502543Y-70960781D01*
X129495843Y-70973018D01*
X129450222Y-71094713D01*
X129447371Y-71106702D01*
X129441689Y-71159009D01*
X129441400Y-71164343D01*
X129441400Y-71843320D01*
X127254759Y-71843320D01*
X127238319Y-71811053D01*
X127237100Y-71795566D01*
X127237100Y-70037814D01*
X127256007Y-69979623D01*
X127291154Y-69949605D01*
X127343000Y-69923188D01*
X127343004Y-69923185D01*
X127349942Y-69919650D01*
X127439650Y-69829942D01*
X127466329Y-69777583D01*
X127493710Y-69723844D01*
X127493710Y-69723843D01*
X127497246Y-69716904D01*
X127512100Y-69623119D01*
X127512099Y-69010082D01*
X127503703Y-68957065D01*
X127513275Y-68896633D01*
X127556540Y-68853370D01*
X127601484Y-68842580D01*
X127871716Y-68842580D01*
X127929907Y-68861487D01*
X127965871Y-68910987D01*
X127969497Y-68957065D01*
X127961100Y-69010081D01*
X127961101Y-69623118D01*
X127975954Y-69716904D01*
X127984168Y-69733025D01*
X128006706Y-69777257D01*
X128033550Y-69829942D01*
X128123258Y-69919650D01*
X128130195Y-69923185D01*
X128130197Y-69923186D01*
X128229356Y-69973710D01*
X128236296Y-69977246D01*
X128243990Y-69978465D01*
X128243991Y-69978465D01*
X128326235Y-69991491D01*
X128326237Y-69991491D01*
X128330081Y-69992100D01*
X128368810Y-69992100D01*
X128735765Y-69992099D01*
X128793956Y-70011006D01*
X128805769Y-70021095D01*
X129117851Y-70333177D01*
X129123685Y-70339544D01*
X129148665Y-70369314D01*
X129182325Y-70388747D01*
X129189609Y-70393388D01*
X129221436Y-70415674D01*
X129229804Y-70417916D01*
X129235091Y-70420382D01*
X129240576Y-70422378D01*
X129248075Y-70426708D01*
X129256601Y-70428211D01*
X129256603Y-70428212D01*
X129286336Y-70433454D01*
X129294770Y-70435324D01*
X129332313Y-70445384D01*
X129340942Y-70444629D01*
X129360236Y-70442941D01*
X129371025Y-70441997D01*
X129379654Y-70441620D01*
X130715434Y-70441620D01*
X130725472Y-70442941D01*
X130725520Y-70442387D01*
X130734150Y-70443142D01*
X130742513Y-70445383D01*
X130751138Y-70444629D01*
X130751701Y-70444678D01*
X130766699Y-70444678D01*
X130767257Y-70444629D01*
X130775887Y-70445384D01*
X130784255Y-70443142D01*
X130792881Y-70442387D01*
X130792930Y-70442942D01*
X130802966Y-70441620D01*
X131369237Y-70441620D01*
X131427428Y-70460527D01*
X131464519Y-70514498D01*
X131465163Y-70519389D01*
X131525671Y-70665468D01*
X131621925Y-70790909D01*
X131747366Y-70887163D01*
X131893445Y-70947671D01*
X132050207Y-70968309D01*
X132206969Y-70947671D01*
X132353048Y-70887163D01*
X132478489Y-70790909D01*
X132574743Y-70665468D01*
X132635251Y-70519389D01*
X132655889Y-70362627D01*
X132652060Y-70333546D01*
X144215286Y-70333546D01*
X144239057Y-70445375D01*
X144242245Y-70455187D01*
X144314976Y-70618544D01*
X144320129Y-70627469D01*
X144425240Y-70772141D01*
X144432139Y-70779804D01*
X144565024Y-70899454D01*
X144573371Y-70905519D01*
X144728228Y-70994925D01*
X144737660Y-70999124D01*
X144907710Y-71054377D01*
X144917810Y-71056524D01*
X145051072Y-71070530D01*
X145056217Y-71070800D01*
X145210120Y-71070800D01*
X145222805Y-71066678D01*
X145225800Y-71062557D01*
X145225800Y-71055120D01*
X145525800Y-71055120D01*
X145529922Y-71067805D01*
X145534043Y-71070800D01*
X145695383Y-71070800D01*
X145700528Y-71070530D01*
X145833790Y-71056524D01*
X145843890Y-71054377D01*
X146013940Y-70999124D01*
X146023372Y-70994925D01*
X146178229Y-70905519D01*
X146186576Y-70899454D01*
X146319458Y-70779806D01*
X146326365Y-70772135D01*
X146431466Y-70627476D01*
X146436625Y-70618541D01*
X146509355Y-70455187D01*
X146512543Y-70445375D01*
X146535763Y-70336138D01*
X146534387Y-70323050D01*
X146525990Y-70320800D01*
X145541480Y-70320800D01*
X145528795Y-70324922D01*
X145525800Y-70329043D01*
X145525800Y-71055120D01*
X145225800Y-71055120D01*
X145225800Y-70336480D01*
X145221678Y-70323795D01*
X145217557Y-70320800D01*
X144228257Y-70320800D01*
X144215741Y-70324867D01*
X144215286Y-70333546D01*
X132652060Y-70333546D01*
X132635251Y-70205865D01*
X132574743Y-70059786D01*
X132533059Y-70005462D01*
X144215837Y-70005462D01*
X144217213Y-70018550D01*
X144225610Y-70020800D01*
X145210120Y-70020800D01*
X145222805Y-70016678D01*
X145225800Y-70012557D01*
X145225800Y-70005120D01*
X145525800Y-70005120D01*
X145529922Y-70017805D01*
X145534043Y-70020800D01*
X146523343Y-70020800D01*
X146535859Y-70016733D01*
X146536314Y-70008054D01*
X146512543Y-69896225D01*
X146509355Y-69886413D01*
X146436624Y-69723056D01*
X146431471Y-69714131D01*
X146326360Y-69569459D01*
X146319461Y-69561796D01*
X146186576Y-69442146D01*
X146178229Y-69436081D01*
X146023372Y-69346675D01*
X146013940Y-69342476D01*
X145843890Y-69287223D01*
X145833790Y-69285076D01*
X145700528Y-69271070D01*
X145695383Y-69270800D01*
X145541480Y-69270800D01*
X145528795Y-69274922D01*
X145525800Y-69279043D01*
X145525800Y-70005120D01*
X145225800Y-70005120D01*
X145225800Y-69286480D01*
X145221678Y-69273795D01*
X145217557Y-69270800D01*
X145056217Y-69270800D01*
X145051072Y-69271070D01*
X144917810Y-69285076D01*
X144907710Y-69287223D01*
X144737660Y-69342476D01*
X144728228Y-69346675D01*
X144573371Y-69436081D01*
X144565024Y-69442146D01*
X144432142Y-69561794D01*
X144425235Y-69569465D01*
X144320134Y-69714124D01*
X144314975Y-69723059D01*
X144242245Y-69886413D01*
X144239057Y-69896225D01*
X144215837Y-70005462D01*
X132533059Y-70005462D01*
X132478489Y-69934345D01*
X132365976Y-69848011D01*
X132331320Y-69797587D01*
X132334195Y-69733025D01*
X132347697Y-69698921D01*
X132350803Y-69686693D01*
X132360041Y-69610355D01*
X132360400Y-69604401D01*
X132360400Y-69482280D01*
X132356278Y-69469595D01*
X132352157Y-69466600D01*
X131559400Y-69466600D01*
X131501209Y-69447693D01*
X131465245Y-69398193D01*
X131460400Y-69367600D01*
X131460400Y-69150920D01*
X131760400Y-69150920D01*
X131764522Y-69163605D01*
X131768643Y-69166600D01*
X132344719Y-69166600D01*
X132357404Y-69162478D01*
X132360399Y-69158357D01*
X132360399Y-69028801D01*
X132360040Y-69022843D01*
X132350803Y-68946506D01*
X132347698Y-68934281D01*
X132299573Y-68812728D01*
X132293007Y-68801075D01*
X132214204Y-68697258D01*
X132204742Y-68687796D01*
X132100925Y-68608993D01*
X132089272Y-68602427D01*
X131967721Y-68554303D01*
X131955493Y-68551197D01*
X131879155Y-68541959D01*
X131873201Y-68541600D01*
X131776080Y-68541600D01*
X131763395Y-68545722D01*
X131760400Y-68549843D01*
X131760400Y-69150920D01*
X131460400Y-69150920D01*
X131460400Y-68557281D01*
X131456278Y-68544596D01*
X131452157Y-68541601D01*
X131347601Y-68541601D01*
X131341643Y-68541960D01*
X131265306Y-68551197D01*
X131253081Y-68554302D01*
X131131528Y-68602427D01*
X131119875Y-68608993D01*
X131016058Y-68687796D01*
X131006596Y-68697258D01*
X130927793Y-68801075D01*
X130921227Y-68812728D01*
X130876013Y-68926929D01*
X130837013Y-68974073D01*
X130777750Y-68989290D01*
X130720861Y-68966766D01*
X130697430Y-68932297D01*
X130695119Y-68933474D01*
X130637464Y-68820319D01*
X130637463Y-68820317D01*
X130633928Y-68813380D01*
X130538620Y-68718072D01*
X130531683Y-68714537D01*
X130531681Y-68714536D01*
X130504745Y-68700812D01*
X130461481Y-68657547D01*
X130451067Y-68603974D01*
X130453463Y-68576593D01*
X130451222Y-68568230D01*
X130451222Y-68568227D01*
X130443406Y-68539056D01*
X130441537Y-68530628D01*
X130436292Y-68500885D01*
X130434788Y-68492355D01*
X130430457Y-68484854D01*
X130428458Y-68479360D01*
X130425995Y-68474078D01*
X130423754Y-68465716D01*
X130418550Y-68458283D01*
X130401461Y-68433878D01*
X130396836Y-68426619D01*
X130377394Y-68392945D01*
X130347621Y-68367962D01*
X130341255Y-68362128D01*
X130279148Y-68300022D01*
X130273312Y-68293653D01*
X130248335Y-68263886D01*
X130248716Y-68263566D01*
X130219712Y-68217150D01*
X130223980Y-68156114D01*
X130263309Y-68109243D01*
X130315771Y-68094200D01*
X146944800Y-68094200D01*
X147002991Y-68113107D01*
X147038955Y-68162607D01*
X147043800Y-68193200D01*
X147043800Y-88194600D01*
X147024893Y-88252791D01*
X146975393Y-88288755D01*
X146944800Y-88293600D01*
X134935134Y-88293600D01*
X134876943Y-88274693D01*
X134840979Y-88225193D01*
X134840979Y-88164007D01*
X134865130Y-88124596D01*
X135323316Y-87666411D01*
X135924993Y-87064734D01*
X135957111Y-87043274D01*
X136011222Y-87020860D01*
X136065841Y-86998236D01*
X136191282Y-86901982D01*
X136240429Y-86837933D01*
X136290852Y-86803277D01*
X136318970Y-86799200D01*
X136645500Y-86799200D01*
X136703691Y-86818107D01*
X136739655Y-86867607D01*
X136744500Y-86898200D01*
X136744500Y-87786148D01*
X136756133Y-87844631D01*
X136800448Y-87910952D01*
X136866769Y-87955267D01*
X136876332Y-87957169D01*
X136876334Y-87957170D01*
X136899005Y-87961679D01*
X136925252Y-87966900D01*
X138964748Y-87966900D01*
X138990995Y-87961679D01*
X139013666Y-87957170D01*
X139013668Y-87957169D01*
X139023231Y-87955267D01*
X139089552Y-87910952D01*
X139133867Y-87844631D01*
X139145500Y-87786148D01*
X139145500Y-87090980D01*
X139602318Y-87090980D01*
X139622956Y-87247742D01*
X139683464Y-87393821D01*
X139779718Y-87519262D01*
X139905159Y-87615516D01*
X140051238Y-87676024D01*
X140208000Y-87696662D01*
X140364762Y-87676024D01*
X140510841Y-87615516D01*
X140636282Y-87519262D01*
X140667370Y-87478748D01*
X144643900Y-87478748D01*
X144644848Y-87483512D01*
X144653545Y-87527235D01*
X144655533Y-87537231D01*
X144699848Y-87603552D01*
X144766169Y-87647867D01*
X144775732Y-87649769D01*
X144775734Y-87649770D01*
X144798405Y-87654279D01*
X144824652Y-87659500D01*
X146564148Y-87659500D01*
X146590395Y-87654279D01*
X146613066Y-87649770D01*
X146613068Y-87649769D01*
X146622631Y-87647867D01*
X146688952Y-87603552D01*
X146733267Y-87537231D01*
X146735256Y-87527235D01*
X146743952Y-87483512D01*
X146744900Y-87478748D01*
X146744900Y-85739252D01*
X146739270Y-85710947D01*
X146735170Y-85690334D01*
X146735169Y-85690332D01*
X146733267Y-85680769D01*
X146688952Y-85614448D01*
X146622631Y-85570133D01*
X146613068Y-85568231D01*
X146613066Y-85568230D01*
X146590395Y-85563721D01*
X146564148Y-85558500D01*
X144824652Y-85558500D01*
X144798405Y-85563721D01*
X144775734Y-85568230D01*
X144775732Y-85568231D01*
X144766169Y-85570133D01*
X144699848Y-85614448D01*
X144655533Y-85680769D01*
X144653631Y-85690332D01*
X144653630Y-85690334D01*
X144649530Y-85710947D01*
X144643900Y-85739252D01*
X144643900Y-87478748D01*
X140667370Y-87478748D01*
X140685429Y-87455213D01*
X140735852Y-87420557D01*
X140763970Y-87416480D01*
X141719086Y-87416480D01*
X141727715Y-87416857D01*
X141766427Y-87420244D01*
X141803970Y-87410184D01*
X141812404Y-87408314D01*
X141842137Y-87403072D01*
X141842139Y-87403071D01*
X141850665Y-87401568D01*
X141858164Y-87397238D01*
X141863649Y-87395242D01*
X141868936Y-87392776D01*
X141877304Y-87390534D01*
X141909131Y-87368248D01*
X141916415Y-87363607D01*
X141950075Y-87344174D01*
X141955642Y-87337539D01*
X141955645Y-87337537D01*
X141975061Y-87314399D01*
X141980893Y-87308034D01*
X141999859Y-87289067D01*
X142006229Y-87283230D01*
X142029359Y-87263822D01*
X142035994Y-87258255D01*
X142055436Y-87224581D01*
X142060061Y-87217322D01*
X142077387Y-87192578D01*
X142077387Y-87192577D01*
X142082354Y-87185484D01*
X142084595Y-87177122D01*
X142087058Y-87171840D01*
X142089057Y-87166346D01*
X142093388Y-87158845D01*
X142100137Y-87120571D01*
X142102006Y-87112144D01*
X142109822Y-87082973D01*
X142109822Y-87082970D01*
X142112063Y-87074607D01*
X142108677Y-87035903D01*
X142108300Y-87027275D01*
X142108300Y-86543299D01*
X142127207Y-86485108D01*
X142176707Y-86449144D01*
X142207300Y-86444299D01*
X142665118Y-86444299D01*
X142668961Y-86443690D01*
X142668966Y-86443690D01*
X142705817Y-86437853D01*
X142758904Y-86429446D01*
X142837316Y-86389493D01*
X142865003Y-86375386D01*
X142865005Y-86375385D01*
X142871942Y-86371850D01*
X142961650Y-86282142D01*
X143019246Y-86169104D01*
X143025552Y-86129293D01*
X143033491Y-86079165D01*
X143033491Y-86079163D01*
X143034100Y-86075319D01*
X143034099Y-85612282D01*
X143019246Y-85518496D01*
X142961650Y-85405458D01*
X142871942Y-85315750D01*
X142865005Y-85312215D01*
X142865003Y-85312214D01*
X142765844Y-85261690D01*
X142765843Y-85261690D01*
X142758904Y-85258154D01*
X142751210Y-85256935D01*
X142751209Y-85256935D01*
X142668965Y-85243909D01*
X142668963Y-85243909D01*
X142665119Y-85243300D01*
X141833707Y-85243300D01*
X141002082Y-85243301D01*
X140998239Y-85243910D01*
X140998234Y-85243910D01*
X140961383Y-85249747D01*
X140908296Y-85258154D01*
X140851777Y-85286952D01*
X140802197Y-85312214D01*
X140802195Y-85312215D01*
X140795258Y-85315750D01*
X140705550Y-85405458D01*
X140702015Y-85412395D01*
X140702014Y-85412397D01*
X140672972Y-85469395D01*
X140647954Y-85518496D01*
X140646735Y-85526190D01*
X140646735Y-85526191D01*
X140634746Y-85601886D01*
X140633100Y-85612281D01*
X140633101Y-86075318D01*
X140647954Y-86169104D01*
X140705550Y-86282142D01*
X140795258Y-86371850D01*
X140802195Y-86375385D01*
X140802197Y-86375386D01*
X140829884Y-86389493D01*
X140908296Y-86429446D01*
X140915990Y-86430665D01*
X140915991Y-86430665D01*
X140998235Y-86443691D01*
X140998237Y-86443691D01*
X141002081Y-86444300D01*
X141358300Y-86444300D01*
X141416491Y-86463207D01*
X141452455Y-86512707D01*
X141457300Y-86543300D01*
X141457300Y-86666480D01*
X141438393Y-86724671D01*
X141388893Y-86760635D01*
X141358300Y-86765480D01*
X140763970Y-86765480D01*
X140705779Y-86746573D01*
X140685428Y-86726747D01*
X140640236Y-86667851D01*
X140636282Y-86662698D01*
X140510841Y-86566444D01*
X140364762Y-86505936D01*
X140208000Y-86485298D01*
X140051238Y-86505936D01*
X139905159Y-86566444D01*
X139779718Y-86662698D01*
X139683464Y-86788139D01*
X139622956Y-86934218D01*
X139602318Y-87090980D01*
X139145500Y-87090980D01*
X139145500Y-85746652D01*
X139138398Y-85710947D01*
X139135770Y-85697734D01*
X139135769Y-85697732D01*
X139133867Y-85688169D01*
X139089552Y-85621848D01*
X139023231Y-85577533D01*
X139013668Y-85575631D01*
X139013666Y-85575630D01*
X138990995Y-85571121D01*
X138964748Y-85565900D01*
X136925252Y-85565900D01*
X136899005Y-85571121D01*
X136876334Y-85575630D01*
X136876332Y-85575631D01*
X136866769Y-85577533D01*
X136800448Y-85621848D01*
X136756133Y-85688169D01*
X136754231Y-85697732D01*
X136754230Y-85697734D01*
X136751602Y-85710947D01*
X136744500Y-85746652D01*
X136744500Y-86049200D01*
X136725593Y-86107391D01*
X136676093Y-86143355D01*
X136645500Y-86148200D01*
X136318970Y-86148200D01*
X136260779Y-86129293D01*
X136240428Y-86109467D01*
X136217178Y-86079166D01*
X136191282Y-86045418D01*
X136065841Y-85949164D01*
X135919762Y-85888656D01*
X135763000Y-85868018D01*
X135678793Y-85879104D01*
X135618632Y-85867954D01*
X135576515Y-85823572D01*
X135568529Y-85762910D01*
X135595867Y-85710947D01*
X137252552Y-84054262D01*
X144130920Y-84054262D01*
X144148159Y-84259553D01*
X144149492Y-84264201D01*
X144149492Y-84264202D01*
X144167439Y-84326789D01*
X144204944Y-84457586D01*
X144299112Y-84640818D01*
X144427077Y-84802270D01*
X144430757Y-84805402D01*
X144430759Y-84805404D01*
X144488858Y-84854850D01*
X144583964Y-84935791D01*
X144588187Y-84938151D01*
X144588191Y-84938154D01*
X144627742Y-84960258D01*
X144763798Y-85036297D01*
X144768396Y-85037791D01*
X144955124Y-85098463D01*
X144955126Y-85098464D01*
X144959729Y-85099959D01*
X145164294Y-85124351D01*
X145169116Y-85123980D01*
X145169119Y-85123980D01*
X145236941Y-85118761D01*
X145369700Y-85108546D01*
X145568125Y-85053145D01*
X145572438Y-85050966D01*
X145572444Y-85050964D01*
X145747689Y-84962441D01*
X145747691Y-84962440D01*
X145752010Y-84960258D01*
X145794974Y-84926691D01*
X145910535Y-84836406D01*
X145910539Y-84836402D01*
X145914351Y-84833424D01*
X145917782Y-84829450D01*
X146028656Y-84700999D01*
X146048964Y-84677472D01*
X146063375Y-84652104D01*
X146148334Y-84502550D01*
X146148335Y-84502547D01*
X146150723Y-84498344D01*
X146164282Y-84457586D01*
X146214224Y-84307454D01*
X146214224Y-84307452D01*
X146215751Y-84302863D01*
X146241571Y-84098474D01*
X146241983Y-84069000D01*
X146240067Y-84049454D01*
X146222352Y-83868780D01*
X146222351Y-83868776D01*
X146221880Y-83863970D01*
X146220046Y-83857893D01*
X146178412Y-83719997D01*
X146162335Y-83666749D01*
X146065618Y-83484849D01*
X145935411Y-83325200D01*
X145863321Y-83265562D01*
X145780402Y-83196965D01*
X145780400Y-83196964D01*
X145776675Y-83193882D01*
X145611710Y-83104686D01*
X145599709Y-83098197D01*
X145599708Y-83098197D01*
X145595455Y-83095897D01*
X145532255Y-83076333D01*
X145403275Y-83036407D01*
X145403271Y-83036406D01*
X145398654Y-83034977D01*
X145393846Y-83034472D01*
X145393843Y-83034471D01*
X145198585Y-83013949D01*
X145198583Y-83013949D01*
X145193769Y-83013443D01*
X145142046Y-83018150D01*
X144993422Y-83031675D01*
X144993417Y-83031676D01*
X144988603Y-83032114D01*
X144790972Y-83090280D01*
X144786688Y-83092519D01*
X144786687Y-83092520D01*
X144755547Y-83108800D01*
X144608402Y-83185726D01*
X144604631Y-83188758D01*
X144451620Y-83311781D01*
X144451617Y-83311783D01*
X144447847Y-83314815D01*
X144444733Y-83318526D01*
X144444732Y-83318527D01*
X144435985Y-83328952D01*
X144315424Y-83472630D01*
X144313089Y-83476878D01*
X144313088Y-83476879D01*
X144306355Y-83489126D01*
X144216176Y-83653162D01*
X144214713Y-83657775D01*
X144214711Y-83657779D01*
X144179338Y-83769290D01*
X144153884Y-83849532D01*
X144153344Y-83854344D01*
X144153344Y-83854345D01*
X144134075Y-84026137D01*
X144130920Y-84054262D01*
X137252552Y-84054262D01*
X138601944Y-82704870D01*
X138657741Y-82676899D01*
X138670956Y-82674983D01*
X138670957Y-82674983D01*
X138675452Y-82674331D01*
X138679751Y-82672872D01*
X138679754Y-82672871D01*
X138880078Y-82604870D01*
X138884379Y-82603410D01*
X138918412Y-82584351D01*
X139013532Y-82531081D01*
X139076884Y-82495602D01*
X139246518Y-82354518D01*
X139255673Y-82343511D01*
X139305995Y-82283005D01*
X139387602Y-82184884D01*
X139469293Y-82039015D01*
X139493192Y-81996340D01*
X139493193Y-81996338D01*
X139495410Y-81992379D01*
X139512828Y-81941066D01*
X139530687Y-81888457D01*
X140533600Y-81888457D01*
X140533889Y-81893791D01*
X140539571Y-81946098D01*
X140542422Y-81958087D01*
X140588043Y-82079782D01*
X140594743Y-82092019D01*
X140672181Y-82195345D01*
X140682055Y-82205219D01*
X140785381Y-82282657D01*
X140797618Y-82289357D01*
X140919313Y-82334978D01*
X140931302Y-82337829D01*
X140983609Y-82343511D01*
X140988943Y-82343800D01*
X141667920Y-82343800D01*
X141680605Y-82339678D01*
X141683600Y-82335557D01*
X141683600Y-82328120D01*
X141983600Y-82328120D01*
X141987722Y-82340805D01*
X141991843Y-82343800D01*
X142678257Y-82343800D01*
X142683591Y-82343511D01*
X142735898Y-82337829D01*
X142747887Y-82334978D01*
X142869582Y-82289357D01*
X142881819Y-82282657D01*
X142985145Y-82205219D01*
X142995019Y-82195345D01*
X143072457Y-82092019D01*
X143079157Y-82079782D01*
X143124778Y-81958087D01*
X143127629Y-81946098D01*
X143133311Y-81893791D01*
X143133600Y-81888457D01*
X143133600Y-81809480D01*
X143129478Y-81796795D01*
X143125357Y-81793800D01*
X141999280Y-81793800D01*
X141986595Y-81797922D01*
X141983600Y-81802043D01*
X141983600Y-82328120D01*
X141683600Y-82328120D01*
X141683600Y-81809480D01*
X141679478Y-81796795D01*
X141675357Y-81793800D01*
X140549280Y-81793800D01*
X140536595Y-81797922D01*
X140533600Y-81802043D01*
X140533600Y-81888457D01*
X139530687Y-81888457D01*
X139564871Y-81787754D01*
X139564872Y-81787751D01*
X139566331Y-81783452D01*
X139570965Y-81751490D01*
X139597571Y-81567997D01*
X139597571Y-81567991D01*
X139597991Y-81565098D01*
X139598078Y-81561800D01*
X139599322Y-81514262D01*
X144638920Y-81514262D01*
X144642864Y-81561228D01*
X144655504Y-81711748D01*
X144656159Y-81719553D01*
X144657492Y-81724201D01*
X144657492Y-81724202D01*
X144711060Y-81911014D01*
X144712944Y-81917586D01*
X144715159Y-81921896D01*
X144731532Y-81953755D01*
X144807112Y-82100818D01*
X144935077Y-82262270D01*
X144938757Y-82265402D01*
X144938759Y-82265404D01*
X145027824Y-82341204D01*
X145091964Y-82395791D01*
X145096187Y-82398151D01*
X145096191Y-82398154D01*
X145163340Y-82435682D01*
X145271798Y-82496297D01*
X145276396Y-82497791D01*
X145463124Y-82558463D01*
X145463126Y-82558464D01*
X145467729Y-82559959D01*
X145672294Y-82584351D01*
X145677116Y-82583980D01*
X145677119Y-82583980D01*
X145744941Y-82578761D01*
X145877700Y-82568546D01*
X146076125Y-82513145D01*
X146080438Y-82510966D01*
X146080444Y-82510964D01*
X146255689Y-82422441D01*
X146255691Y-82422440D01*
X146260010Y-82420258D01*
X146295343Y-82392653D01*
X146418535Y-82296406D01*
X146418539Y-82296402D01*
X146422351Y-82293424D01*
X146426881Y-82288177D01*
X146501294Y-82201967D01*
X146556964Y-82137472D01*
X146573406Y-82108529D01*
X146656334Y-81962550D01*
X146656335Y-81962547D01*
X146658723Y-81958344D01*
X146661246Y-81950762D01*
X146722224Y-81767454D01*
X146722224Y-81767452D01*
X146723751Y-81762863D01*
X146725635Y-81747954D01*
X146749223Y-81561228D01*
X146749571Y-81558474D01*
X146749983Y-81529000D01*
X146747700Y-81505714D01*
X146730352Y-81328780D01*
X146730351Y-81328776D01*
X146729880Y-81323970D01*
X146727429Y-81315850D01*
X146689858Y-81191412D01*
X146670335Y-81126749D01*
X146573618Y-80944849D01*
X146443411Y-80785200D01*
X146330977Y-80692186D01*
X146288402Y-80656965D01*
X146288400Y-80656964D01*
X146284675Y-80653882D01*
X146103455Y-80555897D01*
X146004796Y-80525357D01*
X145911275Y-80496407D01*
X145911271Y-80496406D01*
X145906654Y-80494977D01*
X145901846Y-80494472D01*
X145901843Y-80494471D01*
X145706585Y-80473949D01*
X145706583Y-80473949D01*
X145701769Y-80473443D01*
X145641754Y-80478905D01*
X145501422Y-80491675D01*
X145501417Y-80491676D01*
X145496603Y-80492114D01*
X145298972Y-80550280D01*
X145294688Y-80552519D01*
X145294687Y-80552520D01*
X145244836Y-80578582D01*
X145116402Y-80645726D01*
X145112631Y-80648758D01*
X144959620Y-80771781D01*
X144959617Y-80771783D01*
X144955847Y-80774815D01*
X144952733Y-80778526D01*
X144952732Y-80778527D01*
X144838118Y-80915119D01*
X144823424Y-80932630D01*
X144821089Y-80936878D01*
X144821088Y-80936879D01*
X144808663Y-80959480D01*
X144724176Y-81113162D01*
X144722713Y-81117775D01*
X144722711Y-81117779D01*
X144679806Y-81253035D01*
X144661884Y-81309532D01*
X144661344Y-81314344D01*
X144661344Y-81314345D01*
X144639969Y-81504914D01*
X144638920Y-81514262D01*
X139599322Y-81514262D01*
X139599567Y-81504914D01*
X139599567Y-81504909D01*
X139599643Y-81502000D01*
X139598647Y-81491154D01*
X139585024Y-81342905D01*
X139579454Y-81282289D01*
X139571204Y-81253035D01*
X139520799Y-81074311D01*
X139520798Y-81074310D01*
X139519565Y-81069936D01*
X139517557Y-81065864D01*
X139517555Y-81065859D01*
X139423988Y-80876125D01*
X139421980Y-80872053D01*
X139289967Y-80695267D01*
X139219666Y-80630281D01*
X139131279Y-80548577D01*
X139131278Y-80548576D01*
X139127949Y-80545499D01*
X139109091Y-80533600D01*
X138945187Y-80430185D01*
X138941350Y-80427764D01*
X138736421Y-80346006D01*
X138520024Y-80302962D01*
X138411347Y-80301539D01*
X138303946Y-80300133D01*
X138303941Y-80300133D01*
X138299406Y-80300074D01*
X138294933Y-80300843D01*
X138294928Y-80300843D01*
X138086435Y-80336668D01*
X138086429Y-80336670D01*
X138081957Y-80337438D01*
X137995556Y-80369313D01*
X137879220Y-80412231D01*
X137879217Y-80412232D01*
X137874957Y-80413804D01*
X137871054Y-80416126D01*
X137871052Y-80416127D01*
X137817084Y-80448235D01*
X137685341Y-80526614D01*
X137681926Y-80529609D01*
X137681923Y-80529611D01*
X137597119Y-80603982D01*
X137519457Y-80672090D01*
X137516649Y-80675652D01*
X137389773Y-80836595D01*
X137382863Y-80845360D01*
X137380749Y-80849378D01*
X137296818Y-81008904D01*
X137280131Y-81040620D01*
X137267164Y-81082381D01*
X137216153Y-81246664D01*
X137214703Y-81251333D01*
X137214169Y-81255843D01*
X137214169Y-81255844D01*
X137194669Y-81420600D01*
X137188770Y-81470440D01*
X137203200Y-81690604D01*
X137204316Y-81694997D01*
X137204316Y-81694999D01*
X137248772Y-81870043D01*
X137257511Y-81904452D01*
X137349883Y-82104821D01*
X137400536Y-82176493D01*
X137474605Y-82281300D01*
X137474609Y-82281305D01*
X137477222Y-82285002D01*
X137477896Y-82285659D01*
X137500903Y-82341204D01*
X137486618Y-82400699D01*
X137472212Y-82418974D01*
X133110371Y-86780815D01*
X133055854Y-86808592D01*
X133040367Y-86809811D01*
X122570300Y-86809811D01*
X122512109Y-86790904D01*
X122476145Y-86741404D01*
X122471300Y-86710811D01*
X122471300Y-85232742D01*
X122472477Y-85217524D01*
X122473980Y-85207871D01*
X122473980Y-85191672D01*
X122474252Y-85184336D01*
X122476350Y-85156105D01*
X122477956Y-85134489D01*
X122476161Y-85126080D01*
X122473980Y-85105413D01*
X122473980Y-84991284D01*
X122492887Y-84933093D01*
X122542387Y-84897129D01*
X122588465Y-84893503D01*
X122641481Y-84901900D01*
X122872970Y-84901900D01*
X123104518Y-84901899D01*
X123108361Y-84901290D01*
X123108366Y-84901290D01*
X123145217Y-84895453D01*
X123198304Y-84887046D01*
X123261492Y-84854850D01*
X123304403Y-84832986D01*
X123304405Y-84832985D01*
X123311342Y-84829450D01*
X123401050Y-84739742D01*
X123419526Y-84703482D01*
X123455110Y-84633644D01*
X123455110Y-84633643D01*
X123458646Y-84626704D01*
X123460008Y-84618109D01*
X123472891Y-84536765D01*
X123472891Y-84536763D01*
X123473500Y-84532919D01*
X123473499Y-83967114D01*
X123488846Y-83919881D01*
X123922500Y-83919881D01*
X123922501Y-84532918D01*
X123923110Y-84536761D01*
X123923110Y-84536766D01*
X123928502Y-84570809D01*
X123937354Y-84626704D01*
X123946375Y-84644409D01*
X123976475Y-84703482D01*
X123994950Y-84739742D01*
X124084658Y-84829450D01*
X124091595Y-84832985D01*
X124091597Y-84832986D01*
X124190756Y-84883510D01*
X124197696Y-84887046D01*
X124205390Y-84888265D01*
X124205391Y-84888265D01*
X124287635Y-84901291D01*
X124287637Y-84901291D01*
X124291481Y-84901900D01*
X124522970Y-84901900D01*
X124754518Y-84901899D01*
X124758361Y-84901290D01*
X124758366Y-84901290D01*
X124795217Y-84895453D01*
X124848304Y-84887046D01*
X124911492Y-84854850D01*
X124954403Y-84832986D01*
X124954405Y-84832985D01*
X124961342Y-84829450D01*
X125051050Y-84739742D01*
X125069526Y-84703482D01*
X125099625Y-84644409D01*
X125108646Y-84626704D01*
X125109719Y-84619927D01*
X125145404Y-84570809D01*
X125203597Y-84551900D01*
X125305552Y-84551900D01*
X125363743Y-84570807D01*
X125384092Y-84590632D01*
X125394922Y-84604745D01*
X125520363Y-84700999D01*
X125666442Y-84761507D01*
X125823204Y-84782145D01*
X125979966Y-84761507D01*
X126126045Y-84700999D01*
X126251486Y-84604745D01*
X126347740Y-84479304D01*
X126408248Y-84333225D01*
X126428886Y-84176463D01*
X126408248Y-84019701D01*
X126347740Y-83873622D01*
X126251486Y-83748181D01*
X126126045Y-83651927D01*
X125979966Y-83591419D01*
X125823204Y-83570781D01*
X125666442Y-83591419D01*
X125520363Y-83651927D01*
X125394922Y-83748181D01*
X125309626Y-83859342D01*
X125307458Y-83862167D01*
X125257034Y-83896823D01*
X125228916Y-83900900D01*
X125203597Y-83900900D01*
X125145406Y-83881993D01*
X125109719Y-83832873D01*
X125108646Y-83826096D01*
X125067528Y-83745397D01*
X125054586Y-83719997D01*
X125054585Y-83719995D01*
X125051050Y-83713058D01*
X124961342Y-83623350D01*
X124954405Y-83619815D01*
X124954403Y-83619814D01*
X124855244Y-83569290D01*
X124855243Y-83569290D01*
X124848304Y-83565754D01*
X124840610Y-83564535D01*
X124840609Y-83564535D01*
X124758365Y-83551509D01*
X124758363Y-83551509D01*
X124754519Y-83550900D01*
X124523030Y-83550900D01*
X124291482Y-83550901D01*
X124287639Y-83551510D01*
X124287634Y-83551510D01*
X124250783Y-83557347D01*
X124197696Y-83565754D01*
X124148988Y-83590572D01*
X124091597Y-83619814D01*
X124091595Y-83619815D01*
X124084658Y-83623350D01*
X123994950Y-83713058D01*
X123991415Y-83719995D01*
X123991414Y-83719997D01*
X123978472Y-83745397D01*
X123937354Y-83826096D01*
X123936135Y-83833790D01*
X123936135Y-83833791D01*
X123923109Y-83916035D01*
X123922500Y-83919881D01*
X123488846Y-83919881D01*
X123492406Y-83908923D01*
X123502493Y-83897112D01*
X123506071Y-83893534D01*
X123511221Y-83889582D01*
X123607475Y-83764141D01*
X123667983Y-83618062D01*
X123687129Y-83472630D01*
X123687774Y-83467734D01*
X123688621Y-83461300D01*
X123667983Y-83304538D01*
X123669610Y-83304324D01*
X123672396Y-83251217D01*
X123710903Y-83203669D01*
X123764819Y-83187700D01*
X124630218Y-83187700D01*
X124633801Y-83187172D01*
X124633808Y-83187172D01*
X124691499Y-83178679D01*
X124691501Y-83178678D01*
X124699112Y-83177558D01*
X124731265Y-83161772D01*
X124755763Y-83149744D01*
X124803855Y-83126132D01*
X124886293Y-83043550D01*
X124937536Y-82938718D01*
X124938645Y-82931116D01*
X124938646Y-82931113D01*
X124946983Y-82873963D01*
X124946983Y-82873961D01*
X124947500Y-82870418D01*
X124947500Y-82503982D01*
X124937358Y-82435088D01*
X124929447Y-82418974D01*
X124891263Y-82341204D01*
X124885932Y-82330345D01*
X124867846Y-82312290D01*
X124836800Y-82281299D01*
X124803350Y-82247907D01*
X124698518Y-82196664D01*
X124690916Y-82195555D01*
X124690913Y-82195554D01*
X124633763Y-82187217D01*
X124633761Y-82187217D01*
X124630218Y-82186700D01*
X123538782Y-82186700D01*
X123535199Y-82187228D01*
X123535192Y-82187228D01*
X123477501Y-82195721D01*
X123477499Y-82195722D01*
X123469888Y-82196842D01*
X123462982Y-82200233D01*
X123462981Y-82200233D01*
X123452826Y-82205219D01*
X123365145Y-82248268D01*
X123364179Y-82246301D01*
X123317465Y-82261300D01*
X123065396Y-82261300D01*
X123007205Y-82242393D01*
X122971241Y-82192893D01*
X122971241Y-82131707D01*
X122985763Y-82103482D01*
X123002591Y-82080699D01*
X123009438Y-82067766D01*
X123049822Y-81952769D01*
X123052390Y-81941066D01*
X123054582Y-81917882D01*
X123054800Y-81913246D01*
X123054800Y-81877480D01*
X123050678Y-81864795D01*
X123046557Y-81861800D01*
X121145481Y-81861800D01*
X121132796Y-81865922D01*
X121129801Y-81870043D01*
X121129801Y-81913243D01*
X121130020Y-81917886D01*
X121132211Y-81941069D01*
X121134776Y-81952765D01*
X121175162Y-82067766D01*
X121182009Y-82080699D01*
X121253608Y-82177635D01*
X121269194Y-82193221D01*
X121267037Y-82195378D01*
X121294869Y-82234305D01*
X121294404Y-82295489D01*
X121289428Y-82307657D01*
X121281164Y-82324564D01*
X121239264Y-82410282D01*
X121238155Y-82417884D01*
X121238154Y-82417887D01*
X121234449Y-82443287D01*
X121229300Y-82478582D01*
X121229300Y-82845018D01*
X121229828Y-82848601D01*
X121229828Y-82848608D01*
X121237786Y-82902666D01*
X121239442Y-82913912D01*
X121290868Y-83018655D01*
X121296659Y-83024436D01*
X121315806Y-83043550D01*
X121373450Y-83101093D01*
X121380801Y-83104686D01*
X121380802Y-83104687D01*
X121417455Y-83122603D01*
X121461432Y-83165143D01*
X121472980Y-83211546D01*
X121472980Y-83827300D01*
X121454073Y-83885491D01*
X121404573Y-83921455D01*
X121373980Y-83926300D01*
X120199797Y-83926300D01*
X120141606Y-83907393D01*
X120105919Y-83858273D01*
X120104846Y-83851496D01*
X120054830Y-83753334D01*
X120050786Y-83745397D01*
X120050785Y-83745395D01*
X120047250Y-83738458D01*
X119957542Y-83648750D01*
X119950605Y-83645215D01*
X119950603Y-83645214D01*
X119851444Y-83594690D01*
X119851443Y-83594690D01*
X119844504Y-83591154D01*
X119836810Y-83589935D01*
X119836809Y-83589935D01*
X119754565Y-83576909D01*
X119754563Y-83576909D01*
X119750719Y-83576300D01*
X119519230Y-83576300D01*
X119287682Y-83576301D01*
X119283839Y-83576910D01*
X119283834Y-83576910D01*
X119246983Y-83582747D01*
X119193896Y-83591154D01*
X119170031Y-83603314D01*
X119087797Y-83645214D01*
X119087795Y-83645215D01*
X119080858Y-83648750D01*
X118991150Y-83738458D01*
X118987615Y-83745395D01*
X118987614Y-83745397D01*
X118943238Y-83832490D01*
X118933554Y-83851496D01*
X118932335Y-83859190D01*
X118932335Y-83859191D01*
X118922106Y-83923774D01*
X118918700Y-83945281D01*
X118918701Y-84558318D01*
X118919310Y-84562161D01*
X118919310Y-84562166D01*
X118924702Y-84596209D01*
X118933554Y-84652104D01*
X118991150Y-84765142D01*
X119080858Y-84854850D01*
X119087795Y-84858385D01*
X119087797Y-84858386D01*
X119172001Y-84901290D01*
X119193896Y-84912446D01*
X119201590Y-84913665D01*
X119201591Y-84913665D01*
X119283835Y-84926691D01*
X119283837Y-84926691D01*
X119287681Y-84927300D01*
X119519170Y-84927300D01*
X119750718Y-84927299D01*
X119754561Y-84926690D01*
X119754566Y-84926690D01*
X119791417Y-84920853D01*
X119844504Y-84912446D01*
X119901294Y-84883510D01*
X119950603Y-84858386D01*
X119950605Y-84858385D01*
X119957542Y-84854850D01*
X120047250Y-84765142D01*
X120104846Y-84652104D01*
X120105919Y-84645327D01*
X120141604Y-84596209D01*
X120199797Y-84577300D01*
X121373980Y-84577300D01*
X121432171Y-84596207D01*
X121468135Y-84645707D01*
X121472980Y-84676300D01*
X121472980Y-85107698D01*
X121471803Y-85122916D01*
X121470300Y-85132569D01*
X121470300Y-85148769D01*
X121470028Y-85156105D01*
X121466324Y-85205952D01*
X121467796Y-85212847D01*
X121467796Y-85212849D01*
X121468119Y-85214361D01*
X121470300Y-85235028D01*
X121470300Y-87131034D01*
X121468881Y-87143735D01*
X121468903Y-87143737D01*
X121468337Y-87150769D01*
X121466781Y-87157647D01*
X121467218Y-87164685D01*
X121470110Y-87211302D01*
X121470300Y-87217433D01*
X121470300Y-87234140D01*
X121470799Y-87237627D01*
X121470800Y-87237635D01*
X121471901Y-87245321D01*
X121472711Y-87253224D01*
X121474573Y-87283230D01*
X121475659Y-87300738D01*
X121478052Y-87307367D01*
X121478053Y-87307371D01*
X121479142Y-87310387D01*
X121484023Y-87329963D01*
X121485477Y-87340118D01*
X121488396Y-87346537D01*
X121488397Y-87346542D01*
X121505181Y-87383457D01*
X121508177Y-87390815D01*
X121509775Y-87395242D01*
X121524340Y-87435587D01*
X121530392Y-87443872D01*
X121540568Y-87461286D01*
X121544816Y-87470628D01*
X121549421Y-87475972D01*
X121575893Y-87506695D01*
X121580833Y-87512916D01*
X121589322Y-87524536D01*
X121600779Y-87535993D01*
X121605774Y-87541373D01*
X121633798Y-87573897D01*
X121633801Y-87573900D01*
X121638400Y-87579237D01*
X121644317Y-87583073D01*
X121644319Y-87583074D01*
X121644723Y-87583336D01*
X121644975Y-87583646D01*
X121649632Y-87587709D01*
X121648927Y-87588518D01*
X121683269Y-87630852D01*
X121686525Y-87691950D01*
X121653246Y-87743294D01*
X121590876Y-87765411D01*
X118958000Y-87765411D01*
X118899809Y-87746504D01*
X118863845Y-87697004D01*
X118859000Y-87666411D01*
X118859000Y-86932080D01*
X118854878Y-86919395D01*
X118850757Y-86916400D01*
X117508000Y-86916400D01*
X117449809Y-86897493D01*
X117413845Y-86847993D01*
X117409000Y-86817400D01*
X117409000Y-86600720D01*
X117709000Y-86600720D01*
X117713122Y-86613405D01*
X117717243Y-86616400D01*
X118843320Y-86616400D01*
X118856005Y-86612278D01*
X118859000Y-86608157D01*
X118859000Y-85724761D01*
X118858654Y-85718915D01*
X118856766Y-85703047D01*
X118852872Y-85688881D01*
X118814230Y-85601886D01*
X118804054Y-85587079D01*
X118737892Y-85521033D01*
X118723069Y-85510883D01*
X118636020Y-85472400D01*
X118621815Y-85468527D01*
X118606420Y-85466732D01*
X118600708Y-85466400D01*
X117724680Y-85466400D01*
X117711995Y-85470522D01*
X117709000Y-85474643D01*
X117709000Y-86600720D01*
X117409000Y-86600720D01*
X117409000Y-85482080D01*
X117404878Y-85469395D01*
X117400757Y-85466400D01*
X116517361Y-85466400D01*
X116508584Y-85466920D01*
X116508489Y-85465322D01*
X116454088Y-85454475D01*
X116412575Y-85409527D01*
X116403500Y-85368120D01*
X116403500Y-84676300D01*
X116422407Y-84618109D01*
X116471907Y-84582145D01*
X116502500Y-84577300D01*
X117188603Y-84577300D01*
X117246794Y-84596207D01*
X117282481Y-84645327D01*
X117283554Y-84652104D01*
X117341150Y-84765142D01*
X117430858Y-84854850D01*
X117437795Y-84858385D01*
X117437797Y-84858386D01*
X117522001Y-84901290D01*
X117543896Y-84912446D01*
X117551590Y-84913665D01*
X117551591Y-84913665D01*
X117633835Y-84926691D01*
X117633837Y-84926691D01*
X117637681Y-84927300D01*
X117869170Y-84927300D01*
X118100718Y-84927299D01*
X118104561Y-84926690D01*
X118104566Y-84926690D01*
X118141417Y-84920853D01*
X118194504Y-84912446D01*
X118251294Y-84883510D01*
X118300603Y-84858386D01*
X118300605Y-84858385D01*
X118307542Y-84854850D01*
X118397250Y-84765142D01*
X118428668Y-84703482D01*
X118451310Y-84659044D01*
X118451310Y-84659043D01*
X118454846Y-84652104D01*
X118465927Y-84582145D01*
X118469091Y-84562165D01*
X118469091Y-84562163D01*
X118469700Y-84558319D01*
X118469699Y-83945282D01*
X118465926Y-83921455D01*
X118459676Y-83881993D01*
X118454846Y-83851496D01*
X118404830Y-83753334D01*
X118400786Y-83745397D01*
X118400785Y-83745395D01*
X118397250Y-83738458D01*
X118307542Y-83648750D01*
X118300605Y-83645215D01*
X118300603Y-83645214D01*
X118201444Y-83594690D01*
X118201443Y-83594690D01*
X118194504Y-83591154D01*
X118186810Y-83589935D01*
X118186809Y-83589935D01*
X118104565Y-83576909D01*
X118104563Y-83576909D01*
X118100719Y-83576300D01*
X117869230Y-83576300D01*
X117637682Y-83576301D01*
X117633839Y-83576910D01*
X117633834Y-83576910D01*
X117596983Y-83582747D01*
X117543896Y-83591154D01*
X117520031Y-83603314D01*
X117437797Y-83645214D01*
X117437795Y-83645215D01*
X117430858Y-83648750D01*
X117341150Y-83738458D01*
X117337615Y-83745395D01*
X117337614Y-83745397D01*
X117333570Y-83753334D01*
X117283554Y-83851496D01*
X117282481Y-83858273D01*
X117246796Y-83907391D01*
X117188603Y-83926300D01*
X116502500Y-83926300D01*
X116444309Y-83907393D01*
X116408345Y-83857893D01*
X116403500Y-83827300D01*
X116403500Y-81250399D01*
X116979401Y-81250399D01*
X116979760Y-81256357D01*
X116988997Y-81332694D01*
X116992102Y-81344919D01*
X117040227Y-81466472D01*
X117046793Y-81478125D01*
X117125596Y-81581942D01*
X117135058Y-81591404D01*
X117238875Y-81670207D01*
X117250528Y-81676773D01*
X117364729Y-81721987D01*
X117411873Y-81760987D01*
X117427090Y-81820250D01*
X117404566Y-81877139D01*
X117370097Y-81900570D01*
X117371274Y-81902881D01*
X117258119Y-81960536D01*
X117258117Y-81960537D01*
X117251180Y-81964072D01*
X117155872Y-82059380D01*
X117152337Y-82066317D01*
X117152336Y-82066319D01*
X117098354Y-82172265D01*
X117094681Y-82179474D01*
X117093462Y-82187168D01*
X117093462Y-82187169D01*
X117084411Y-82244314D01*
X117078900Y-82279112D01*
X117078900Y-82796088D01*
X117079509Y-82799932D01*
X117079509Y-82799934D01*
X117091223Y-82873890D01*
X117094681Y-82895726D01*
X117098217Y-82902665D01*
X117098217Y-82902666D01*
X117147451Y-82999292D01*
X117155872Y-83015820D01*
X117251180Y-83111128D01*
X117258117Y-83114663D01*
X117258119Y-83114664D01*
X117352486Y-83162746D01*
X117371274Y-83172319D01*
X117378968Y-83173538D01*
X117378969Y-83173538D01*
X117467066Y-83187491D01*
X117467068Y-83187491D01*
X117470912Y-83188100D01*
X118037888Y-83188100D01*
X118041732Y-83187491D01*
X118041734Y-83187491D01*
X118129831Y-83173538D01*
X118129832Y-83173538D01*
X118137526Y-83172319D01*
X118156314Y-83162746D01*
X118250681Y-83114664D01*
X118250683Y-83114663D01*
X118257620Y-83111128D01*
X118352928Y-83015820D01*
X118361350Y-82999292D01*
X118385427Y-82952038D01*
X118403201Y-82917154D01*
X118446465Y-82873890D01*
X118491410Y-82863100D01*
X118877812Y-82863100D01*
X118936003Y-82882007D01*
X118966679Y-82918469D01*
X118988590Y-82963096D01*
X119015868Y-83018655D01*
X119021659Y-83024436D01*
X119040806Y-83043550D01*
X119098450Y-83101093D01*
X119203282Y-83152336D01*
X119210884Y-83153445D01*
X119210887Y-83153446D01*
X119268037Y-83161783D01*
X119268039Y-83161783D01*
X119271582Y-83162300D01*
X119808891Y-83162300D01*
X119809497Y-83162302D01*
X119885924Y-83162769D01*
X119887200Y-83162404D01*
X119888729Y-83162300D01*
X120363018Y-83162300D01*
X120366601Y-83161772D01*
X120366608Y-83161772D01*
X120424299Y-83153279D01*
X120424301Y-83153278D01*
X120431912Y-83152158D01*
X120536655Y-83100732D01*
X120619093Y-83018150D01*
X120670336Y-82913318D01*
X120671445Y-82905716D01*
X120671446Y-82905713D01*
X120679783Y-82848563D01*
X120679783Y-82848561D01*
X120680300Y-82845018D01*
X120680300Y-82478582D01*
X120675105Y-82443287D01*
X120671279Y-82417301D01*
X120671278Y-82417299D01*
X120670158Y-82409688D01*
X120618732Y-82304945D01*
X120609260Y-82295489D01*
X120541940Y-82228287D01*
X120536150Y-82222507D01*
X120480650Y-82195378D01*
X120438221Y-82174638D01*
X120438220Y-82174638D01*
X120431318Y-82171264D01*
X120423714Y-82170155D01*
X120420942Y-82169298D01*
X120370928Y-82134051D01*
X120351184Y-82076139D01*
X120358710Y-82036826D01*
X120394360Y-81950759D01*
X120396844Y-81944762D01*
X120417482Y-81788000D01*
X120396844Y-81631238D01*
X120361587Y-81546120D01*
X121129800Y-81546120D01*
X121133922Y-81558805D01*
X121138043Y-81561800D01*
X123039119Y-81561800D01*
X123051804Y-81557678D01*
X123054799Y-81553557D01*
X123054799Y-81510357D01*
X123054580Y-81505714D01*
X123052389Y-81482531D01*
X123049823Y-81470834D01*
X123009438Y-81355834D01*
X123002593Y-81342905D01*
X122930366Y-81245119D01*
X122911002Y-81187078D01*
X122929451Y-81128741D01*
X122978667Y-81092389D01*
X123009999Y-81087300D01*
X123193521Y-81087300D01*
X123251712Y-81106207D01*
X123272871Y-81131364D01*
X123274698Y-81130056D01*
X123279462Y-81136710D01*
X123283068Y-81144055D01*
X123365650Y-81226493D01*
X123470482Y-81277736D01*
X123478084Y-81278845D01*
X123478087Y-81278846D01*
X123535237Y-81287183D01*
X123535239Y-81287183D01*
X123538782Y-81287700D01*
X124630218Y-81287700D01*
X124633801Y-81287172D01*
X124633808Y-81287172D01*
X124691499Y-81278679D01*
X124691501Y-81278678D01*
X124699112Y-81277558D01*
X124731263Y-81261773D01*
X124754429Y-81250399D01*
X124803855Y-81226132D01*
X124827500Y-81202446D01*
X124846351Y-81183562D01*
X124900843Y-81155737D01*
X124961283Y-81165256D01*
X124995905Y-81201077D01*
X124998647Y-81199157D01*
X125007395Y-81211650D01*
X125020932Y-81230983D01*
X125025571Y-81238264D01*
X125045006Y-81271927D01*
X125074771Y-81296903D01*
X125081139Y-81302737D01*
X125467504Y-81689102D01*
X125495281Y-81743619D01*
X125496500Y-81759106D01*
X125496500Y-81920418D01*
X125497028Y-81924001D01*
X125497028Y-81924008D01*
X125502702Y-81962550D01*
X125506642Y-81989312D01*
X125510033Y-81996218D01*
X125510033Y-81996219D01*
X125519507Y-82015515D01*
X125558068Y-82094055D01*
X125563859Y-82099836D01*
X125606220Y-82142123D01*
X125634046Y-82196616D01*
X125624527Y-82257056D01*
X125606345Y-82282128D01*
X125557707Y-82330850D01*
X125506464Y-82435682D01*
X125505355Y-82443284D01*
X125505354Y-82443287D01*
X125497621Y-82496297D01*
X125496500Y-82503982D01*
X125496500Y-82870418D01*
X125497028Y-82874001D01*
X125497028Y-82874008D01*
X125505435Y-82931113D01*
X125506642Y-82939312D01*
X125558068Y-83044055D01*
X125640650Y-83126493D01*
X125745482Y-83177736D01*
X125753084Y-83178845D01*
X125753087Y-83178846D01*
X125810237Y-83187183D01*
X125810239Y-83187183D01*
X125813782Y-83187700D01*
X126905218Y-83187700D01*
X126908801Y-83187172D01*
X126908808Y-83187172D01*
X126966499Y-83178679D01*
X126966501Y-83178678D01*
X126974112Y-83177558D01*
X127006265Y-83161772D01*
X127030763Y-83149744D01*
X127078855Y-83126132D01*
X127114645Y-83090280D01*
X127161293Y-83043550D01*
X127163487Y-83045741D01*
X127201215Y-83017819D01*
X127232636Y-83012700D01*
X127301466Y-83012700D01*
X127310095Y-83013077D01*
X127348807Y-83016464D01*
X127386350Y-83006404D01*
X127394784Y-83004534D01*
X127424517Y-82999292D01*
X127424519Y-82999291D01*
X127433045Y-82997788D01*
X127440544Y-82993458D01*
X127446029Y-82991462D01*
X127451316Y-82988996D01*
X127459684Y-82986754D01*
X127491511Y-82964468D01*
X127498795Y-82959827D01*
X127532455Y-82940394D01*
X127557431Y-82910629D01*
X127563265Y-82904261D01*
X127779430Y-82688096D01*
X127833947Y-82660319D01*
X127849434Y-82659100D01*
X127980586Y-82659100D01*
X128038777Y-82678007D01*
X128068795Y-82713154D01*
X128095212Y-82765000D01*
X128095214Y-82765003D01*
X128098750Y-82771942D01*
X128188458Y-82861650D01*
X128195395Y-82865185D01*
X128195397Y-82865186D01*
X128291027Y-82913912D01*
X128301496Y-82919246D01*
X128309190Y-82920465D01*
X128309191Y-82920465D01*
X128391435Y-82933491D01*
X128391437Y-82933491D01*
X128395281Y-82934100D01*
X128414211Y-82934100D01*
X128869831Y-82934099D01*
X128928021Y-82953006D01*
X128963985Y-83002506D01*
X128967983Y-83046021D01*
X128959718Y-83108800D01*
X128980356Y-83265562D01*
X129040864Y-83411641D01*
X129137118Y-83537082D01*
X129262559Y-83633336D01*
X129408638Y-83693844D01*
X129539831Y-83711116D01*
X129554584Y-83713058D01*
X129565400Y-83714482D01*
X129576217Y-83713058D01*
X129590969Y-83711116D01*
X129722162Y-83693844D01*
X129868241Y-83633336D01*
X129993682Y-83537082D01*
X130089936Y-83411641D01*
X130150444Y-83265562D01*
X130167629Y-83135029D01*
X130195779Y-83077947D01*
X130310631Y-82963096D01*
X130365147Y-82935319D01*
X130380634Y-82934100D01*
X130747579Y-82934099D01*
X130786318Y-82934099D01*
X130790161Y-82933490D01*
X130790166Y-82933490D01*
X130827017Y-82927653D01*
X130880104Y-82919246D01*
X130941367Y-82888031D01*
X130986203Y-82865186D01*
X130986205Y-82865185D01*
X130993142Y-82861650D01*
X131082850Y-82771942D01*
X131086388Y-82765000D01*
X131136910Y-82665844D01*
X131136910Y-82665843D01*
X131140446Y-82658904D01*
X131142073Y-82648635D01*
X131154691Y-82568965D01*
X131154691Y-82568963D01*
X131155300Y-82565119D01*
X131155299Y-82102082D01*
X131154417Y-82096508D01*
X131148446Y-82058813D01*
X131140446Y-82008296D01*
X131136911Y-82001358D01*
X131136910Y-82001355D01*
X131121670Y-81971446D01*
X131112098Y-81911014D01*
X131139875Y-81856497D01*
X131194391Y-81828719D01*
X131209879Y-81827500D01*
X132660967Y-81827500D01*
X132719158Y-81846407D01*
X132755122Y-81895907D01*
X132755995Y-81898928D01*
X132756394Y-81900056D01*
X132757511Y-81904452D01*
X132849883Y-82104821D01*
X132977222Y-82285002D01*
X133037283Y-82343511D01*
X133098125Y-82402781D01*
X133135264Y-82438961D01*
X133318717Y-82561540D01*
X133521436Y-82648635D01*
X133567685Y-82659100D01*
X133732206Y-82696328D01*
X133732211Y-82696329D01*
X133736632Y-82697329D01*
X133846865Y-82701660D01*
X133952565Y-82705813D01*
X133952566Y-82705813D01*
X133957098Y-82705991D01*
X134175452Y-82674331D01*
X134179751Y-82672872D01*
X134179754Y-82672871D01*
X134380078Y-82604870D01*
X134384379Y-82603410D01*
X134418412Y-82584351D01*
X134513532Y-82531081D01*
X134576884Y-82495602D01*
X134746518Y-82354518D01*
X134755673Y-82343511D01*
X134805995Y-82283005D01*
X134887602Y-82184884D01*
X134969293Y-82039015D01*
X134993192Y-81996340D01*
X134993193Y-81996338D01*
X134995410Y-81992379D01*
X135012828Y-81941066D01*
X135064871Y-81787754D01*
X135064872Y-81787751D01*
X135066331Y-81783452D01*
X135070965Y-81751490D01*
X135097571Y-81567997D01*
X135097571Y-81567991D01*
X135097991Y-81565098D01*
X135098078Y-81561800D01*
X135099567Y-81504914D01*
X135099567Y-81504909D01*
X135099643Y-81502000D01*
X135098647Y-81491154D01*
X135085024Y-81342905D01*
X135079454Y-81282289D01*
X135071204Y-81253035D01*
X135020799Y-81074311D01*
X135020798Y-81074310D01*
X135019565Y-81069936D01*
X135017557Y-81065864D01*
X135017555Y-81065859D01*
X134923988Y-80876125D01*
X134921980Y-80872053D01*
X134789967Y-80695267D01*
X134719666Y-80630281D01*
X134631279Y-80548577D01*
X134631278Y-80548576D01*
X134627949Y-80545499D01*
X134609091Y-80533600D01*
X134445187Y-80430185D01*
X134441350Y-80427764D01*
X134236421Y-80346006D01*
X134020024Y-80302962D01*
X133911347Y-80301539D01*
X133803946Y-80300133D01*
X133803941Y-80300133D01*
X133799406Y-80300074D01*
X133794933Y-80300843D01*
X133794928Y-80300843D01*
X133586435Y-80336668D01*
X133586429Y-80336670D01*
X133581957Y-80337438D01*
X133495556Y-80369313D01*
X133379220Y-80412231D01*
X133379217Y-80412232D01*
X133374957Y-80413804D01*
X133371054Y-80416126D01*
X133371052Y-80416127D01*
X133317084Y-80448235D01*
X133185341Y-80526614D01*
X133181926Y-80529609D01*
X133181923Y-80529611D01*
X133097119Y-80603982D01*
X133019457Y-80672090D01*
X133016649Y-80675652D01*
X132889773Y-80836595D01*
X132882863Y-80845360D01*
X132880749Y-80849378D01*
X132796818Y-81008904D01*
X132780131Y-81040620D01*
X132778691Y-81045258D01*
X132759563Y-81106858D01*
X132724250Y-81156825D01*
X132665016Y-81176500D01*
X131321860Y-81176500D01*
X131263669Y-81157593D01*
X131227705Y-81108093D01*
X131229160Y-81042748D01*
X131245978Y-80997887D01*
X131248829Y-80985898D01*
X131254511Y-80933591D01*
X131254800Y-80928257D01*
X131254800Y-80849280D01*
X131250678Y-80836595D01*
X131246557Y-80833600D01*
X129720480Y-80833600D01*
X129707795Y-80837722D01*
X129704800Y-80841843D01*
X129704800Y-80928257D01*
X129705089Y-80933591D01*
X129710771Y-80985898D01*
X129713622Y-80997887D01*
X129759243Y-81119582D01*
X129765945Y-81131823D01*
X129816651Y-81199481D01*
X129836419Y-81257385D01*
X129818377Y-81315850D01*
X129807434Y-81328857D01*
X129424543Y-81711748D01*
X129418176Y-81717582D01*
X129388406Y-81742562D01*
X129374035Y-81767454D01*
X129368973Y-81776222D01*
X129364343Y-81783490D01*
X129360881Y-81788434D01*
X129312020Y-81825256D01*
X129250844Y-81826326D01*
X129221595Y-81811745D01*
X129220652Y-81811060D01*
X129215142Y-81805550D01*
X129140375Y-81767454D01*
X129109044Y-81751490D01*
X129109043Y-81751490D01*
X129102104Y-81747954D01*
X129094410Y-81746735D01*
X129094409Y-81746735D01*
X129012165Y-81733709D01*
X129012163Y-81733709D01*
X129008319Y-81733100D01*
X128701840Y-81733100D01*
X128395282Y-81733101D01*
X128391439Y-81733710D01*
X128391434Y-81733710D01*
X128354583Y-81739547D01*
X128301496Y-81747954D01*
X128246017Y-81776222D01*
X128195397Y-81802014D01*
X128195395Y-81802015D01*
X128188458Y-81805550D01*
X128098750Y-81895258D01*
X128095215Y-81902196D01*
X128095212Y-81902200D01*
X128068795Y-81954046D01*
X128025530Y-81997310D01*
X127980586Y-82008100D01*
X127692134Y-82008100D01*
X127683505Y-82007723D01*
X127653422Y-82005091D01*
X127644793Y-82004336D01*
X127636426Y-82006578D01*
X127607251Y-82014396D01*
X127598816Y-82016266D01*
X127569083Y-82021508D01*
X127569081Y-82021509D01*
X127560555Y-82023012D01*
X127553056Y-82027342D01*
X127547571Y-82029338D01*
X127542284Y-82031804D01*
X127533916Y-82034046D01*
X127505599Y-82053874D01*
X127502089Y-82056332D01*
X127494808Y-82060971D01*
X127461145Y-82080406D01*
X127444841Y-82099836D01*
X127436169Y-82110171D01*
X127430335Y-82116539D01*
X127258697Y-82288177D01*
X127204180Y-82315954D01*
X127143748Y-82306383D01*
X127118748Y-82288235D01*
X127112777Y-82282274D01*
X127084954Y-82227781D01*
X127094475Y-82167341D01*
X127112655Y-82142272D01*
X127161293Y-82093550D01*
X127212536Y-81988718D01*
X127213645Y-81981116D01*
X127213646Y-81981113D01*
X127221983Y-81923963D01*
X127221983Y-81923961D01*
X127222500Y-81920418D01*
X127222500Y-81553982D01*
X127218823Y-81529000D01*
X127213479Y-81492701D01*
X127213478Y-81492699D01*
X127212358Y-81485088D01*
X127208967Y-81478181D01*
X127162369Y-81383271D01*
X127153695Y-81322703D01*
X127182279Y-81268605D01*
X127184537Y-81266690D01*
X127198192Y-81253035D01*
X127269791Y-81156099D01*
X127276638Y-81143166D01*
X127317023Y-81028166D01*
X127319590Y-81016466D01*
X127321782Y-80993282D01*
X127322000Y-80988646D01*
X127322000Y-80952880D01*
X127317878Y-80940195D01*
X127313757Y-80937200D01*
X126308500Y-80937200D01*
X126250309Y-80918293D01*
X126214345Y-80868793D01*
X126209500Y-80838200D01*
X126209500Y-80621520D01*
X126509500Y-80621520D01*
X126513622Y-80634205D01*
X126517743Y-80637200D01*
X127306319Y-80637200D01*
X127319004Y-80633078D01*
X127321999Y-80628957D01*
X127321999Y-80585747D01*
X127321780Y-80581114D01*
X127319589Y-80557931D01*
X127317024Y-80546235D01*
X127283959Y-80452081D01*
X128026300Y-80452081D01*
X128026301Y-80915118D01*
X128026910Y-80918961D01*
X128026910Y-80918966D01*
X128031036Y-80945018D01*
X128041154Y-81008904D01*
X128069952Y-81065423D01*
X128093333Y-81111310D01*
X128098750Y-81121942D01*
X128188458Y-81211650D01*
X128195395Y-81215185D01*
X128195397Y-81215186D01*
X128287968Y-81262353D01*
X128301496Y-81269246D01*
X128309190Y-81270465D01*
X128309191Y-81270465D01*
X128391435Y-81283491D01*
X128391437Y-81283491D01*
X128395281Y-81284100D01*
X128701760Y-81284100D01*
X129008318Y-81284099D01*
X129012161Y-81283490D01*
X129012166Y-81283490D01*
X129050024Y-81277494D01*
X129102104Y-81269246D01*
X129178353Y-81230395D01*
X129208203Y-81215186D01*
X129208205Y-81215185D01*
X129215142Y-81211650D01*
X129304850Y-81121942D01*
X129310268Y-81111310D01*
X129358910Y-81015844D01*
X129358910Y-81015843D01*
X129362446Y-81008904D01*
X129365555Y-80989279D01*
X129376691Y-80918965D01*
X129376691Y-80918963D01*
X129377300Y-80915119D01*
X129377299Y-80517920D01*
X129704800Y-80517920D01*
X129708922Y-80530605D01*
X129713043Y-80533600D01*
X130314120Y-80533600D01*
X130326805Y-80529478D01*
X130329800Y-80525357D01*
X130329800Y-80517920D01*
X130629800Y-80517920D01*
X130633922Y-80530605D01*
X130638043Y-80533600D01*
X131239120Y-80533600D01*
X131251805Y-80529478D01*
X131254800Y-80525357D01*
X131254800Y-80438943D01*
X131254511Y-80433609D01*
X131248829Y-80381302D01*
X131245978Y-80369313D01*
X131200357Y-80247618D01*
X131193657Y-80235381D01*
X131116219Y-80132055D01*
X131106345Y-80122181D01*
X131003019Y-80044743D01*
X130990782Y-80038043D01*
X130869087Y-79992422D01*
X130857098Y-79989571D01*
X130804791Y-79983889D01*
X130799457Y-79983600D01*
X130645480Y-79983600D01*
X130632795Y-79987722D01*
X130629800Y-79991843D01*
X130629800Y-80517920D01*
X130329800Y-80517920D01*
X130329800Y-79999280D01*
X130325678Y-79986595D01*
X130321557Y-79983600D01*
X130160143Y-79983600D01*
X130154809Y-79983889D01*
X130102502Y-79989571D01*
X130090513Y-79992422D01*
X129968818Y-80038043D01*
X129956581Y-80044743D01*
X129853255Y-80122181D01*
X129843381Y-80132055D01*
X129765943Y-80235381D01*
X129759243Y-80247618D01*
X129713622Y-80369313D01*
X129710771Y-80381302D01*
X129705089Y-80433609D01*
X129704800Y-80438943D01*
X129704800Y-80517920D01*
X129377299Y-80517920D01*
X129377299Y-80452082D01*
X129374605Y-80435068D01*
X129369834Y-80404945D01*
X129362446Y-80358296D01*
X129331941Y-80298427D01*
X129308386Y-80252197D01*
X129308385Y-80252195D01*
X129304850Y-80245258D01*
X129215142Y-80155550D01*
X129208205Y-80152015D01*
X129208203Y-80152014D01*
X129149652Y-80122181D01*
X129102104Y-80097954D01*
X129095327Y-80096881D01*
X129046209Y-80061196D01*
X129027300Y-80003003D01*
X129027300Y-78641134D01*
X129046207Y-78582943D01*
X129056296Y-78571130D01*
X129541530Y-78085896D01*
X129596047Y-78058119D01*
X129611534Y-78056900D01*
X130156418Y-78056900D01*
X130160001Y-78056372D01*
X130160008Y-78056372D01*
X130217699Y-78047879D01*
X130217701Y-78047878D01*
X130225312Y-78046758D01*
X130330055Y-77995332D01*
X130345233Y-77980128D01*
X130406713Y-77918540D01*
X130412493Y-77912750D01*
X130463736Y-77807918D01*
X130464845Y-77800316D01*
X130464846Y-77800313D01*
X130473183Y-77743163D01*
X130473183Y-77743161D01*
X130473700Y-77739618D01*
X130473700Y-77542599D01*
X130822401Y-77542599D01*
X130822760Y-77548557D01*
X130831997Y-77624894D01*
X130835102Y-77637119D01*
X130883227Y-77758672D01*
X130889793Y-77770325D01*
X130968596Y-77874142D01*
X130978058Y-77883604D01*
X131081875Y-77962407D01*
X131093528Y-77968973D01*
X131215079Y-78017097D01*
X131227307Y-78020203D01*
X131303645Y-78029441D01*
X131309599Y-78029800D01*
X131431720Y-78029800D01*
X131444405Y-78025678D01*
X131447400Y-78021557D01*
X131447400Y-78014119D01*
X131747400Y-78014119D01*
X131751522Y-78026804D01*
X131755643Y-78029799D01*
X131885199Y-78029799D01*
X131891157Y-78029440D01*
X131967494Y-78020203D01*
X131979719Y-78017098D01*
X132101272Y-77968973D01*
X132112925Y-77962407D01*
X132216742Y-77883604D01*
X132226204Y-77874142D01*
X132305007Y-77770325D01*
X132311573Y-77758672D01*
X132359697Y-77637121D01*
X132362803Y-77624893D01*
X132372041Y-77548555D01*
X132372400Y-77542601D01*
X132372400Y-77445480D01*
X132368278Y-77432795D01*
X132364157Y-77429800D01*
X131763080Y-77429800D01*
X131750395Y-77433922D01*
X131747400Y-77438043D01*
X131747400Y-78014119D01*
X131447400Y-78014119D01*
X131447400Y-77445480D01*
X131443278Y-77432795D01*
X131439157Y-77429800D01*
X130838081Y-77429800D01*
X130825396Y-77433922D01*
X130822401Y-77438043D01*
X130822401Y-77542599D01*
X130473700Y-77542599D01*
X130473700Y-77373182D01*
X130471142Y-77355800D01*
X130464679Y-77311901D01*
X130464678Y-77311899D01*
X130463558Y-77304288D01*
X130449526Y-77275707D01*
X130433350Y-77242762D01*
X130412132Y-77199545D01*
X130329550Y-77117107D01*
X130224718Y-77065864D01*
X130217116Y-77064755D01*
X130217113Y-77064754D01*
X130159963Y-77056417D01*
X130159961Y-77056417D01*
X130156418Y-77055900D01*
X129064982Y-77055900D01*
X129061399Y-77056428D01*
X129061392Y-77056428D01*
X129003701Y-77064921D01*
X129003699Y-77064922D01*
X128996088Y-77066042D01*
X128989182Y-77069433D01*
X128989181Y-77069433D01*
X128977885Y-77074979D01*
X128891345Y-77117468D01*
X128885564Y-77123259D01*
X128877341Y-77131496D01*
X128808907Y-77200050D01*
X128757664Y-77304882D01*
X128756555Y-77312484D01*
X128756554Y-77312487D01*
X128751218Y-77349068D01*
X128747700Y-77373182D01*
X128747700Y-77739618D01*
X128748228Y-77743201D01*
X128748228Y-77743208D01*
X128756635Y-77800313D01*
X128757842Y-77808512D01*
X128761234Y-77815420D01*
X128761234Y-77815421D01*
X128772873Y-77839127D01*
X128781548Y-77899694D01*
X128754011Y-77952763D01*
X128484743Y-78222031D01*
X128478376Y-78227865D01*
X128448606Y-78252845D01*
X128444277Y-78260344D01*
X128429173Y-78286505D01*
X128424532Y-78293789D01*
X128402246Y-78325616D01*
X128400004Y-78333984D01*
X128397538Y-78339271D01*
X128395542Y-78344756D01*
X128391212Y-78352255D01*
X128389709Y-78360781D01*
X128389708Y-78360783D01*
X128384466Y-78390516D01*
X128382596Y-78398950D01*
X128372536Y-78436493D01*
X128373291Y-78445122D01*
X128375923Y-78475205D01*
X128376300Y-78483834D01*
X128376300Y-80003003D01*
X128357393Y-80061194D01*
X128308273Y-80096881D01*
X128301496Y-80097954D01*
X128253948Y-80122181D01*
X128195397Y-80152014D01*
X128195395Y-80152015D01*
X128188458Y-80155550D01*
X128098750Y-80245258D01*
X128095215Y-80252195D01*
X128095214Y-80252197D01*
X128044690Y-80351356D01*
X128041154Y-80358296D01*
X128039935Y-80365990D01*
X128039935Y-80365991D01*
X128028799Y-80436300D01*
X128026300Y-80452081D01*
X127283959Y-80452081D01*
X127276638Y-80431234D01*
X127269791Y-80418301D01*
X127198192Y-80321365D01*
X127187835Y-80311008D01*
X127090899Y-80239409D01*
X127077966Y-80232562D01*
X126962969Y-80192178D01*
X126951266Y-80189610D01*
X126928082Y-80187418D01*
X126923446Y-80187200D01*
X126525180Y-80187200D01*
X126512495Y-80191322D01*
X126509500Y-80195443D01*
X126509500Y-80621520D01*
X126209500Y-80621520D01*
X126209500Y-80202881D01*
X126205378Y-80190196D01*
X126201257Y-80187201D01*
X125795557Y-80187201D01*
X125790914Y-80187420D01*
X125767731Y-80189611D01*
X125756033Y-80192177D01*
X125755506Y-80192362D01*
X125755151Y-80192370D01*
X125750139Y-80193470D01*
X125749925Y-80192494D01*
X125694338Y-80193806D01*
X125644003Y-80159021D01*
X125623700Y-80098956D01*
X125623700Y-80057970D01*
X125642607Y-79999779D01*
X125662433Y-79979428D01*
X125670622Y-79973145D01*
X125726482Y-79930282D01*
X125822736Y-79804841D01*
X125883244Y-79658762D01*
X125903882Y-79502000D01*
X125902378Y-79490572D01*
X125896731Y-79447682D01*
X125883244Y-79345238D01*
X125822736Y-79199159D01*
X125726482Y-79073718D01*
X125601041Y-78977464D01*
X125454962Y-78916956D01*
X125298200Y-78896318D01*
X125218158Y-78906856D01*
X125157999Y-78895706D01*
X125135233Y-78878707D01*
X125109669Y-78853143D01*
X125103834Y-78846775D01*
X125099520Y-78841634D01*
X125078855Y-78817006D01*
X125045192Y-78797571D01*
X125037911Y-78792932D01*
X125025112Y-78783970D01*
X125006084Y-78770646D01*
X124997716Y-78768404D01*
X124992429Y-78765938D01*
X124986944Y-78763942D01*
X124979445Y-78759612D01*
X124970919Y-78758109D01*
X124970917Y-78758108D01*
X124941184Y-78752866D01*
X124932749Y-78750996D01*
X124903574Y-78743178D01*
X124895207Y-78740936D01*
X124869582Y-78743178D01*
X124856495Y-78744323D01*
X124847866Y-78744700D01*
X124822597Y-78744700D01*
X124764406Y-78725793D01*
X124728719Y-78676673D01*
X124727646Y-78669896D01*
X124687640Y-78591380D01*
X124673586Y-78563797D01*
X124673585Y-78563795D01*
X124670050Y-78556858D01*
X124580342Y-78467150D01*
X124573405Y-78463615D01*
X124573403Y-78463614D01*
X124474244Y-78413090D01*
X124474243Y-78413090D01*
X124467304Y-78409554D01*
X124459610Y-78408335D01*
X124459609Y-78408335D01*
X124377365Y-78395309D01*
X124377363Y-78395309D01*
X124373519Y-78394700D01*
X124142030Y-78394700D01*
X123910482Y-78394701D01*
X123906639Y-78395310D01*
X123906634Y-78395310D01*
X123870108Y-78401095D01*
X123816696Y-78409554D01*
X123763144Y-78436840D01*
X123710597Y-78463614D01*
X123710595Y-78463615D01*
X123703658Y-78467150D01*
X123613950Y-78556858D01*
X123610415Y-78563795D01*
X123610414Y-78563797D01*
X123571009Y-78641134D01*
X123556354Y-78669896D01*
X123555135Y-78677590D01*
X123555135Y-78677591D01*
X123542179Y-78759391D01*
X123541500Y-78763681D01*
X123541501Y-79376718D01*
X123542110Y-79380561D01*
X123542110Y-79380566D01*
X123545553Y-79402304D01*
X123556354Y-79470504D01*
X123613950Y-79583542D01*
X123703658Y-79673250D01*
X123710595Y-79676785D01*
X123710597Y-79676786D01*
X123809670Y-79727266D01*
X123816696Y-79730846D01*
X123824390Y-79732065D01*
X123824391Y-79732065D01*
X123906635Y-79745091D01*
X123906637Y-79745091D01*
X123910481Y-79745700D01*
X124141970Y-79745700D01*
X124373518Y-79745699D01*
X124377361Y-79745090D01*
X124377366Y-79745090D01*
X124417737Y-79738696D01*
X124467304Y-79730846D01*
X124580342Y-79673250D01*
X124585327Y-79668265D01*
X124643162Y-79649475D01*
X124701352Y-79668383D01*
X124734624Y-79710590D01*
X124771179Y-79798844D01*
X124771182Y-79798850D01*
X124773664Y-79804841D01*
X124869918Y-79930282D01*
X124925779Y-79973145D01*
X124933967Y-79979428D01*
X124968623Y-80029852D01*
X124972700Y-80057970D01*
X124972700Y-80278249D01*
X124953793Y-80336440D01*
X124904293Y-80372404D01*
X124843107Y-80372404D01*
X124817165Y-80356528D01*
X124815802Y-80358439D01*
X124809141Y-80353688D01*
X124803350Y-80347907D01*
X124698518Y-80296664D01*
X124690916Y-80295555D01*
X124690913Y-80295554D01*
X124633763Y-80287217D01*
X124633761Y-80287217D01*
X124630218Y-80286700D01*
X123538782Y-80286700D01*
X123535199Y-80287228D01*
X123535192Y-80287228D01*
X123477501Y-80295721D01*
X123477499Y-80295722D01*
X123469888Y-80296842D01*
X123365145Y-80348268D01*
X123320234Y-80393258D01*
X123306274Y-80407242D01*
X123251781Y-80435068D01*
X123236209Y-80436300D01*
X122965406Y-80436300D01*
X122907215Y-80417393D01*
X122894295Y-80404381D01*
X122893732Y-80404945D01*
X122847145Y-80358439D01*
X122811150Y-80322507D01*
X122706318Y-80271264D01*
X122698716Y-80270155D01*
X122698713Y-80270154D01*
X122641563Y-80261817D01*
X122641561Y-80261817D01*
X122638018Y-80261300D01*
X122516800Y-80261300D01*
X122458609Y-80242393D01*
X122422645Y-80192893D01*
X122417800Y-80162300D01*
X122417800Y-80140533D01*
X122436707Y-80082342D01*
X122446797Y-80070529D01*
X122566081Y-79951246D01*
X122709064Y-79808263D01*
X122715417Y-79802441D01*
X122745194Y-79777455D01*
X122749527Y-79769950D01*
X122753188Y-79765587D01*
X122802332Y-79734879D01*
X122802200Y-79734472D01*
X122803831Y-79733942D01*
X122805076Y-79733164D01*
X122808152Y-79732538D01*
X122809608Y-79732065D01*
X122817304Y-79730846D01*
X122892874Y-79692341D01*
X122923403Y-79676786D01*
X122923405Y-79676785D01*
X122930342Y-79673250D01*
X123020050Y-79583542D01*
X123037100Y-79550081D01*
X123074110Y-79477444D01*
X123074110Y-79477443D01*
X123077646Y-79470504D01*
X123079554Y-79458461D01*
X123091891Y-79380565D01*
X123091891Y-79380563D01*
X123092500Y-79376719D01*
X123092499Y-78763682D01*
X123091855Y-78759612D01*
X123085036Y-78716559D01*
X123077646Y-78669896D01*
X123037640Y-78591380D01*
X123023586Y-78563797D01*
X123023585Y-78563795D01*
X123020050Y-78556858D01*
X122930342Y-78467150D01*
X122923405Y-78463615D01*
X122923403Y-78463614D01*
X122824244Y-78413090D01*
X122824243Y-78413090D01*
X122817304Y-78409554D01*
X122809610Y-78408335D01*
X122809609Y-78408335D01*
X122727365Y-78395309D01*
X122727363Y-78395309D01*
X122723519Y-78394700D01*
X122492030Y-78394700D01*
X122260482Y-78394701D01*
X122256639Y-78395310D01*
X122256634Y-78395310D01*
X122220108Y-78401095D01*
X122166696Y-78409554D01*
X122113144Y-78436840D01*
X122060597Y-78463614D01*
X122060595Y-78463615D01*
X122053658Y-78467150D01*
X121963950Y-78556858D01*
X121960415Y-78563795D01*
X121960414Y-78563797D01*
X121921009Y-78641134D01*
X121906354Y-78669896D01*
X121905135Y-78677590D01*
X121905135Y-78677591D01*
X121892179Y-78759391D01*
X121891500Y-78763681D01*
X121891501Y-79376718D01*
X121892110Y-79380561D01*
X121892110Y-79380566D01*
X121895553Y-79402304D01*
X121906354Y-79470504D01*
X121916579Y-79490572D01*
X121947896Y-79552035D01*
X121957467Y-79612467D01*
X121929690Y-79666984D01*
X121875243Y-79721431D01*
X121868875Y-79727266D01*
X121839106Y-79752245D01*
X121819673Y-79785905D01*
X121815032Y-79793189D01*
X121792746Y-79825016D01*
X121790504Y-79833384D01*
X121788038Y-79838671D01*
X121786042Y-79844156D01*
X121781712Y-79851655D01*
X121780209Y-79860181D01*
X121780208Y-79860183D01*
X121774966Y-79889916D01*
X121773096Y-79898350D01*
X121763036Y-79935893D01*
X121764379Y-79951246D01*
X121766423Y-79974605D01*
X121766800Y-79983234D01*
X121766800Y-80162300D01*
X121747893Y-80220491D01*
X121698393Y-80256455D01*
X121667800Y-80261300D01*
X121546582Y-80261300D01*
X121542999Y-80261828D01*
X121542992Y-80261828D01*
X121485301Y-80270321D01*
X121485299Y-80270322D01*
X121477688Y-80271442D01*
X121470782Y-80274833D01*
X121470781Y-80274833D01*
X121431526Y-80294106D01*
X121372945Y-80322868D01*
X121290507Y-80405450D01*
X121239264Y-80510282D01*
X121238155Y-80517884D01*
X121238154Y-80517887D01*
X121232274Y-80558197D01*
X121229300Y-80578582D01*
X121229300Y-80945018D01*
X121229828Y-80948601D01*
X121229828Y-80948608D01*
X121238235Y-81005713D01*
X121239442Y-81013912D01*
X121242833Y-81020818D01*
X121242833Y-81020819D01*
X121289431Y-81115729D01*
X121298105Y-81176297D01*
X121269521Y-81230395D01*
X121267263Y-81232310D01*
X121253608Y-81245965D01*
X121182009Y-81342901D01*
X121175162Y-81355834D01*
X121134778Y-81470831D01*
X121132210Y-81482534D01*
X121130018Y-81505718D01*
X121129800Y-81510354D01*
X121129800Y-81546120D01*
X120361587Y-81546120D01*
X120336336Y-81485159D01*
X120287376Y-81421353D01*
X120266953Y-81363680D01*
X120284330Y-81305014D01*
X120332872Y-81267767D01*
X120358684Y-81262353D01*
X120359407Y-81262300D01*
X120363018Y-81262300D01*
X120384948Y-81259072D01*
X120424299Y-81253279D01*
X120424301Y-81253278D01*
X120431912Y-81252158D01*
X120463397Y-81236700D01*
X120496716Y-81220341D01*
X120536655Y-81200732D01*
X120619093Y-81118150D01*
X120670336Y-81013318D01*
X120671445Y-81005716D01*
X120671446Y-81005713D01*
X120679783Y-80948563D01*
X120679783Y-80948561D01*
X120680300Y-80945018D01*
X120680300Y-80578582D01*
X120677300Y-80558197D01*
X120671279Y-80517301D01*
X120671278Y-80517299D01*
X120670158Y-80509688D01*
X120663638Y-80496407D01*
X120641875Y-80452082D01*
X120618732Y-80404945D01*
X120536150Y-80322507D01*
X120431318Y-80271264D01*
X120423716Y-80270155D01*
X120423713Y-80270154D01*
X120366563Y-80261817D01*
X120366561Y-80261817D01*
X120363018Y-80261300D01*
X119271582Y-80261300D01*
X119267999Y-80261828D01*
X119267992Y-80261828D01*
X119210301Y-80270321D01*
X119210299Y-80270322D01*
X119202688Y-80271442D01*
X119195782Y-80274833D01*
X119195781Y-80274833D01*
X119156526Y-80294106D01*
X119097945Y-80322868D01*
X119015507Y-80405450D01*
X118964264Y-80510282D01*
X118963155Y-80517884D01*
X118963154Y-80517887D01*
X118957274Y-80558197D01*
X118954300Y-80578582D01*
X118954300Y-80945018D01*
X118954828Y-80948601D01*
X118954828Y-80948608D01*
X118963235Y-81005713D01*
X118964442Y-81013912D01*
X119015868Y-81118655D01*
X119098450Y-81201093D01*
X119203282Y-81252336D01*
X119210884Y-81253445D01*
X119210887Y-81253446D01*
X119271582Y-81262300D01*
X119271333Y-81264006D01*
X119322070Y-81284641D01*
X119354374Y-81336604D01*
X119349966Y-81397630D01*
X119336803Y-81420599D01*
X119287264Y-81485159D01*
X119226756Y-81631238D01*
X119206118Y-81788000D01*
X119226756Y-81944762D01*
X119229240Y-81950759D01*
X119229241Y-81950762D01*
X119266137Y-82039838D01*
X119270938Y-82100834D01*
X119238968Y-82153003D01*
X119206578Y-82170869D01*
X119202688Y-82171442D01*
X119195780Y-82174834D01*
X119195779Y-82174834D01*
X119192400Y-82176493D01*
X119144048Y-82200233D01*
X119140516Y-82201967D01*
X119096885Y-82212100D01*
X118491410Y-82212100D01*
X118433219Y-82193193D01*
X118403200Y-82158045D01*
X118403066Y-82157781D01*
X118370596Y-82094055D01*
X118356464Y-82066319D01*
X118356463Y-82066317D01*
X118352928Y-82059380D01*
X118257620Y-81964072D01*
X118250683Y-81960537D01*
X118250681Y-81960536D01*
X118137526Y-81902881D01*
X118138899Y-81900186D01*
X118100410Y-81872209D01*
X118081515Y-81814014D01*
X118100435Y-81755827D01*
X118144071Y-81721987D01*
X118258272Y-81676773D01*
X118269925Y-81670207D01*
X118373742Y-81591404D01*
X118383204Y-81581942D01*
X118462007Y-81478125D01*
X118468573Y-81466472D01*
X118516697Y-81344921D01*
X118519803Y-81332693D01*
X118529041Y-81256355D01*
X118529400Y-81250401D01*
X118529400Y-81153280D01*
X118525278Y-81140595D01*
X118521157Y-81137600D01*
X116995081Y-81137600D01*
X116982396Y-81141722D01*
X116979401Y-81145843D01*
X116979401Y-81250399D01*
X116403500Y-81250399D01*
X116403500Y-80821920D01*
X116979400Y-80821920D01*
X116983522Y-80834605D01*
X116987643Y-80837600D01*
X117588720Y-80837600D01*
X117601405Y-80833478D01*
X117604400Y-80829357D01*
X117604400Y-80821920D01*
X117904400Y-80821920D01*
X117908522Y-80834605D01*
X117912643Y-80837600D01*
X118513719Y-80837600D01*
X118526404Y-80833478D01*
X118529399Y-80829357D01*
X118529399Y-80724801D01*
X118529040Y-80718843D01*
X118519803Y-80642506D01*
X118516698Y-80630281D01*
X118468573Y-80508728D01*
X118462007Y-80497075D01*
X118383204Y-80393258D01*
X118373742Y-80383796D01*
X118269925Y-80304993D01*
X118258272Y-80298427D01*
X118136721Y-80250303D01*
X118124493Y-80247197D01*
X118048155Y-80237959D01*
X118042201Y-80237600D01*
X117920080Y-80237600D01*
X117907395Y-80241722D01*
X117904400Y-80245843D01*
X117904400Y-80821920D01*
X117604400Y-80821920D01*
X117604400Y-80253281D01*
X117600278Y-80240596D01*
X117596157Y-80237601D01*
X117466601Y-80237601D01*
X117460643Y-80237960D01*
X117384306Y-80247197D01*
X117372081Y-80250302D01*
X117250528Y-80298427D01*
X117238875Y-80304993D01*
X117135058Y-80383796D01*
X117125596Y-80393258D01*
X117046793Y-80497075D01*
X117040227Y-80508728D01*
X116992103Y-80630279D01*
X116988997Y-80642507D01*
X116979759Y-80718845D01*
X116979400Y-80724799D01*
X116979400Y-80821920D01*
X116403500Y-80821920D01*
X116403500Y-78077600D01*
X116422407Y-78019409D01*
X116471907Y-77983445D01*
X116502500Y-77978600D01*
X116832220Y-77978600D01*
X116844905Y-77974478D01*
X116847900Y-77970357D01*
X116847900Y-77962919D01*
X117147900Y-77962919D01*
X117152022Y-77975604D01*
X117156143Y-77978599D01*
X117561843Y-77978599D01*
X117566486Y-77978380D01*
X117589669Y-77976189D01*
X117601365Y-77973624D01*
X117716366Y-77933238D01*
X117729299Y-77926391D01*
X117826235Y-77854792D01*
X117836592Y-77844435D01*
X117908191Y-77747499D01*
X117915038Y-77734566D01*
X117955422Y-77619569D01*
X117957990Y-77607866D01*
X117960182Y-77584682D01*
X117960400Y-77580046D01*
X117960400Y-77544280D01*
X117956278Y-77531595D01*
X117952157Y-77528600D01*
X117163580Y-77528600D01*
X117150895Y-77532722D01*
X117147900Y-77536843D01*
X117147900Y-77962919D01*
X116847900Y-77962919D01*
X116847900Y-77212920D01*
X117147900Y-77212920D01*
X117152022Y-77225605D01*
X117156143Y-77228600D01*
X117944719Y-77228600D01*
X117957404Y-77224478D01*
X117960399Y-77220357D01*
X117960399Y-77177157D01*
X117960180Y-77172514D01*
X117957989Y-77149331D01*
X117955424Y-77137635D01*
X117915038Y-77022634D01*
X117908191Y-77009701D01*
X117873267Y-76962418D01*
X117853903Y-76904378D01*
X117873267Y-76844782D01*
X117908191Y-76797499D01*
X117915038Y-76784566D01*
X117955422Y-76669569D01*
X117957990Y-76657866D01*
X117960182Y-76634682D01*
X117960400Y-76630046D01*
X117960400Y-76594280D01*
X117956278Y-76581595D01*
X117952157Y-76578600D01*
X117163580Y-76578600D01*
X117150895Y-76582722D01*
X117147900Y-76586843D01*
X117147900Y-77212920D01*
X116847900Y-77212920D01*
X116847900Y-76377600D01*
X116866807Y-76319409D01*
X116916307Y-76283445D01*
X116946900Y-76278600D01*
X117944719Y-76278600D01*
X117957404Y-76274478D01*
X117960399Y-76270357D01*
X117960399Y-76227157D01*
X117960180Y-76222514D01*
X117957989Y-76199331D01*
X117955424Y-76187635D01*
X117915038Y-76072634D01*
X117908191Y-76059701D01*
X117836592Y-75962765D01*
X117821006Y-75947179D01*
X117823163Y-75945022D01*
X117795331Y-75906095D01*
X117795796Y-75844911D01*
X117800772Y-75832743D01*
X117847561Y-75737022D01*
X117850936Y-75730118D01*
X117852045Y-75722516D01*
X117852046Y-75722513D01*
X117860383Y-75665363D01*
X117860383Y-75665361D01*
X117860900Y-75661818D01*
X117860900Y-75295382D01*
X117859778Y-75287754D01*
X117851879Y-75234101D01*
X117851878Y-75234099D01*
X117850758Y-75226488D01*
X117799332Y-75121745D01*
X117716750Y-75039307D01*
X117611918Y-74988064D01*
X117604316Y-74986955D01*
X117604313Y-74986954D01*
X117547163Y-74978617D01*
X117547161Y-74978617D01*
X117543618Y-74978100D01*
X116452182Y-74978100D01*
X116448599Y-74978628D01*
X116448592Y-74978628D01*
X116390901Y-74987121D01*
X116390899Y-74987122D01*
X116383288Y-74988242D01*
X116376382Y-74991633D01*
X116376381Y-74991633D01*
X116361171Y-74999101D01*
X116278545Y-75039668D01*
X116196107Y-75122250D01*
X116194477Y-75125584D01*
X116147204Y-75160565D01*
X116132984Y-75164176D01*
X116114794Y-75167384D01*
X116054204Y-75158871D01*
X116010190Y-75116370D01*
X115998600Y-75069889D01*
X115998600Y-73510457D01*
X116420600Y-73510457D01*
X116420889Y-73515791D01*
X116426571Y-73568098D01*
X116429422Y-73580087D01*
X116475043Y-73701782D01*
X116481743Y-73714019D01*
X116559181Y-73817345D01*
X116569055Y-73827219D01*
X116672381Y-73904657D01*
X116684618Y-73911357D01*
X116806313Y-73956978D01*
X116818302Y-73959829D01*
X116870609Y-73965511D01*
X116875943Y-73965800D01*
X117029920Y-73965800D01*
X117042605Y-73961678D01*
X117045600Y-73957557D01*
X117045600Y-73950120D01*
X117345600Y-73950120D01*
X117349722Y-73962805D01*
X117353843Y-73965800D01*
X117515257Y-73965800D01*
X117520591Y-73965511D01*
X117572898Y-73959829D01*
X117584887Y-73956978D01*
X117706582Y-73911357D01*
X117718819Y-73904657D01*
X117822145Y-73827219D01*
X117832019Y-73817345D01*
X117900357Y-73726162D01*
X117950386Y-73690937D01*
X118011564Y-73691845D01*
X118058434Y-73725679D01*
X118122546Y-73810142D01*
X118132008Y-73819604D01*
X118235825Y-73898407D01*
X118247478Y-73904973D01*
X118369029Y-73953097D01*
X118381257Y-73956203D01*
X118457595Y-73965441D01*
X118463549Y-73965800D01*
X118585670Y-73965800D01*
X118598355Y-73961678D01*
X118601350Y-73957557D01*
X118601350Y-73950119D01*
X118901350Y-73950119D01*
X118905472Y-73962804D01*
X118909593Y-73965799D01*
X119039149Y-73965799D01*
X119045107Y-73965440D01*
X119121444Y-73956203D01*
X119133669Y-73953098D01*
X119255222Y-73904973D01*
X119266875Y-73898407D01*
X119370692Y-73819604D01*
X119380154Y-73810142D01*
X119450369Y-73717639D01*
X119500612Y-73682720D01*
X119561784Y-73684002D01*
X119608081Y-73717639D01*
X119678296Y-73810142D01*
X119687758Y-73819604D01*
X119791575Y-73898407D01*
X119803228Y-73904973D01*
X119924779Y-73953097D01*
X119937007Y-73956203D01*
X120013345Y-73965441D01*
X120019299Y-73965800D01*
X120141420Y-73965800D01*
X120154105Y-73961678D01*
X120157100Y-73957557D01*
X120157100Y-73381480D01*
X120152978Y-73368795D01*
X120148857Y-73365800D01*
X119532101Y-73365800D01*
X119532101Y-73363829D01*
X119526350Y-73364281D01*
X119526350Y-73365800D01*
X118917030Y-73365800D01*
X118904345Y-73369922D01*
X118901350Y-73374043D01*
X118901350Y-73950119D01*
X118601350Y-73950119D01*
X118601350Y-73381480D01*
X118597228Y-73368795D01*
X118593107Y-73365800D01*
X118026280Y-73365800D01*
X118013594Y-73369922D01*
X118009912Y-73374990D01*
X117960412Y-73410954D01*
X117929819Y-73415800D01*
X117361280Y-73415800D01*
X117348595Y-73419922D01*
X117345600Y-73424043D01*
X117345600Y-73950120D01*
X117045600Y-73950120D01*
X117045600Y-73431480D01*
X117041478Y-73418795D01*
X117037357Y-73415800D01*
X116436280Y-73415800D01*
X116423595Y-73419922D01*
X116420600Y-73424043D01*
X116420600Y-73510457D01*
X115998600Y-73510457D01*
X115998600Y-73100120D01*
X116420600Y-73100120D01*
X116424722Y-73112805D01*
X116428843Y-73115800D01*
X117029920Y-73115800D01*
X117042605Y-73111678D01*
X117045600Y-73107557D01*
X117045600Y-72581480D01*
X117041478Y-72568795D01*
X117037357Y-72565800D01*
X116875943Y-72565800D01*
X116870609Y-72566089D01*
X116818302Y-72571771D01*
X116806313Y-72574622D01*
X116684618Y-72620243D01*
X116672381Y-72626943D01*
X116569055Y-72704381D01*
X116559181Y-72714255D01*
X116481743Y-72817581D01*
X116475043Y-72829818D01*
X116429422Y-72951513D01*
X116426571Y-72963502D01*
X116420889Y-73015809D01*
X116420600Y-73021143D01*
X116420600Y-73100120D01*
X115998600Y-73100120D01*
X115998600Y-71384281D01*
X116520100Y-71384281D01*
X116520101Y-71847318D01*
X116520710Y-71851161D01*
X116520710Y-71851166D01*
X116526057Y-71884926D01*
X116534954Y-71941104D01*
X116544688Y-71960207D01*
X116589013Y-72047200D01*
X116592550Y-72054142D01*
X116682258Y-72143850D01*
X116689195Y-72147385D01*
X116689197Y-72147386D01*
X116765696Y-72186364D01*
X116795296Y-72201446D01*
X116802990Y-72202665D01*
X116802991Y-72202665D01*
X116885235Y-72215691D01*
X116885237Y-72215691D01*
X116889081Y-72216300D01*
X117195560Y-72216300D01*
X117502118Y-72216299D01*
X117505961Y-72215690D01*
X117505966Y-72215690D01*
X117544001Y-72209666D01*
X117595904Y-72201446D01*
X117692686Y-72152133D01*
X117702003Y-72147386D01*
X117702005Y-72147385D01*
X117708942Y-72143850D01*
X117798650Y-72054142D01*
X117802186Y-72047203D01*
X117802188Y-72047200D01*
X117828605Y-71995354D01*
X117871870Y-71952090D01*
X117916814Y-71941300D01*
X117994138Y-71941300D01*
X118052329Y-71960207D01*
X118088293Y-72009708D01*
X118090412Y-72016230D01*
X118091631Y-72023926D01*
X118095168Y-72030867D01*
X118095168Y-72030868D01*
X118146834Y-72132267D01*
X118152822Y-72144020D01*
X118248130Y-72239328D01*
X118255067Y-72242863D01*
X118255069Y-72242864D01*
X118365445Y-72299103D01*
X118408710Y-72342368D01*
X118419500Y-72387313D01*
X118419500Y-72391239D01*
X118400593Y-72449430D01*
X118356944Y-72483287D01*
X118247478Y-72526627D01*
X118235825Y-72533193D01*
X118132008Y-72611996D01*
X118122546Y-72621458D01*
X118043743Y-72725275D01*
X118033864Y-72742808D01*
X118032731Y-72742170D01*
X117998281Y-72783818D01*
X117939019Y-72799038D01*
X117882129Y-72776518D01*
X117866009Y-72759606D01*
X117832023Y-72714259D01*
X117822145Y-72704381D01*
X117718819Y-72626943D01*
X117706582Y-72620243D01*
X117584887Y-72574622D01*
X117572898Y-72571771D01*
X117520591Y-72566089D01*
X117515257Y-72565800D01*
X117361280Y-72565800D01*
X117348595Y-72569922D01*
X117345600Y-72574043D01*
X117345600Y-73100120D01*
X117349722Y-73112805D01*
X117353843Y-73115800D01*
X117920670Y-73115800D01*
X117933356Y-73111678D01*
X117937038Y-73106610D01*
X117986538Y-73070646D01*
X118017131Y-73065800D01*
X119526349Y-73065800D01*
X119526349Y-73067771D01*
X119532100Y-73067319D01*
X119532100Y-73065800D01*
X120358100Y-73065800D01*
X120416291Y-73084707D01*
X120452255Y-73134207D01*
X120457100Y-73164800D01*
X120457100Y-73950119D01*
X120461222Y-73962804D01*
X120465343Y-73965799D01*
X120594899Y-73965799D01*
X120600857Y-73965440D01*
X120677194Y-73956203D01*
X120689419Y-73953098D01*
X120810972Y-73904973D01*
X120822625Y-73898407D01*
X120926442Y-73819604D01*
X120935904Y-73810142D01*
X121014707Y-73706325D01*
X121021273Y-73694672D01*
X121042748Y-73640431D01*
X121081749Y-73593287D01*
X121141012Y-73578070D01*
X121197901Y-73600594D01*
X121223006Y-73631930D01*
X121254975Y-73694672D01*
X121259800Y-73704142D01*
X121290980Y-73735322D01*
X121318757Y-73789839D01*
X121312440Y-73843211D01*
X121261663Y-73965799D01*
X121258756Y-73972818D01*
X121238118Y-74129580D01*
X121258756Y-74286342D01*
X121261240Y-74292340D01*
X121261241Y-74292342D01*
X121313296Y-74418015D01*
X121318097Y-74479011D01*
X121286127Y-74531180D01*
X121229599Y-74554595D01*
X121221832Y-74554900D01*
X119625001Y-74554900D01*
X119621157Y-74555509D01*
X119621155Y-74555509D01*
X119538911Y-74568535D01*
X119538910Y-74568535D01*
X119531216Y-74569754D01*
X119524276Y-74573290D01*
X119517613Y-74575455D01*
X119487022Y-74580300D01*
X119450081Y-74580300D01*
X119450077Y-74580301D01*
X119418167Y-74580301D01*
X119410760Y-74582707D01*
X119410757Y-74582708D01*
X119395227Y-74587754D01*
X119380125Y-74591380D01*
X119356296Y-74595154D01*
X119334806Y-74606104D01*
X119320456Y-74612049D01*
X119297510Y-74619504D01*
X119277986Y-74633689D01*
X119264756Y-74641796D01*
X119243258Y-74652750D01*
X119220691Y-74675317D01*
X118967416Y-74928591D01*
X118967413Y-74928595D01*
X118946904Y-74949104D01*
X118892387Y-74976881D01*
X118876900Y-74978100D01*
X118727182Y-74978100D01*
X118723599Y-74978628D01*
X118723592Y-74978628D01*
X118665901Y-74987121D01*
X118665899Y-74987122D01*
X118658288Y-74988242D01*
X118651382Y-74991633D01*
X118651381Y-74991633D01*
X118636171Y-74999101D01*
X118553545Y-75039668D01*
X118471107Y-75122250D01*
X118419864Y-75227082D01*
X118418755Y-75234684D01*
X118418754Y-75234687D01*
X118411640Y-75283452D01*
X118409900Y-75295382D01*
X118409900Y-75661818D01*
X118410428Y-75665401D01*
X118410428Y-75665408D01*
X118418835Y-75722513D01*
X118420042Y-75730712D01*
X118471468Y-75835455D01*
X118477259Y-75841236D01*
X118485662Y-75849624D01*
X118554050Y-75917893D01*
X118658882Y-75969136D01*
X118666484Y-75970245D01*
X118666487Y-75970246D01*
X118723637Y-75978583D01*
X118723639Y-75978583D01*
X118727182Y-75979100D01*
X119818618Y-75979100D01*
X119822201Y-75978572D01*
X119822208Y-75978572D01*
X119879899Y-75970079D01*
X119879901Y-75970078D01*
X119887512Y-75968958D01*
X119992255Y-75917532D01*
X120074693Y-75834950D01*
X120125936Y-75730118D01*
X120133137Y-75680757D01*
X120160246Y-75625905D01*
X120160820Y-75625604D01*
X120146690Y-75611474D01*
X120135900Y-75566529D01*
X120135900Y-75454900D01*
X120154807Y-75396709D01*
X120204307Y-75360745D01*
X120234900Y-75355900D01*
X120257291Y-75355900D01*
X120315482Y-75374807D01*
X120351446Y-75424307D01*
X120351446Y-75485493D01*
X120349420Y-75491728D01*
X120345881Y-75498674D01*
X120343719Y-75512326D01*
X120332681Y-75582016D01*
X120305251Y-75635852D01*
X120318754Y-75649029D01*
X120330100Y-75695048D01*
X120330100Y-76115288D01*
X120330709Y-76119132D01*
X120330709Y-76119134D01*
X120342296Y-76192293D01*
X120332724Y-76252725D01*
X120289460Y-76295990D01*
X120244515Y-76306780D01*
X120037754Y-76306780D01*
X120029125Y-76306403D01*
X119990413Y-76303016D01*
X119982046Y-76305258D01*
X119952871Y-76313076D01*
X119944436Y-76314946D01*
X119914703Y-76320188D01*
X119914701Y-76320189D01*
X119906175Y-76321692D01*
X119898676Y-76326022D01*
X119893191Y-76328018D01*
X119887904Y-76330484D01*
X119879536Y-76332726D01*
X119850164Y-76353293D01*
X119847709Y-76355012D01*
X119840428Y-76359651D01*
X119806765Y-76379086D01*
X119801198Y-76385721D01*
X119781789Y-76408851D01*
X119775955Y-76415219D01*
X119342070Y-76849104D01*
X119287553Y-76876881D01*
X119272066Y-76878100D01*
X118727182Y-76878100D01*
X118723599Y-76878628D01*
X118723592Y-76878628D01*
X118665901Y-76887121D01*
X118665899Y-76887122D01*
X118658288Y-76888242D01*
X118651382Y-76891633D01*
X118651381Y-76891633D01*
X118643680Y-76895414D01*
X118553545Y-76939668D01*
X118471107Y-77022250D01*
X118419864Y-77127082D01*
X118418755Y-77134684D01*
X118418754Y-77134687D01*
X118410417Y-77191837D01*
X118409900Y-77195382D01*
X118409900Y-77561818D01*
X118410428Y-77565401D01*
X118410428Y-77565408D01*
X118418823Y-77622434D01*
X118420042Y-77630712D01*
X118423433Y-77637618D01*
X118423433Y-77637619D01*
X118431782Y-77654624D01*
X118471468Y-77735455D01*
X118477259Y-77741236D01*
X118480639Y-77744610D01*
X118554050Y-77817893D01*
X118658882Y-77869136D01*
X118666484Y-77870245D01*
X118666487Y-77870246D01*
X118723637Y-77878583D01*
X118723639Y-77878583D01*
X118727182Y-77879100D01*
X118848537Y-77879100D01*
X118906728Y-77898007D01*
X118944163Y-77952474D01*
X118944433Y-77953481D01*
X118952463Y-77983445D01*
X118953696Y-77988048D01*
X118955566Y-77996484D01*
X118959987Y-78021557D01*
X118962312Y-78034745D01*
X118966642Y-78042244D01*
X118968638Y-78047729D01*
X118971104Y-78053016D01*
X118973346Y-78061384D01*
X118990510Y-78085896D01*
X118995632Y-78093211D01*
X119000271Y-78100492D01*
X119019706Y-78134155D01*
X119040284Y-78151422D01*
X119049471Y-78159131D01*
X119055839Y-78164965D01*
X119091171Y-78200297D01*
X119118948Y-78254814D01*
X119109377Y-78315246D01*
X119066112Y-78358511D01*
X119021168Y-78369301D01*
X118907682Y-78369301D01*
X118903839Y-78369910D01*
X118903834Y-78369910D01*
X118866983Y-78375747D01*
X118813896Y-78384154D01*
X118764886Y-78409126D01*
X118707797Y-78438214D01*
X118707795Y-78438215D01*
X118700858Y-78441750D01*
X118611150Y-78531458D01*
X118609794Y-78530102D01*
X118568448Y-78560149D01*
X118507263Y-78560155D01*
X118477579Y-78544539D01*
X118417990Y-78498815D01*
X118412841Y-78494864D01*
X118266762Y-78434356D01*
X118110000Y-78413718D01*
X117953238Y-78434356D01*
X117807159Y-78494864D01*
X117681718Y-78591118D01*
X117585464Y-78716559D01*
X117524956Y-78862638D01*
X117504318Y-79019400D01*
X117524956Y-79176162D01*
X117585464Y-79322241D01*
X117681718Y-79447682D01*
X117807159Y-79543936D01*
X117953238Y-79604444D01*
X118110000Y-79625082D01*
X118266762Y-79604444D01*
X118412841Y-79543936D01*
X118455771Y-79510995D01*
X118513444Y-79490572D01*
X118572110Y-79507949D01*
X118604244Y-79544591D01*
X118607610Y-79551197D01*
X118607614Y-79551203D01*
X118611150Y-79558142D01*
X118700858Y-79647850D01*
X118707795Y-79651385D01*
X118707797Y-79651386D01*
X118788176Y-79692341D01*
X118813896Y-79705446D01*
X118821590Y-79706665D01*
X118821591Y-79706665D01*
X118903835Y-79719691D01*
X118903837Y-79719691D01*
X118907681Y-79720300D01*
X119139170Y-79720300D01*
X119370718Y-79720299D01*
X119374561Y-79719690D01*
X119374566Y-79719690D01*
X119411417Y-79713853D01*
X119464504Y-79705446D01*
X119539990Y-79666984D01*
X119570603Y-79651386D01*
X119570605Y-79651385D01*
X119577542Y-79647850D01*
X119667250Y-79558142D01*
X119671358Y-79550081D01*
X119721310Y-79452044D01*
X119721310Y-79452043D01*
X119724846Y-79445104D01*
X119729085Y-79418344D01*
X119739091Y-79355165D01*
X119739091Y-79355163D01*
X119739700Y-79351319D01*
X119739699Y-78738282D01*
X119735444Y-78711410D01*
X119726065Y-78652193D01*
X119724846Y-78644496D01*
X119721309Y-78637555D01*
X119720937Y-78636409D01*
X119720939Y-78575224D01*
X119756905Y-78525725D01*
X119815093Y-78506820D01*
X120113307Y-78506820D01*
X120171498Y-78525727D01*
X120207462Y-78575227D01*
X120207462Y-78636411D01*
X120207090Y-78637557D01*
X120203554Y-78644496D01*
X120188700Y-78738281D01*
X120188701Y-79351318D01*
X120189310Y-79355161D01*
X120189310Y-79355166D01*
X120192724Y-79376719D01*
X120203554Y-79445104D01*
X120207325Y-79452505D01*
X120257043Y-79550081D01*
X120261150Y-79558142D01*
X120350858Y-79647850D01*
X120357795Y-79651385D01*
X120357797Y-79651386D01*
X120438176Y-79692341D01*
X120463896Y-79705446D01*
X120471590Y-79706665D01*
X120471591Y-79706665D01*
X120553835Y-79719691D01*
X120553837Y-79719691D01*
X120557681Y-79720300D01*
X120789170Y-79720300D01*
X121020718Y-79720299D01*
X121024561Y-79719690D01*
X121024566Y-79719690D01*
X121061417Y-79713853D01*
X121114504Y-79705446D01*
X121189990Y-79666984D01*
X121220603Y-79651386D01*
X121220605Y-79651385D01*
X121227542Y-79647850D01*
X121317250Y-79558142D01*
X121321358Y-79550081D01*
X121371310Y-79452044D01*
X121371310Y-79452043D01*
X121374846Y-79445104D01*
X121379085Y-79418344D01*
X121389091Y-79355165D01*
X121389091Y-79355163D01*
X121389700Y-79351319D01*
X121389699Y-78738282D01*
X121374846Y-78644496D01*
X121337464Y-78571130D01*
X121320786Y-78538397D01*
X121320785Y-78538395D01*
X121317250Y-78531458D01*
X121227542Y-78441750D01*
X121220604Y-78438215D01*
X121220600Y-78438212D01*
X121143354Y-78398853D01*
X121100090Y-78355589D01*
X121089300Y-78310644D01*
X121089300Y-78255799D01*
X121108207Y-78197608D01*
X121157707Y-78161644D01*
X121188300Y-78156799D01*
X121293399Y-78156799D01*
X121299357Y-78156440D01*
X121375694Y-78147203D01*
X121387919Y-78144098D01*
X121509472Y-78095973D01*
X121521125Y-78089407D01*
X121624942Y-78010604D01*
X121634404Y-78001142D01*
X121701444Y-77912821D01*
X121751686Y-77877902D01*
X121812858Y-77879184D01*
X121859156Y-77912821D01*
X121926196Y-78001142D01*
X121935658Y-78010604D01*
X122039475Y-78089407D01*
X122051128Y-78095973D01*
X122172679Y-78144097D01*
X122184907Y-78147203D01*
X122261245Y-78156441D01*
X122267199Y-78156800D01*
X122389320Y-78156800D01*
X122402005Y-78152678D01*
X122405000Y-78148557D01*
X122405000Y-77572480D01*
X122400878Y-77559795D01*
X122396757Y-77556800D01*
X120954600Y-77556800D01*
X120896409Y-77537893D01*
X120860445Y-77488393D01*
X120855600Y-77457800D01*
X120855600Y-77355800D01*
X120874507Y-77297609D01*
X120924007Y-77261645D01*
X120954600Y-77256800D01*
X122606000Y-77256800D01*
X122664191Y-77275707D01*
X122700155Y-77325207D01*
X122705000Y-77355800D01*
X122705000Y-78141119D01*
X122709122Y-78153804D01*
X122713243Y-78156799D01*
X122842799Y-78156799D01*
X122848757Y-78156440D01*
X122925094Y-78147203D01*
X122937319Y-78144098D01*
X123058872Y-78095973D01*
X123070525Y-78089407D01*
X123174342Y-78010604D01*
X123183804Y-78001142D01*
X123262607Y-77897325D01*
X123269174Y-77885670D01*
X123287871Y-77838445D01*
X123326871Y-77791300D01*
X123386134Y-77776083D01*
X123443023Y-77798606D01*
X123468128Y-77829942D01*
X123497812Y-77888200D01*
X123497813Y-77888201D01*
X123501350Y-77895142D01*
X123591058Y-77984850D01*
X123597995Y-77988385D01*
X123597997Y-77988386D01*
X123688982Y-78034745D01*
X123704096Y-78042446D01*
X123711790Y-78043665D01*
X123711791Y-78043665D01*
X123794035Y-78056691D01*
X123794037Y-78056691D01*
X123797881Y-78057300D01*
X124104360Y-78057300D01*
X124410918Y-78057299D01*
X124414761Y-78056690D01*
X124414766Y-78056690D01*
X124451617Y-78050853D01*
X124504704Y-78042446D01*
X124570512Y-78008915D01*
X124610803Y-77988386D01*
X124610805Y-77988385D01*
X124617742Y-77984850D01*
X124707450Y-77895142D01*
X124710988Y-77888200D01*
X124726377Y-77857996D01*
X124769641Y-77814731D01*
X124830073Y-77805159D01*
X124884590Y-77832936D01*
X124906635Y-77866496D01*
X124914227Y-77885672D01*
X124920793Y-77897325D01*
X124999596Y-78001142D01*
X125009058Y-78010604D01*
X125112875Y-78089407D01*
X125124528Y-78095973D01*
X125246079Y-78144097D01*
X125258307Y-78147203D01*
X125334645Y-78156441D01*
X125340599Y-78156800D01*
X125462720Y-78156800D01*
X125475405Y-78152678D01*
X125478400Y-78148557D01*
X125478400Y-78141119D01*
X125778400Y-78141119D01*
X125782522Y-78153804D01*
X125786643Y-78156799D01*
X125916199Y-78156799D01*
X125922157Y-78156440D01*
X125998494Y-78147203D01*
X126010719Y-78144098D01*
X126132272Y-78095973D01*
X126143925Y-78089407D01*
X126247742Y-78010604D01*
X126257204Y-78001142D01*
X126290909Y-77956738D01*
X126341152Y-77921819D01*
X126402324Y-77923101D01*
X126449398Y-77957776D01*
X126497008Y-78022235D01*
X126507365Y-78032592D01*
X126604301Y-78104191D01*
X126617234Y-78111038D01*
X126732231Y-78151422D01*
X126743934Y-78153990D01*
X126767118Y-78156182D01*
X126771754Y-78156400D01*
X127170020Y-78156400D01*
X127182705Y-78152278D01*
X127185700Y-78148157D01*
X127185700Y-78140719D01*
X127485700Y-78140719D01*
X127489822Y-78153404D01*
X127493943Y-78156399D01*
X127899643Y-78156399D01*
X127904286Y-78156180D01*
X127927469Y-78153989D01*
X127939165Y-78151424D01*
X128054166Y-78111038D01*
X128067099Y-78104191D01*
X128164035Y-78032592D01*
X128174392Y-78022235D01*
X128245991Y-77925299D01*
X128252838Y-77912366D01*
X128293222Y-77797369D01*
X128295790Y-77785666D01*
X128297982Y-77762482D01*
X128298200Y-77757846D01*
X128298200Y-77722080D01*
X128294078Y-77709395D01*
X128289957Y-77706400D01*
X127501380Y-77706400D01*
X127488695Y-77710522D01*
X127485700Y-77714643D01*
X127485700Y-78140719D01*
X127185700Y-78140719D01*
X127185700Y-77722080D01*
X127181578Y-77709395D01*
X127177457Y-77706400D01*
X126432200Y-77706400D01*
X126374009Y-77687493D01*
X126338045Y-77637993D01*
X126333200Y-77607400D01*
X126333200Y-77572480D01*
X126328252Y-77557251D01*
X126325406Y-77556800D01*
X125794080Y-77556800D01*
X125781395Y-77560922D01*
X125778400Y-77565043D01*
X125778400Y-78141119D01*
X125478400Y-78141119D01*
X125478400Y-77355800D01*
X125497307Y-77297609D01*
X125546807Y-77261645D01*
X125577400Y-77256800D01*
X126344400Y-77256800D01*
X126402591Y-77275707D01*
X126438555Y-77325207D01*
X126443400Y-77355800D01*
X126443400Y-77390720D01*
X126448348Y-77405949D01*
X126451194Y-77406400D01*
X128282519Y-77406400D01*
X128295204Y-77402278D01*
X128298199Y-77398157D01*
X128298199Y-77354957D01*
X128297980Y-77350314D01*
X128295789Y-77327131D01*
X128293224Y-77315435D01*
X128252838Y-77200434D01*
X128245991Y-77187501D01*
X128174392Y-77090565D01*
X128158806Y-77074979D01*
X128160963Y-77072822D01*
X128133131Y-77033895D01*
X128133596Y-76972711D01*
X128138572Y-76960543D01*
X128168679Y-76898950D01*
X128188736Y-76857918D01*
X128189845Y-76850316D01*
X128189846Y-76850313D01*
X128198183Y-76793163D01*
X128198183Y-76793161D01*
X128198700Y-76789618D01*
X128198700Y-76423182D01*
X128197079Y-76412167D01*
X128189679Y-76361901D01*
X128189678Y-76361899D01*
X128188558Y-76354288D01*
X128179015Y-76334850D01*
X128137132Y-76249545D01*
X128140155Y-76248061D01*
X128126224Y-76204123D01*
X128145544Y-76146068D01*
X128195299Y-76110457D01*
X128256483Y-76110892D01*
X128295225Y-76134824D01*
X128731790Y-76571390D01*
X128737613Y-76577744D01*
X128762593Y-76607514D01*
X128770090Y-76611843D01*
X128770092Y-76611844D01*
X128796254Y-76626948D01*
X128803532Y-76631584D01*
X128835364Y-76653873D01*
X128843730Y-76656115D01*
X128849021Y-76658582D01*
X128854498Y-76660575D01*
X128862003Y-76664908D01*
X128891086Y-76670036D01*
X128900279Y-76671657D01*
X128908705Y-76673525D01*
X128946241Y-76683583D01*
X128984944Y-76680197D01*
X128993573Y-76679820D01*
X130509086Y-76679820D01*
X130567277Y-76698727D01*
X130579090Y-76708816D01*
X130591651Y-76721377D01*
X130597485Y-76727744D01*
X130622465Y-76757514D01*
X130650359Y-76773618D01*
X130656125Y-76776947D01*
X130663409Y-76781588D01*
X130695236Y-76803874D01*
X130703604Y-76806116D01*
X130708891Y-76808582D01*
X130714375Y-76810578D01*
X130721875Y-76814908D01*
X130751532Y-76820137D01*
X130805555Y-76848861D01*
X130832377Y-76903854D01*
X130832624Y-76929527D01*
X130822759Y-77011046D01*
X130822400Y-77016999D01*
X130822400Y-77114120D01*
X130826522Y-77126805D01*
X130830643Y-77129800D01*
X132356719Y-77129800D01*
X132369405Y-77125678D01*
X132377752Y-77114190D01*
X132427252Y-77078227D01*
X132488438Y-77078228D01*
X132527848Y-77102378D01*
X132822647Y-77397177D01*
X132828481Y-77403544D01*
X132853461Y-77433314D01*
X132874534Y-77445480D01*
X132887121Y-77452747D01*
X132894405Y-77457388D01*
X132896860Y-77459107D01*
X132926232Y-77479674D01*
X132934599Y-77481916D01*
X132939880Y-77484379D01*
X132945370Y-77486377D01*
X132952871Y-77490708D01*
X132977024Y-77494967D01*
X132991138Y-77497456D01*
X132999567Y-77499325D01*
X133022756Y-77505538D01*
X133037110Y-77509384D01*
X133075825Y-77505997D01*
X133084454Y-77505620D01*
X135363900Y-77505620D01*
X135422091Y-77524527D01*
X135458055Y-77574027D01*
X135462900Y-77604620D01*
X135462900Y-79117920D01*
X135443993Y-79176111D01*
X135424168Y-79196461D01*
X135385518Y-79226118D01*
X135289264Y-79351559D01*
X135228756Y-79497638D01*
X135208118Y-79654400D01*
X135228756Y-79811162D01*
X135231240Y-79817159D01*
X135239613Y-79837372D01*
X135289264Y-79957241D01*
X135385518Y-80082682D01*
X135510959Y-80178936D01*
X135657038Y-80239444D01*
X135813800Y-80260082D01*
X135970562Y-80239444D01*
X136116641Y-80178936D01*
X136242082Y-80082682D01*
X136338336Y-79957241D01*
X136387987Y-79837372D01*
X136396360Y-79817159D01*
X136398844Y-79811162D01*
X136419482Y-79654400D01*
X136398844Y-79497638D01*
X136338336Y-79351559D01*
X136242082Y-79226118D01*
X136152632Y-79157481D01*
X136117977Y-79107058D01*
X136113900Y-79078940D01*
X136113900Y-78845481D01*
X140015100Y-78845481D01*
X140015101Y-79308518D01*
X140015710Y-79312361D01*
X140015710Y-79312366D01*
X140019323Y-79335180D01*
X140029954Y-79402304D01*
X140050450Y-79442529D01*
X140081809Y-79504074D01*
X140087550Y-79515342D01*
X140177258Y-79605050D01*
X140184195Y-79608585D01*
X140184197Y-79608586D01*
X140268197Y-79651386D01*
X140290296Y-79662646D01*
X140297990Y-79663865D01*
X140297991Y-79663865D01*
X140302406Y-79664564D01*
X140356922Y-79692341D01*
X140384700Y-79746858D01*
X140375129Y-79807290D01*
X140347186Y-79840887D01*
X140287718Y-79886518D01*
X140191464Y-80011959D01*
X140130956Y-80158038D01*
X140110318Y-80314800D01*
X140130956Y-80471562D01*
X140191464Y-80617641D01*
X140287718Y-80743082D01*
X140413159Y-80839336D01*
X140559238Y-80899844D01*
X140617205Y-80907475D01*
X140630053Y-80909167D01*
X140685278Y-80935508D01*
X140714473Y-80989279D01*
X140706487Y-81049941D01*
X140685393Y-81075745D01*
X140687042Y-81077394D01*
X140672181Y-81092255D01*
X140594743Y-81195581D01*
X140588043Y-81207818D01*
X140542422Y-81329513D01*
X140539571Y-81341502D01*
X140533889Y-81393809D01*
X140533600Y-81399143D01*
X140533600Y-81478120D01*
X140537722Y-81490805D01*
X140541843Y-81493800D01*
X141667920Y-81493800D01*
X141680605Y-81489678D01*
X141683600Y-81485557D01*
X141683600Y-81478120D01*
X141983600Y-81478120D01*
X141987722Y-81490805D01*
X141991843Y-81493800D01*
X143117920Y-81493800D01*
X143130605Y-81489678D01*
X143133600Y-81485557D01*
X143133600Y-81399143D01*
X143133311Y-81393809D01*
X143127629Y-81341502D01*
X143124778Y-81329513D01*
X143079157Y-81207818D01*
X143072457Y-81195581D01*
X142995019Y-81092255D01*
X142985145Y-81082381D01*
X142881819Y-81004943D01*
X142869582Y-80998243D01*
X142747887Y-80952622D01*
X142735898Y-80949771D01*
X142683591Y-80944089D01*
X142678257Y-80943800D01*
X141999280Y-80943800D01*
X141986595Y-80947922D01*
X141983600Y-80952043D01*
X141983600Y-81478120D01*
X141683600Y-81478120D01*
X141683600Y-80959480D01*
X141679478Y-80946795D01*
X141675357Y-80943800D01*
X141174345Y-80943800D01*
X141116154Y-80924893D01*
X141080190Y-80875393D01*
X141080190Y-80814207D01*
X141114078Y-80766258D01*
X141139129Y-80747036D01*
X141144282Y-80743082D01*
X141240536Y-80617641D01*
X141301044Y-80471562D01*
X141321682Y-80314800D01*
X141301044Y-80158038D01*
X141240536Y-80011959D01*
X141144282Y-79886518D01*
X141080233Y-79837371D01*
X141045577Y-79786948D01*
X141041500Y-79758830D01*
X141041500Y-79748486D01*
X141060407Y-79690295D01*
X141095555Y-79660276D01*
X141097844Y-79659110D01*
X141130749Y-79642344D01*
X141197003Y-79608586D01*
X141197005Y-79608585D01*
X141203942Y-79605050D01*
X141293650Y-79515342D01*
X141299392Y-79504074D01*
X141325668Y-79452505D01*
X141621000Y-79452505D01*
X141621359Y-79458461D01*
X141630967Y-79537861D01*
X141634071Y-79550081D01*
X141684090Y-79676415D01*
X141690654Y-79688063D01*
X141772564Y-79795976D01*
X141782024Y-79805436D01*
X141889937Y-79887346D01*
X141901585Y-79893910D01*
X142027919Y-79943929D01*
X142040139Y-79947033D01*
X142119539Y-79956641D01*
X142125495Y-79957000D01*
X142455320Y-79957000D01*
X142468005Y-79952878D01*
X142471000Y-79948757D01*
X142471000Y-79941320D01*
X142771000Y-79941320D01*
X142775122Y-79954005D01*
X142779243Y-79957000D01*
X143116505Y-79957000D01*
X143122461Y-79956641D01*
X143201861Y-79947033D01*
X143214081Y-79943929D01*
X143340415Y-79893910D01*
X143352063Y-79887346D01*
X143459976Y-79805436D01*
X143469436Y-79795976D01*
X143551346Y-79688063D01*
X143557910Y-79676415D01*
X143607929Y-79550081D01*
X143611033Y-79537861D01*
X143620641Y-79458461D01*
X143621000Y-79452505D01*
X143621000Y-79335180D01*
X143616878Y-79322495D01*
X143612757Y-79319500D01*
X142786680Y-79319500D01*
X142773995Y-79323622D01*
X142771000Y-79327743D01*
X142771000Y-79941320D01*
X142471000Y-79941320D01*
X142471000Y-79335180D01*
X142466878Y-79322495D01*
X142462757Y-79319500D01*
X141636680Y-79319500D01*
X141623995Y-79323622D01*
X141621000Y-79327743D01*
X141621000Y-79452505D01*
X141325668Y-79452505D01*
X141347710Y-79409244D01*
X141347710Y-79409243D01*
X141351246Y-79402304D01*
X141354479Y-79381896D01*
X141365491Y-79312365D01*
X141365491Y-79312363D01*
X141366100Y-79308519D01*
X141366099Y-79003820D01*
X141621000Y-79003820D01*
X141625122Y-79016505D01*
X141629243Y-79019500D01*
X142455320Y-79019500D01*
X142468005Y-79015378D01*
X142471000Y-79011257D01*
X142471000Y-79003820D01*
X142771000Y-79003820D01*
X142775122Y-79016505D01*
X142779243Y-79019500D01*
X143605320Y-79019500D01*
X143618005Y-79015378D01*
X143621000Y-79011257D01*
X143621000Y-78974262D01*
X144130920Y-78974262D01*
X144134719Y-79019500D01*
X144147334Y-79169726D01*
X144148159Y-79179553D01*
X144149492Y-79184201D01*
X144149492Y-79184202D01*
X144203579Y-79372824D01*
X144204944Y-79377586D01*
X144299112Y-79560818D01*
X144427077Y-79722270D01*
X144430757Y-79725402D01*
X144430759Y-79725404D01*
X144528119Y-79808263D01*
X144583964Y-79855791D01*
X144588187Y-79858151D01*
X144588191Y-79858154D01*
X144660116Y-79898351D01*
X144763798Y-79956297D01*
X144768396Y-79957791D01*
X144955124Y-80018463D01*
X144955126Y-80018464D01*
X144959729Y-80019959D01*
X145164294Y-80044351D01*
X145169116Y-80043980D01*
X145169119Y-80043980D01*
X145246274Y-80038043D01*
X145369700Y-80028546D01*
X145568125Y-79973145D01*
X145572438Y-79970966D01*
X145572444Y-79970964D01*
X145747689Y-79882441D01*
X145747691Y-79882440D01*
X145752010Y-79880258D01*
X145787343Y-79852653D01*
X145910535Y-79756406D01*
X145910539Y-79756402D01*
X145914351Y-79753424D01*
X145918614Y-79748486D01*
X145987756Y-79668383D01*
X146048964Y-79597472D01*
X146053750Y-79589048D01*
X146148334Y-79422550D01*
X146148335Y-79422547D01*
X146150723Y-79418344D01*
X146153751Y-79409244D01*
X146214224Y-79227454D01*
X146214224Y-79227452D01*
X146215751Y-79222863D01*
X146218746Y-79199159D01*
X146241223Y-79021228D01*
X146241571Y-79018474D01*
X146241983Y-78989000D01*
X146241713Y-78986244D01*
X146222352Y-78788780D01*
X146222351Y-78788776D01*
X146221880Y-78783970D01*
X146219358Y-78775615D01*
X146163733Y-78591380D01*
X146162335Y-78586749D01*
X146065618Y-78404849D01*
X145935411Y-78245200D01*
X145914458Y-78227866D01*
X145780402Y-78116965D01*
X145780400Y-78116964D01*
X145776675Y-78113882D01*
X145646260Y-78043367D01*
X145599709Y-78018197D01*
X145599708Y-78018197D01*
X145595455Y-78015897D01*
X145518983Y-77992225D01*
X145403275Y-77956407D01*
X145403271Y-77956406D01*
X145398654Y-77954977D01*
X145393846Y-77954472D01*
X145393843Y-77954471D01*
X145198585Y-77933949D01*
X145198583Y-77933949D01*
X145193769Y-77933443D01*
X145146453Y-77937749D01*
X144993422Y-77951675D01*
X144993417Y-77951676D01*
X144988603Y-77952114D01*
X144790972Y-78010280D01*
X144786688Y-78012519D01*
X144786687Y-78012520D01*
X144753636Y-78029799D01*
X144608402Y-78105726D01*
X144604631Y-78108758D01*
X144451620Y-78231781D01*
X144451617Y-78231783D01*
X144447847Y-78234815D01*
X144444733Y-78238526D01*
X144444732Y-78238527D01*
X144321831Y-78384995D01*
X144315424Y-78392630D01*
X144313089Y-78396878D01*
X144313088Y-78396879D01*
X144306790Y-78408335D01*
X144216176Y-78573162D01*
X144214713Y-78577775D01*
X144214711Y-78577779D01*
X144183049Y-78677591D01*
X144153884Y-78769532D01*
X144153344Y-78774344D01*
X144153344Y-78774345D01*
X144138481Y-78906856D01*
X144130920Y-78974262D01*
X143621000Y-78974262D01*
X143621000Y-78886495D01*
X143620641Y-78880539D01*
X143611033Y-78801139D01*
X143607929Y-78788919D01*
X143557910Y-78662585D01*
X143551346Y-78650937D01*
X143469436Y-78543024D01*
X143459976Y-78533564D01*
X143352063Y-78451654D01*
X143340415Y-78445090D01*
X143214081Y-78395071D01*
X143201861Y-78391967D01*
X143122461Y-78382359D01*
X143116505Y-78382000D01*
X142786680Y-78382000D01*
X142773995Y-78386122D01*
X142771000Y-78390243D01*
X142771000Y-79003820D01*
X142471000Y-79003820D01*
X142471000Y-78397680D01*
X142466878Y-78384995D01*
X142462757Y-78382000D01*
X142125495Y-78382000D01*
X142119539Y-78382359D01*
X142040139Y-78391967D01*
X142027919Y-78395071D01*
X141901585Y-78445090D01*
X141889937Y-78451654D01*
X141782024Y-78533564D01*
X141772564Y-78543024D01*
X141690654Y-78650937D01*
X141684090Y-78662585D01*
X141634071Y-78788919D01*
X141630967Y-78801139D01*
X141621359Y-78880539D01*
X141621000Y-78886495D01*
X141621000Y-79003820D01*
X141366099Y-79003820D01*
X141366099Y-78845482D01*
X141351246Y-78751696D01*
X141322448Y-78695177D01*
X141297186Y-78645597D01*
X141297185Y-78645595D01*
X141293650Y-78638658D01*
X141203942Y-78548950D01*
X141197005Y-78545415D01*
X141197003Y-78545414D01*
X141097844Y-78494890D01*
X141097843Y-78494890D01*
X141090904Y-78491354D01*
X141083210Y-78490135D01*
X141083209Y-78490135D01*
X141000965Y-78477109D01*
X141000963Y-78477109D01*
X140997119Y-78476500D01*
X140690640Y-78476500D01*
X140384082Y-78476501D01*
X140380239Y-78477110D01*
X140380234Y-78477110D01*
X140343383Y-78482947D01*
X140290296Y-78491354D01*
X140233777Y-78520152D01*
X140184197Y-78545414D01*
X140184195Y-78545415D01*
X140177258Y-78548950D01*
X140087550Y-78638658D01*
X140084015Y-78645595D01*
X140084014Y-78645597D01*
X140035052Y-78741691D01*
X140029954Y-78751696D01*
X140028735Y-78759390D01*
X140028735Y-78759391D01*
X140019610Y-78817006D01*
X140015100Y-78845481D01*
X136113900Y-78845481D01*
X136113900Y-77386926D01*
X136114277Y-77378298D01*
X136116908Y-77348220D01*
X136117663Y-77339593D01*
X136115422Y-77331230D01*
X136115422Y-77331227D01*
X136107606Y-77302056D01*
X136105737Y-77293628D01*
X136100492Y-77263885D01*
X136098988Y-77255355D01*
X136094657Y-77247852D01*
X136092658Y-77242361D01*
X136090196Y-77237081D01*
X136087954Y-77228716D01*
X136076168Y-77211885D01*
X136071152Y-77195481D01*
X140015100Y-77195481D01*
X140015101Y-77658518D01*
X140015710Y-77662361D01*
X140015710Y-77662366D01*
X140021547Y-77699217D01*
X140029954Y-77752304D01*
X140039688Y-77771407D01*
X140084013Y-77858400D01*
X140087550Y-77865342D01*
X140177258Y-77955050D01*
X140184195Y-77958585D01*
X140184197Y-77958586D01*
X140283356Y-78009110D01*
X140290296Y-78012646D01*
X140297990Y-78013865D01*
X140297991Y-78013865D01*
X140380235Y-78026891D01*
X140380237Y-78026891D01*
X140384081Y-78027500D01*
X140690560Y-78027500D01*
X140997118Y-78027499D01*
X141000961Y-78026890D01*
X141000966Y-78026890D01*
X141043187Y-78020203D01*
X141090904Y-78012646D01*
X141167489Y-77973624D01*
X141197003Y-77958586D01*
X141197005Y-77958585D01*
X141203942Y-77955050D01*
X141293650Y-77865342D01*
X141297186Y-77858403D01*
X141297188Y-77858400D01*
X141323605Y-77806554D01*
X141366870Y-77763290D01*
X141411814Y-77752500D01*
X141720720Y-77752500D01*
X141778911Y-77771407D01*
X141800353Y-77792682D01*
X141842670Y-77849974D01*
X141842673Y-77849977D01*
X141847070Y-77855930D01*
X141954524Y-77935298D01*
X141961502Y-77937748D01*
X141961503Y-77937749D01*
X142037730Y-77964517D01*
X142080566Y-77979560D01*
X142086574Y-77980128D01*
X142109356Y-77982282D01*
X142109366Y-77982282D01*
X142111667Y-77982500D01*
X142620781Y-77982500D01*
X143130332Y-77982499D01*
X143161434Y-77979560D01*
X143167121Y-77977563D01*
X143167125Y-77977562D01*
X143280497Y-77937749D01*
X143280498Y-77937748D01*
X143287476Y-77935298D01*
X143394930Y-77855930D01*
X143474298Y-77748476D01*
X143476841Y-77741236D01*
X143513096Y-77637993D01*
X143518560Y-77622434D01*
X143521500Y-77591333D01*
X143521499Y-76997668D01*
X143518560Y-76966566D01*
X143516563Y-76960879D01*
X143516562Y-76960875D01*
X143476749Y-76847503D01*
X143476748Y-76847502D01*
X143474298Y-76840524D01*
X143447228Y-76803874D01*
X143399327Y-76739023D01*
X143394930Y-76733070D01*
X143304563Y-76666323D01*
X143293425Y-76658096D01*
X143287476Y-76653702D01*
X143280498Y-76651252D01*
X143280497Y-76651251D01*
X143200865Y-76623287D01*
X143161434Y-76609440D01*
X143155426Y-76608872D01*
X143150487Y-76608405D01*
X144552298Y-76608405D01*
X144553395Y-76625145D01*
X144554808Y-76634064D01*
X144604600Y-76830121D01*
X144607620Y-76838649D01*
X144692304Y-77022341D01*
X144696822Y-77030167D01*
X144813571Y-77195363D01*
X144819435Y-77202229D01*
X144964331Y-77343381D01*
X144971354Y-77349068D01*
X145139538Y-77461446D01*
X145147493Y-77465764D01*
X145333329Y-77545606D01*
X145341940Y-77548404D01*
X145534230Y-77591914D01*
X145541567Y-77589840D01*
X145544187Y-77586514D01*
X145544400Y-77585317D01*
X145544400Y-77573679D01*
X145844400Y-77573679D01*
X145848522Y-77586364D01*
X145849692Y-77587215D01*
X145855672Y-77587725D01*
X145959515Y-77572668D01*
X145968314Y-77570556D01*
X146159850Y-77505538D01*
X146168114Y-77501858D01*
X146344594Y-77403026D01*
X146352052Y-77397900D01*
X146507557Y-77268568D01*
X146513968Y-77262157D01*
X146643300Y-77106652D01*
X146648426Y-77099194D01*
X146747258Y-76922714D01*
X146750938Y-76914450D01*
X146815956Y-76722914D01*
X146818068Y-76714115D01*
X146832509Y-76614518D01*
X146830250Y-76601372D01*
X146829215Y-76600363D01*
X146823368Y-76599000D01*
X145860080Y-76599000D01*
X145847395Y-76603122D01*
X145844400Y-76607243D01*
X145844400Y-77573679D01*
X145544400Y-77573679D01*
X145544400Y-76614680D01*
X145540278Y-76601995D01*
X145536157Y-76599000D01*
X144567362Y-76599000D01*
X144554677Y-76603122D01*
X144552602Y-76605978D01*
X144552298Y-76608405D01*
X143150487Y-76608405D01*
X143132644Y-76606718D01*
X143132634Y-76606718D01*
X143130333Y-76606500D01*
X142621219Y-76606500D01*
X142111668Y-76606501D01*
X142080566Y-76609440D01*
X142074879Y-76611437D01*
X142074875Y-76611438D01*
X141961503Y-76651251D01*
X141961502Y-76651252D01*
X141954524Y-76653702D01*
X141948575Y-76658096D01*
X141937437Y-76666323D01*
X141847070Y-76733070D01*
X141842673Y-76739023D01*
X141794773Y-76803874D01*
X141767702Y-76840524D01*
X141765252Y-76847502D01*
X141765251Y-76847503D01*
X141740643Y-76917578D01*
X141723440Y-76966566D01*
X141722872Y-76972574D01*
X141720719Y-76995352D01*
X141720500Y-76997667D01*
X141720500Y-77002500D01*
X141701593Y-77060691D01*
X141652093Y-77096655D01*
X141621500Y-77101500D01*
X141411814Y-77101500D01*
X141353623Y-77082593D01*
X141323605Y-77047446D01*
X141297188Y-76995600D01*
X141297185Y-76995596D01*
X141293650Y-76988658D01*
X141203942Y-76898950D01*
X141197005Y-76895415D01*
X141197003Y-76895414D01*
X141097844Y-76844890D01*
X141097843Y-76844890D01*
X141090904Y-76841354D01*
X141083210Y-76840135D01*
X141083209Y-76840135D01*
X141000965Y-76827109D01*
X141000963Y-76827109D01*
X140997119Y-76826500D01*
X140690640Y-76826500D01*
X140384082Y-76826501D01*
X140380239Y-76827110D01*
X140380234Y-76827110D01*
X140343383Y-76832947D01*
X140290296Y-76841354D01*
X140244238Y-76864822D01*
X140184197Y-76895414D01*
X140184195Y-76895415D01*
X140177258Y-76898950D01*
X140087550Y-76988658D01*
X140084015Y-76995595D01*
X140084014Y-76995597D01*
X140033490Y-77094756D01*
X140029954Y-77101696D01*
X140028735Y-77109390D01*
X140028735Y-77109391D01*
X140018002Y-77177157D01*
X140015100Y-77195481D01*
X136071152Y-77195481D01*
X136058278Y-77153375D01*
X136078196Y-77095523D01*
X136128315Y-77060427D01*
X136157263Y-77056100D01*
X138410991Y-77056100D01*
X138411596Y-77056102D01*
X138480968Y-77056526D01*
X138480969Y-77056526D01*
X138488024Y-77056569D01*
X138517653Y-77048100D01*
X138530818Y-77045291D01*
X138561318Y-77040923D01*
X138567738Y-77038004D01*
X138567742Y-77038003D01*
X138586019Y-77029693D01*
X138599784Y-77024628D01*
X138625871Y-77017172D01*
X138635581Y-77011046D01*
X138651926Y-77000733D01*
X138663778Y-76994338D01*
X138685408Y-76984504D01*
X138685413Y-76984501D01*
X138691828Y-76981584D01*
X138712378Y-76963877D01*
X138724173Y-76955149D01*
X138741151Y-76944437D01*
X138741155Y-76944433D01*
X138747120Y-76940670D01*
X138767523Y-76917567D01*
X138777092Y-76908115D01*
X138800437Y-76888000D01*
X138815194Y-76865233D01*
X138824059Y-76853552D01*
X138842023Y-76833212D01*
X138855120Y-76805317D01*
X138861655Y-76793553D01*
X138874576Y-76773618D01*
X138878415Y-76767695D01*
X138886189Y-76741701D01*
X138891419Y-76728003D01*
X138902953Y-76703437D01*
X138907693Y-76672996D01*
X138910665Y-76659862D01*
X138917472Y-76637101D01*
X138917473Y-76637093D01*
X138919493Y-76630339D01*
X138919699Y-76596597D01*
X138919740Y-76595619D01*
X138919900Y-76594591D01*
X138919900Y-76564009D01*
X138919902Y-76563404D01*
X138919907Y-76562542D01*
X138920369Y-76486976D01*
X138920004Y-76485700D01*
X138919900Y-76484171D01*
X138919900Y-76283428D01*
X144555887Y-76283428D01*
X144558490Y-76296511D01*
X144560063Y-76297965D01*
X144564778Y-76299000D01*
X145528720Y-76299000D01*
X145541405Y-76294878D01*
X145544400Y-76290757D01*
X145544400Y-76283320D01*
X145844400Y-76283320D01*
X145848522Y-76296005D01*
X145852643Y-76299000D01*
X146819864Y-76299000D01*
X146832549Y-76294878D01*
X146834218Y-76292582D01*
X146834622Y-76288966D01*
X146830403Y-76243048D01*
X146828756Y-76234164D01*
X146773849Y-76039481D01*
X146770608Y-76031037D01*
X146681145Y-75849624D01*
X146676420Y-75841914D01*
X146555394Y-75679840D01*
X146549345Y-75673122D01*
X146400805Y-75535814D01*
X146393640Y-75530315D01*
X146222563Y-75422374D01*
X146214510Y-75418271D01*
X146026629Y-75343314D01*
X146017971Y-75340749D01*
X145859779Y-75309283D01*
X145846532Y-75310851D01*
X145846500Y-75310881D01*
X145844400Y-75318928D01*
X145844400Y-76283320D01*
X145544400Y-76283320D01*
X145544400Y-75323517D01*
X145540278Y-75310832D01*
X145539674Y-75310393D01*
X145532527Y-75309877D01*
X145399959Y-75332657D01*
X145391223Y-75334998D01*
X145201450Y-75405009D01*
X145193287Y-75408902D01*
X145019447Y-75512326D01*
X145012145Y-75517631D01*
X144860057Y-75651010D01*
X144853834Y-75657568D01*
X144728609Y-75816415D01*
X144723684Y-75823998D01*
X144629497Y-76003018D01*
X144626043Y-76011358D01*
X144566058Y-76204538D01*
X144564177Y-76213389D01*
X144555887Y-76283428D01*
X138919900Y-76283428D01*
X138919900Y-76141542D01*
X138938807Y-76083351D01*
X138970526Y-76055165D01*
X138970642Y-76055100D01*
X139076884Y-75995602D01*
X139246518Y-75854518D01*
X139387602Y-75684884D01*
X139432439Y-75604821D01*
X139493192Y-75496340D01*
X139493193Y-75496338D01*
X139495410Y-75492379D01*
X139499105Y-75481494D01*
X139564871Y-75287754D01*
X139564872Y-75287751D01*
X139566331Y-75283452D01*
X139570952Y-75251580D01*
X139597571Y-75067997D01*
X139597571Y-75067991D01*
X139597991Y-75065098D01*
X139598201Y-75057109D01*
X139599567Y-75004914D01*
X139599567Y-75004909D01*
X139599643Y-75002000D01*
X139598908Y-74993993D01*
X139586297Y-74856761D01*
X139579454Y-74782289D01*
X139534760Y-74623814D01*
X139520799Y-74574311D01*
X139520798Y-74574310D01*
X139519565Y-74569936D01*
X139517557Y-74565864D01*
X139517555Y-74565859D01*
X139423988Y-74376125D01*
X139421980Y-74372053D01*
X139289967Y-74195267D01*
X139127949Y-74045499D01*
X139102768Y-74029611D01*
X138966072Y-73943362D01*
X138926948Y-73896320D01*
X138919900Y-73859635D01*
X138919900Y-72760900D01*
X138938807Y-72702709D01*
X138988307Y-72666745D01*
X139018900Y-72661900D01*
X144252691Y-72661900D01*
X144310882Y-72680807D01*
X144340931Y-72721158D01*
X144342250Y-72720460D01*
X144345714Y-72727003D01*
X144348166Y-72733984D01*
X144352561Y-72739935D01*
X144352562Y-72739936D01*
X144423979Y-72836626D01*
X144428650Y-72842950D01*
X144434607Y-72847350D01*
X144504897Y-72899267D01*
X144537616Y-72923434D01*
X144665431Y-72968319D01*
X144671438Y-72968887D01*
X144671439Y-72968887D01*
X144694655Y-72971082D01*
X144694665Y-72971082D01*
X144696966Y-72971300D01*
X146054634Y-72971300D01*
X146056935Y-72971082D01*
X146056945Y-72971082D01*
X146080161Y-72968887D01*
X146080162Y-72968887D01*
X146086169Y-72968319D01*
X146213984Y-72923434D01*
X146246704Y-72899267D01*
X146316993Y-72847350D01*
X146322950Y-72842950D01*
X146327621Y-72836626D01*
X146399038Y-72739936D01*
X146399039Y-72739935D01*
X146403434Y-72733984D01*
X146448319Y-72606169D01*
X146451300Y-72574634D01*
X146451300Y-71766966D01*
X146448319Y-71735431D01*
X146403434Y-71607616D01*
X146322950Y-71498650D01*
X146213984Y-71418166D01*
X146086169Y-71373281D01*
X146080162Y-71372713D01*
X146080161Y-71372713D01*
X146056945Y-71370518D01*
X146056935Y-71370518D01*
X146054634Y-71370300D01*
X144696966Y-71370300D01*
X144694665Y-71370518D01*
X144694655Y-71370518D01*
X144671439Y-71372713D01*
X144671438Y-71372713D01*
X144665431Y-71373281D01*
X144537616Y-71418166D01*
X144428650Y-71498650D01*
X144348166Y-71607616D01*
X144347366Y-71609894D01*
X144305151Y-71650804D01*
X144261596Y-71660900D01*
X138725766Y-71660900D01*
X138713065Y-71659481D01*
X138713063Y-71659503D01*
X138706031Y-71658937D01*
X138699153Y-71657381D01*
X138647993Y-71660555D01*
X138645498Y-71660710D01*
X138639367Y-71660900D01*
X138622660Y-71660900D01*
X138619173Y-71661399D01*
X138619165Y-71661400D01*
X138611479Y-71662501D01*
X138603576Y-71663311D01*
X138563099Y-71665822D01*
X138563096Y-71665823D01*
X138556062Y-71666259D01*
X138549433Y-71668652D01*
X138549429Y-71668653D01*
X138546413Y-71669742D01*
X138526837Y-71674623D01*
X138525645Y-71674794D01*
X138523664Y-71675077D01*
X138523663Y-71675077D01*
X138516682Y-71676077D01*
X138510263Y-71678996D01*
X138510258Y-71678997D01*
X138473343Y-71695781D01*
X138465985Y-71698777D01*
X138421213Y-71714940D01*
X138412928Y-71720992D01*
X138395514Y-71731168D01*
X138386172Y-71735416D01*
X138380828Y-71740021D01*
X138350105Y-71766493D01*
X138343884Y-71771433D01*
X138332264Y-71779922D01*
X138320800Y-71791386D01*
X138315419Y-71796381D01*
X138277563Y-71829000D01*
X138273726Y-71834920D01*
X138272889Y-71836211D01*
X138259818Y-71852368D01*
X138112981Y-71999205D01*
X138103001Y-72007179D01*
X138103016Y-72007196D01*
X138097646Y-72011766D01*
X138091680Y-72015530D01*
X138087012Y-72020815D01*
X138087009Y-72020818D01*
X138056108Y-72055808D01*
X138051908Y-72060278D01*
X138040080Y-72072106D01*
X138033302Y-72081150D01*
X138028296Y-72087299D01*
X137996777Y-72122988D01*
X137992418Y-72132271D01*
X137982027Y-72149566D01*
X137975874Y-72157776D01*
X137973398Y-72164381D01*
X137959165Y-72202346D01*
X137956080Y-72209666D01*
X137938846Y-72246374D01*
X137938845Y-72246378D01*
X137935847Y-72252763D01*
X137934762Y-72259731D01*
X137934761Y-72259735D01*
X137934270Y-72262892D01*
X137929147Y-72282420D01*
X137925548Y-72292020D01*
X137923339Y-72321754D01*
X137922020Y-72339498D01*
X137921113Y-72347393D01*
X137919488Y-72357828D01*
X137919487Y-72357836D01*
X137918900Y-72361609D01*
X137918900Y-72377809D01*
X137918628Y-72385145D01*
X137914924Y-72434992D01*
X137916396Y-72441887D01*
X137916396Y-72441889D01*
X137916719Y-72443401D01*
X137918900Y-72464068D01*
X137918900Y-73831364D01*
X137899993Y-73889555D01*
X137870518Y-73916445D01*
X137685341Y-74026614D01*
X137681926Y-74029609D01*
X137681923Y-74029611D01*
X137575267Y-74123146D01*
X137519457Y-74172090D01*
X137516649Y-74175652D01*
X137424659Y-74292342D01*
X137382863Y-74345360D01*
X137380749Y-74349378D01*
X137285098Y-74531180D01*
X137280131Y-74540620D01*
X137267810Y-74580300D01*
X137225346Y-74717058D01*
X137214703Y-74751333D01*
X137214169Y-74755843D01*
X137214169Y-74755844D01*
X137202225Y-74856761D01*
X137188770Y-74970440D01*
X137193048Y-75035714D01*
X137202196Y-75175282D01*
X137203200Y-75190604D01*
X137204316Y-75194997D01*
X137204316Y-75194999D01*
X137256395Y-75400058D01*
X137257511Y-75404452D01*
X137349883Y-75604821D01*
X137477222Y-75785002D01*
X137534438Y-75840740D01*
X137580063Y-75885186D01*
X137608551Y-75939335D01*
X137599771Y-75999887D01*
X137557077Y-76043714D01*
X137510981Y-76055100D01*
X134779202Y-76055100D01*
X134721011Y-76036193D01*
X134685047Y-75986693D01*
X134685047Y-75925507D01*
X134715897Y-75879985D01*
X134746518Y-75854518D01*
X134887602Y-75684884D01*
X134932439Y-75604821D01*
X134993192Y-75496340D01*
X134993193Y-75496338D01*
X134995410Y-75492379D01*
X134999105Y-75481494D01*
X135064871Y-75287754D01*
X135064872Y-75287751D01*
X135066331Y-75283452D01*
X135070952Y-75251580D01*
X135097571Y-75067997D01*
X135097571Y-75067991D01*
X135097991Y-75065098D01*
X135098201Y-75057109D01*
X135099567Y-75004914D01*
X135099567Y-75004909D01*
X135099643Y-75002000D01*
X135098908Y-74993993D01*
X135086297Y-74856761D01*
X135079454Y-74782289D01*
X135034760Y-74623814D01*
X135020799Y-74574311D01*
X135020798Y-74574310D01*
X135019565Y-74569936D01*
X135017557Y-74565864D01*
X135017555Y-74565859D01*
X134923988Y-74376125D01*
X134921980Y-74372053D01*
X134789967Y-74195267D01*
X134627949Y-74045499D01*
X134512757Y-73972818D01*
X134445187Y-73930185D01*
X134441350Y-73927764D01*
X134236421Y-73846006D01*
X134020024Y-73802962D01*
X133911347Y-73801539D01*
X133803946Y-73800133D01*
X133803941Y-73800133D01*
X133799406Y-73800074D01*
X133794933Y-73800843D01*
X133794928Y-73800843D01*
X133586435Y-73836668D01*
X133586429Y-73836670D01*
X133581957Y-73837438D01*
X133478457Y-73875621D01*
X133379220Y-73912231D01*
X133379217Y-73912232D01*
X133374957Y-73913804D01*
X133371054Y-73916126D01*
X133371052Y-73916127D01*
X133313917Y-73950119D01*
X133185341Y-74026614D01*
X133181926Y-74029609D01*
X133181923Y-74029611D01*
X133075267Y-74123146D01*
X133019457Y-74172090D01*
X133016649Y-74175652D01*
X132924659Y-74292342D01*
X132882863Y-74345360D01*
X132880749Y-74349378D01*
X132785098Y-74531180D01*
X132780131Y-74540620D01*
X132767810Y-74580300D01*
X132725346Y-74717058D01*
X132714703Y-74751333D01*
X132714169Y-74755843D01*
X132714169Y-74755844D01*
X132702225Y-74856761D01*
X132688770Y-74970440D01*
X132694782Y-75062173D01*
X132699207Y-75129682D01*
X132684146Y-75188985D01*
X132637104Y-75228109D01*
X132593085Y-75234885D01*
X132569460Y-75233130D01*
X132559898Y-75232419D01*
X132552007Y-75231513D01*
X132541572Y-75229888D01*
X132541564Y-75229887D01*
X132537791Y-75229300D01*
X132521591Y-75229300D01*
X132514255Y-75229028D01*
X132510965Y-75228784D01*
X132464408Y-75225324D01*
X132457513Y-75226796D01*
X132457511Y-75226796D01*
X132455999Y-75227119D01*
X132435332Y-75229300D01*
X132214656Y-75229300D01*
X132156465Y-75210393D01*
X132144652Y-75200304D01*
X132100620Y-75156272D01*
X132093683Y-75152737D01*
X132093681Y-75152736D01*
X131987466Y-75098617D01*
X131987465Y-75098617D01*
X131980526Y-75095081D01*
X131972832Y-75093862D01*
X131972831Y-75093862D01*
X131884734Y-75079909D01*
X131884732Y-75079909D01*
X131880888Y-75079300D01*
X131313912Y-75079300D01*
X131310068Y-75079909D01*
X131310066Y-75079909D01*
X131221969Y-75093862D01*
X131221968Y-75093862D01*
X131214274Y-75095081D01*
X131207335Y-75098617D01*
X131207334Y-75098617D01*
X131101119Y-75152736D01*
X131101117Y-75152737D01*
X131094180Y-75156272D01*
X130998872Y-75251580D01*
X130995337Y-75258517D01*
X130995336Y-75258519D01*
X130986814Y-75275245D01*
X130943549Y-75318510D01*
X130898604Y-75329300D01*
X130482661Y-75329300D01*
X130424470Y-75310393D01*
X130412917Y-75298758D01*
X130412132Y-75299545D01*
X130335340Y-75222887D01*
X130329550Y-75217107D01*
X130224718Y-75165864D01*
X130217116Y-75164755D01*
X130217113Y-75164754D01*
X130159963Y-75156417D01*
X130159961Y-75156417D01*
X130156418Y-75155900D01*
X130092109Y-75155900D01*
X130033918Y-75136993D01*
X129997954Y-75087492D01*
X129997566Y-75086297D01*
X129996346Y-75078596D01*
X129985394Y-75057101D01*
X129979451Y-75042755D01*
X129974404Y-75027220D01*
X129974402Y-75027216D01*
X129971996Y-75019811D01*
X129957813Y-75000290D01*
X129949701Y-74987051D01*
X129942286Y-74972497D01*
X129942284Y-74972495D01*
X129938750Y-74965558D01*
X129916187Y-74942995D01*
X129916184Y-74942991D01*
X129829954Y-74856761D01*
X129813044Y-74829170D01*
X129811226Y-74830096D01*
X129757166Y-74723997D01*
X129757165Y-74723995D01*
X129753630Y-74717058D01*
X129663922Y-74627350D01*
X129656985Y-74623815D01*
X129656983Y-74623814D01*
X129557824Y-74573290D01*
X129557823Y-74573290D01*
X129550884Y-74569754D01*
X129543190Y-74568535D01*
X129543189Y-74568535D01*
X129460945Y-74555509D01*
X129460943Y-74555509D01*
X129457099Y-74554900D01*
X123918100Y-74554900D01*
X123859909Y-74535993D01*
X123823945Y-74486493D01*
X123819100Y-74455900D01*
X123819100Y-73912014D01*
X123838007Y-73853823D01*
X123873154Y-73823805D01*
X123925000Y-73797388D01*
X123925004Y-73797385D01*
X123931942Y-73793850D01*
X124021650Y-73704142D01*
X124026476Y-73694672D01*
X124075710Y-73598044D01*
X124075710Y-73598043D01*
X124079246Y-73591104D01*
X124081311Y-73578070D01*
X124093491Y-73501165D01*
X124093491Y-73501163D01*
X124094100Y-73497319D01*
X124094099Y-73034282D01*
X124091174Y-73015809D01*
X124083652Y-72968319D01*
X124079246Y-72940496D01*
X124034999Y-72853657D01*
X124025186Y-72834397D01*
X124025185Y-72834395D01*
X124021650Y-72827458D01*
X123931942Y-72737750D01*
X123925005Y-72734215D01*
X123925003Y-72734214D01*
X123825844Y-72683690D01*
X123825843Y-72683690D01*
X123818904Y-72680154D01*
X123811210Y-72678935D01*
X123811209Y-72678935D01*
X123728965Y-72665909D01*
X123728963Y-72665909D01*
X123725119Y-72665300D01*
X123418640Y-72665300D01*
X123112082Y-72665301D01*
X123108240Y-72665909D01*
X123108233Y-72665910D01*
X123077170Y-72670830D01*
X123016738Y-72661258D01*
X122973474Y-72617993D01*
X122963903Y-72557561D01*
X122991681Y-72503045D01*
X123059735Y-72434992D01*
X123249431Y-72245296D01*
X123303947Y-72217519D01*
X123319434Y-72216300D01*
X123686379Y-72216299D01*
X123725118Y-72216299D01*
X123728961Y-72215690D01*
X123728966Y-72215690D01*
X123767001Y-72209666D01*
X123818904Y-72201446D01*
X123915686Y-72152133D01*
X123925003Y-72147386D01*
X123925005Y-72147385D01*
X123931942Y-72143850D01*
X124021650Y-72054142D01*
X124025188Y-72047200D01*
X124075710Y-71948044D01*
X124075710Y-71948043D01*
X124079246Y-71941104D01*
X124081910Y-71924288D01*
X124093491Y-71851165D01*
X124093491Y-71851163D01*
X124094100Y-71847319D01*
X124094099Y-71384282D01*
X124079246Y-71290496D01*
X124030343Y-71194519D01*
X124025186Y-71184397D01*
X124025185Y-71184395D01*
X124021650Y-71177458D01*
X123931942Y-71087750D01*
X123925005Y-71084215D01*
X123925003Y-71084214D01*
X123825844Y-71033690D01*
X123825843Y-71033690D01*
X123818904Y-71030154D01*
X123811210Y-71028935D01*
X123811209Y-71028935D01*
X123728965Y-71015909D01*
X123728963Y-71015909D01*
X123725119Y-71015300D01*
X123418640Y-71015300D01*
X123112082Y-71015301D01*
X123108239Y-71015910D01*
X123108234Y-71015910D01*
X123071383Y-71021747D01*
X123018296Y-71030154D01*
X122989858Y-71044644D01*
X122912197Y-71084214D01*
X122912195Y-71084215D01*
X122905258Y-71087750D01*
X122815550Y-71177458D01*
X122812015Y-71184395D01*
X122812014Y-71184397D01*
X122806857Y-71194519D01*
X122757954Y-71290496D01*
X122756735Y-71298190D01*
X122756735Y-71298191D01*
X122753060Y-71321393D01*
X122743100Y-71384281D01*
X122743101Y-71607616D01*
X122743101Y-71789965D01*
X122724194Y-71848156D01*
X122714105Y-71859969D01*
X122707354Y-71866720D01*
X122652837Y-71894497D01*
X122592405Y-71884926D01*
X122549140Y-71841661D01*
X122538350Y-71796716D01*
X122538349Y-71388176D01*
X122538349Y-71384282D01*
X122523496Y-71290496D01*
X122474593Y-71194519D01*
X122469436Y-71184397D01*
X122469435Y-71184395D01*
X122465900Y-71177458D01*
X122376192Y-71087750D01*
X122369255Y-71084215D01*
X122369253Y-71084214D01*
X122270094Y-71033690D01*
X122270093Y-71033690D01*
X122263154Y-71030154D01*
X122255460Y-71028935D01*
X122255459Y-71028935D01*
X122173215Y-71015909D01*
X122173213Y-71015909D01*
X122169369Y-71015300D01*
X121862890Y-71015300D01*
X121556332Y-71015301D01*
X121552489Y-71015910D01*
X121552484Y-71015910D01*
X121515633Y-71021747D01*
X121462546Y-71030154D01*
X121434108Y-71044644D01*
X121356447Y-71084214D01*
X121356445Y-71084215D01*
X121349508Y-71087750D01*
X121259800Y-71177458D01*
X121256265Y-71184395D01*
X121256264Y-71184397D01*
X121204370Y-71286245D01*
X121161105Y-71329510D01*
X121116160Y-71340300D01*
X121044110Y-71340300D01*
X120985919Y-71321393D01*
X120955900Y-71286245D01*
X120954531Y-71283557D01*
X120905628Y-71187580D01*
X120810320Y-71092272D01*
X120803383Y-71088737D01*
X120803381Y-71088736D01*
X120690226Y-71031081D01*
X120691440Y-71028699D01*
X120652041Y-71000071D01*
X120633137Y-70941879D01*
X120633514Y-70933257D01*
X120636363Y-70900693D01*
X120634122Y-70892330D01*
X120634122Y-70892327D01*
X120626306Y-70863156D01*
X120624437Y-70854728D01*
X120623779Y-70850995D01*
X120617688Y-70816455D01*
X120613357Y-70808952D01*
X120611358Y-70803461D01*
X120608896Y-70798181D01*
X120606654Y-70789816D01*
X120584368Y-70757989D01*
X120579729Y-70750707D01*
X120572215Y-70737693D01*
X120559492Y-70677845D01*
X120566486Y-70650305D01*
X120578064Y-70622353D01*
X120580546Y-70616362D01*
X120581394Y-70609926D01*
X120600337Y-70466034D01*
X120601184Y-70459600D01*
X120599220Y-70444678D01*
X120591856Y-70388747D01*
X120580546Y-70302838D01*
X120520038Y-70156759D01*
X120423784Y-70031318D01*
X120298343Y-69935064D01*
X120152264Y-69874556D01*
X119995502Y-69853918D01*
X119838740Y-69874556D01*
X119692661Y-69935064D01*
X119567220Y-70031318D01*
X119470966Y-70156759D01*
X119410458Y-70302838D01*
X119399148Y-70388747D01*
X119391785Y-70444678D01*
X119389820Y-70459600D01*
X119410458Y-70616362D01*
X119470966Y-70762441D01*
X119567220Y-70887882D01*
X119692661Y-70984136D01*
X119698652Y-70986618D01*
X119698658Y-70986621D01*
X119710884Y-70991685D01*
X119757409Y-71031423D01*
X119771691Y-71090918D01*
X119748274Y-71147446D01*
X119743000Y-71153152D01*
X119708572Y-71187580D01*
X119705037Y-71194517D01*
X119705036Y-71194519D01*
X119652213Y-71298190D01*
X119647381Y-71307674D01*
X119646162Y-71315368D01*
X119646162Y-71315369D01*
X119634631Y-71388174D01*
X119631600Y-71407312D01*
X119631600Y-71924288D01*
X119632209Y-71928132D01*
X119632209Y-71928134D01*
X119643644Y-72000333D01*
X119634072Y-72060765D01*
X119590808Y-72104030D01*
X119545863Y-72114820D01*
X119512587Y-72114820D01*
X119454396Y-72095913D01*
X119418432Y-72046413D01*
X119414806Y-72000333D01*
X119426241Y-71928134D01*
X119426241Y-71928132D01*
X119426850Y-71924288D01*
X119426850Y-71407312D01*
X119423819Y-71388174D01*
X119412288Y-71315369D01*
X119412288Y-71315368D01*
X119411069Y-71307674D01*
X119406237Y-71298190D01*
X119353414Y-71194519D01*
X119353413Y-71194517D01*
X119349878Y-71187580D01*
X119254570Y-71092272D01*
X119247633Y-71088737D01*
X119247631Y-71088736D01*
X119141416Y-71034617D01*
X119141415Y-71034617D01*
X119134476Y-71031081D01*
X119126782Y-71029862D01*
X119126781Y-71029862D01*
X119038684Y-71015909D01*
X119038682Y-71015909D01*
X119034838Y-71015300D01*
X118526765Y-71015300D01*
X118468574Y-70996393D01*
X118432610Y-70946893D01*
X118432610Y-70885707D01*
X118448223Y-70856033D01*
X118516087Y-70767590D01*
X118520038Y-70762441D01*
X118580546Y-70616362D01*
X118601184Y-70459600D01*
X118599220Y-70444678D01*
X118591856Y-70388747D01*
X118580546Y-70302838D01*
X118520038Y-70156759D01*
X118423784Y-70031318D01*
X118298343Y-69935064D01*
X118152264Y-69874556D01*
X117995502Y-69853918D01*
X117838740Y-69874556D01*
X117692661Y-69935064D01*
X117567220Y-70031318D01*
X117470966Y-70156759D01*
X117410458Y-70302838D01*
X117399148Y-70388747D01*
X117391785Y-70444678D01*
X117389820Y-70459600D01*
X117410458Y-70616362D01*
X117470966Y-70762441D01*
X117542783Y-70856035D01*
X117563206Y-70913708D01*
X117545829Y-70972374D01*
X117497287Y-71009621D01*
X117464240Y-71015300D01*
X116946228Y-71015301D01*
X116889082Y-71015301D01*
X116885239Y-71015910D01*
X116885234Y-71015910D01*
X116848383Y-71021747D01*
X116795296Y-71030154D01*
X116766858Y-71044644D01*
X116689197Y-71084214D01*
X116689195Y-71084215D01*
X116682258Y-71087750D01*
X116592550Y-71177458D01*
X116589015Y-71184395D01*
X116589014Y-71184397D01*
X116583857Y-71194519D01*
X116534954Y-71290496D01*
X116533735Y-71298190D01*
X116533735Y-71298191D01*
X116530060Y-71321393D01*
X116520100Y-71384281D01*
X115998600Y-71384281D01*
X115998600Y-68193200D01*
X116017507Y-68135009D01*
X116067007Y-68099045D01*
X116097600Y-68094200D01*
X116861400Y-68094200D01*
X116919591Y-68113107D01*
G37*
%TD.AperFunction*%
%TD*%
%TA.AperFunction,Conductor*%
%TO.N,GND*%
G36*
X123139200Y-81991200D02*
G01*
X120954800Y-81991200D01*
X120954800Y-81457800D01*
X123139200Y-81457800D01*
X123139200Y-81991200D01*
G37*
%TD.AperFunction*%
%TD*%
M02*
