%TF.GenerationSoftware,KiCad,Pcbnew,(6.0.0)*%
%TF.CreationDate,2022-03-02T17:10:44+00:00*%
%TF.ProjectId,Window sensor V5,57696e64-6f77-4207-9365-6e736f722056,rev?*%
%TF.SameCoordinates,Original*%
%TF.FileFunction,Legend,Top*%
%TF.FilePolarity,Positive*%
%FSLAX46Y46*%
G04 Gerber Fmt 4.6, Leading zero omitted, Abs format (unit mm)*
G04 Created by KiCad (PCBNEW (6.0.0)) date 2022-03-02 17:10:44*
%MOMM*%
%LPD*%
G01*
G04 APERTURE LIST*
%ADD10C,0.150000*%
%ADD11C,0.120000*%
G04 APERTURE END LIST*
D10*
X135356600Y-73482200D02*
X135763000Y-73482200D01*
X128549400Y-84886800D02*
X128549400Y-83667600D01*
X132207000Y-77698600D02*
X132740400Y-77698600D01*
X134645400Y-84988400D02*
X134645400Y-83540600D01*
X131495800Y-82702400D02*
X131495800Y-78206600D01*
X128600200Y-83667600D02*
X133070600Y-83667600D01*
X140284200Y-72872600D02*
X143357600Y-72872600D01*
X133070600Y-83667600D02*
X133070600Y-84886800D01*
X139319000Y-83540600D02*
X139319000Y-84988400D01*
X130251200Y-73329800D02*
X131038600Y-73228200D01*
X131038600Y-72034400D02*
X131038600Y-73482200D01*
X143357600Y-74295000D02*
X140284200Y-74295000D01*
X132207000Y-78193900D02*
X132207000Y-77698600D01*
X143357600Y-74295000D02*
X143967200Y-75031600D01*
X143357600Y-72872600D02*
X143357600Y-74295000D01*
X131038600Y-73482200D02*
X135356600Y-73482200D01*
X139319000Y-84226400D02*
X140106400Y-84226400D01*
X133578600Y-84277200D02*
X133578600Y-85090000D01*
X139319000Y-84988400D02*
X134645400Y-84988400D01*
X133096000Y-84277200D02*
X133578600Y-84277200D01*
X132715000Y-82702400D02*
X132715000Y-78257400D01*
X133070600Y-84886800D02*
X128549400Y-84886800D01*
X135763000Y-73482200D02*
X135763000Y-72034400D01*
X140284200Y-74295000D02*
X140284200Y-72872600D01*
X131495800Y-78206600D02*
X132715000Y-78206600D01*
X131495800Y-82702400D02*
X132715000Y-82702400D01*
X134645400Y-83540600D02*
X139319000Y-83540600D01*
X135763000Y-72034400D02*
X131038600Y-72034400D01*
X131756200Y-82054504D02*
X131718104Y-82130695D01*
X131718104Y-82244980D01*
X131756200Y-82359266D01*
X131832390Y-82435457D01*
X131908580Y-82473552D01*
X132060961Y-82511647D01*
X132175247Y-82511647D01*
X132327628Y-82473552D01*
X132403819Y-82435457D01*
X132480009Y-82359266D01*
X132518104Y-82244980D01*
X132518104Y-82168790D01*
X132480009Y-82054504D01*
X132441914Y-82016409D01*
X132175247Y-82016409D01*
X132175247Y-82168790D01*
X132518104Y-81673552D02*
X131718104Y-81673552D01*
X131718104Y-81368790D01*
X131756200Y-81292600D01*
X131794295Y-81254504D01*
X131870485Y-81216409D01*
X131984771Y-81216409D01*
X132060961Y-81254504D01*
X132099057Y-81292600D01*
X132137152Y-81368790D01*
X132137152Y-81673552D01*
X132518104Y-80873552D02*
X131718104Y-80873552D01*
X131718104Y-80340219D02*
X131718104Y-80187838D01*
X131756200Y-80111647D01*
X131832390Y-80035457D01*
X131984771Y-79997361D01*
X132251438Y-79997361D01*
X132403819Y-80035457D01*
X132480009Y-80111647D01*
X132518104Y-80187838D01*
X132518104Y-80340219D01*
X132480009Y-80416409D01*
X132403819Y-80492600D01*
X132251438Y-80530695D01*
X131984771Y-80530695D01*
X131832390Y-80492600D01*
X131756200Y-80416409D01*
X131718104Y-80340219D01*
X132518104Y-79235457D02*
X132518104Y-79692600D01*
X132518104Y-79464028D02*
X131718104Y-79464028D01*
X131832390Y-79540219D01*
X131908580Y-79616409D01*
X131946676Y-79692600D01*
X131794295Y-78930695D02*
X131756200Y-78892600D01*
X131718104Y-78816409D01*
X131718104Y-78625933D01*
X131756200Y-78549742D01*
X131794295Y-78511647D01*
X131870485Y-78473552D01*
X131946676Y-78473552D01*
X132060961Y-78511647D01*
X132518104Y-78968790D01*
X132518104Y-78473552D01*
X140857409Y-73563171D02*
X140524076Y-73563171D01*
X140524076Y-74086980D02*
X140524076Y-73086980D01*
X141000266Y-73086980D01*
X141238361Y-73086980D02*
X141809790Y-73086980D01*
X141524076Y-74086980D02*
X141524076Y-73086980D01*
X142143123Y-74086980D02*
X142143123Y-73086980D01*
X142381219Y-73086980D01*
X142524076Y-73134600D01*
X142619314Y-73229838D01*
X142666933Y-73325076D01*
X142714552Y-73515552D01*
X142714552Y-73658409D01*
X142666933Y-73848885D01*
X142619314Y-73944123D01*
X142524076Y-74039361D01*
X142381219Y-74086980D01*
X142143123Y-74086980D01*
X143143123Y-74086980D02*
X143143123Y-73086980D01*
X133033180Y-70478704D02*
X133299847Y-71278704D01*
X133566514Y-70478704D01*
X134137942Y-71240609D02*
X134061752Y-71278704D01*
X133909371Y-71278704D01*
X133833180Y-71240609D01*
X133795085Y-71164419D01*
X133795085Y-70859657D01*
X133833180Y-70783466D01*
X133909371Y-70745371D01*
X134061752Y-70745371D01*
X134137942Y-70783466D01*
X134176038Y-70859657D01*
X134176038Y-70935847D01*
X133795085Y-71012038D01*
X134518895Y-71278704D02*
X134518895Y-70745371D01*
X134518895Y-70897752D02*
X134556990Y-70821561D01*
X134595085Y-70783466D01*
X134671276Y-70745371D01*
X134747466Y-70745371D01*
X136004609Y-70478704D02*
X135623657Y-70478704D01*
X135585561Y-70859657D01*
X135623657Y-70821561D01*
X135699847Y-70783466D01*
X135890323Y-70783466D01*
X135966514Y-70821561D01*
X136004609Y-70859657D01*
X136042704Y-70935847D01*
X136042704Y-71126323D01*
X136004609Y-71202514D01*
X135966514Y-71240609D01*
X135890323Y-71278704D01*
X135699847Y-71278704D01*
X135623657Y-71240609D01*
X135585561Y-71202514D01*
X136385561Y-71202514D02*
X136423657Y-71240609D01*
X136385561Y-71278704D01*
X136347466Y-71240609D01*
X136385561Y-71202514D01*
X136385561Y-71278704D01*
X136918895Y-70478704D02*
X136995085Y-70478704D01*
X137071276Y-70516800D01*
X137109371Y-70554895D01*
X137147466Y-70631085D01*
X137185561Y-70783466D01*
X137185561Y-70973942D01*
X137147466Y-71126323D01*
X137109371Y-71202514D01*
X137071276Y-71240609D01*
X136995085Y-71278704D01*
X136918895Y-71278704D01*
X136842704Y-71240609D01*
X136804609Y-71202514D01*
X136766514Y-71126323D01*
X136728419Y-70973942D01*
X136728419Y-70783466D01*
X136766514Y-70631085D01*
X136804609Y-70554895D01*
X136842704Y-70516800D01*
X136918895Y-70478704D01*
X138252228Y-71278704D02*
X138176038Y-71240609D01*
X138137942Y-71164419D01*
X138137942Y-70478704D01*
X138671276Y-71278704D02*
X138595085Y-71240609D01*
X138556990Y-71202514D01*
X138518895Y-71126323D01*
X138518895Y-70897752D01*
X138556990Y-70821561D01*
X138595085Y-70783466D01*
X138671276Y-70745371D01*
X138785561Y-70745371D01*
X138861752Y-70783466D01*
X138899847Y-70821561D01*
X138937942Y-70897752D01*
X138937942Y-71126323D01*
X138899847Y-71202514D01*
X138861752Y-71240609D01*
X138785561Y-71278704D01*
X138671276Y-71278704D01*
X139204609Y-70745371D02*
X139356990Y-71278704D01*
X139509371Y-70897752D01*
X139661752Y-71278704D01*
X139814133Y-70745371D01*
X140728419Y-70745371D02*
X140728419Y-71545371D01*
X140728419Y-70783466D02*
X140804609Y-70745371D01*
X140956990Y-70745371D01*
X141033180Y-70783466D01*
X141071276Y-70821561D01*
X141109371Y-70897752D01*
X141109371Y-71126323D01*
X141071276Y-71202514D01*
X141033180Y-71240609D01*
X140956990Y-71278704D01*
X140804609Y-71278704D01*
X140728419Y-71240609D01*
X141566514Y-71278704D02*
X141490323Y-71240609D01*
X141452228Y-71202514D01*
X141414133Y-71126323D01*
X141414133Y-70897752D01*
X141452228Y-70821561D01*
X141490323Y-70783466D01*
X141566514Y-70745371D01*
X141680800Y-70745371D01*
X141756990Y-70783466D01*
X141795085Y-70821561D01*
X141833180Y-70897752D01*
X141833180Y-71126323D01*
X141795085Y-71202514D01*
X141756990Y-71240609D01*
X141680800Y-71278704D01*
X141566514Y-71278704D01*
X142099847Y-70745371D02*
X142252228Y-71278704D01*
X142404609Y-70897752D01*
X142556990Y-71278704D01*
X142709371Y-70745371D01*
X143318895Y-71240609D02*
X143242704Y-71278704D01*
X143090323Y-71278704D01*
X143014133Y-71240609D01*
X142976038Y-71164419D01*
X142976038Y-70859657D01*
X143014133Y-70783466D01*
X143090323Y-70745371D01*
X143242704Y-70745371D01*
X143318895Y-70783466D01*
X143356990Y-70859657D01*
X143356990Y-70935847D01*
X142976038Y-71012038D01*
X143699847Y-71278704D02*
X143699847Y-70745371D01*
X143699847Y-70897752D02*
X143737942Y-70821561D01*
X143776038Y-70783466D01*
X143852228Y-70745371D01*
X143928419Y-70745371D01*
X144678495Y-73947400D02*
X144583257Y-73899780D01*
X144440400Y-73899780D01*
X144297542Y-73947400D01*
X144202304Y-74042638D01*
X144154685Y-74137876D01*
X144107066Y-74328352D01*
X144107066Y-74471209D01*
X144154685Y-74661685D01*
X144202304Y-74756923D01*
X144297542Y-74852161D01*
X144440400Y-74899780D01*
X144535638Y-74899780D01*
X144678495Y-74852161D01*
X144726114Y-74804542D01*
X144726114Y-74471209D01*
X144535638Y-74471209D01*
X145154685Y-74899780D02*
X145154685Y-73899780D01*
X145726114Y-74899780D01*
X145726114Y-73899780D01*
X146202304Y-74899780D02*
X146202304Y-73899780D01*
X146440400Y-73899780D01*
X146583257Y-73947400D01*
X146678495Y-74042638D01*
X146726114Y-74137876D01*
X146773733Y-74328352D01*
X146773733Y-74471209D01*
X146726114Y-74661685D01*
X146678495Y-74756923D01*
X146583257Y-74852161D01*
X146440400Y-74899780D01*
X146202304Y-74899780D01*
X133858619Y-69119771D02*
X134011000Y-69653104D01*
X134163380Y-69272152D01*
X134315761Y-69653104D01*
X134468142Y-69119771D01*
X134696714Y-69119771D02*
X134849095Y-69653104D01*
X135001476Y-69272152D01*
X135153857Y-69653104D01*
X135306238Y-69119771D01*
X135534809Y-69119771D02*
X135687190Y-69653104D01*
X135839571Y-69272152D01*
X135991952Y-69653104D01*
X136144333Y-69119771D01*
X136449095Y-69576914D02*
X136487190Y-69615009D01*
X136449095Y-69653104D01*
X136411000Y-69615009D01*
X136449095Y-69576914D01*
X136449095Y-69653104D01*
X137172904Y-69119771D02*
X137172904Y-69767390D01*
X137134809Y-69843580D01*
X137096714Y-69881676D01*
X137020523Y-69919771D01*
X136906238Y-69919771D01*
X136830047Y-69881676D01*
X137172904Y-69615009D02*
X137096714Y-69653104D01*
X136944333Y-69653104D01*
X136868142Y-69615009D01*
X136830047Y-69576914D01*
X136791952Y-69500723D01*
X136791952Y-69272152D01*
X136830047Y-69195961D01*
X136868142Y-69157866D01*
X136944333Y-69119771D01*
X137096714Y-69119771D01*
X137172904Y-69157866D01*
X137896714Y-69653104D02*
X137896714Y-69234057D01*
X137858619Y-69157866D01*
X137782428Y-69119771D01*
X137630047Y-69119771D01*
X137553857Y-69157866D01*
X137896714Y-69615009D02*
X137820523Y-69653104D01*
X137630047Y-69653104D01*
X137553857Y-69615009D01*
X137515761Y-69538819D01*
X137515761Y-69462628D01*
X137553857Y-69386438D01*
X137630047Y-69348342D01*
X137820523Y-69348342D01*
X137896714Y-69310247D01*
X138620523Y-69653104D02*
X138620523Y-68853104D01*
X138620523Y-69615009D02*
X138544333Y-69653104D01*
X138391952Y-69653104D01*
X138315761Y-69615009D01*
X138277666Y-69576914D01*
X138239571Y-69500723D01*
X138239571Y-69272152D01*
X138277666Y-69195961D01*
X138315761Y-69157866D01*
X138391952Y-69119771D01*
X138544333Y-69119771D01*
X138620523Y-69157866D01*
X139001476Y-69119771D02*
X139001476Y-69805485D01*
X138963380Y-69881676D01*
X138887190Y-69919771D01*
X138849095Y-69919771D01*
X139001476Y-68853104D02*
X138963380Y-68891200D01*
X139001476Y-68929295D01*
X139039571Y-68891200D01*
X139001476Y-68853104D01*
X139001476Y-68929295D01*
X139687190Y-69615009D02*
X139611000Y-69653104D01*
X139458619Y-69653104D01*
X139382428Y-69615009D01*
X139344333Y-69538819D01*
X139344333Y-69234057D01*
X139382428Y-69157866D01*
X139458619Y-69119771D01*
X139611000Y-69119771D01*
X139687190Y-69157866D01*
X139725285Y-69234057D01*
X139725285Y-69310247D01*
X139344333Y-69386438D01*
X139953857Y-69119771D02*
X140258619Y-69119771D01*
X140068142Y-68853104D02*
X140068142Y-69538819D01*
X140106238Y-69615009D01*
X140182428Y-69653104D01*
X140258619Y-69653104D01*
X140525285Y-69576914D02*
X140563380Y-69615009D01*
X140525285Y-69653104D01*
X140487190Y-69615009D01*
X140525285Y-69576914D01*
X140525285Y-69653104D01*
X141249095Y-69615009D02*
X141172904Y-69653104D01*
X141020523Y-69653104D01*
X140944333Y-69615009D01*
X140906238Y-69576914D01*
X140868142Y-69500723D01*
X140868142Y-69272152D01*
X140906238Y-69195961D01*
X140944333Y-69157866D01*
X141020523Y-69119771D01*
X141172904Y-69119771D01*
X141249095Y-69157866D01*
X141706238Y-69653104D02*
X141630047Y-69615009D01*
X141591952Y-69576914D01*
X141553857Y-69500723D01*
X141553857Y-69272152D01*
X141591952Y-69195961D01*
X141630047Y-69157866D01*
X141706238Y-69119771D01*
X141820523Y-69119771D01*
X141896714Y-69157866D01*
X141934809Y-69195961D01*
X141972904Y-69272152D01*
X141972904Y-69500723D01*
X141934809Y-69576914D01*
X141896714Y-69615009D01*
X141820523Y-69653104D01*
X141706238Y-69653104D01*
X142315761Y-69576914D02*
X142353857Y-69615009D01*
X142315761Y-69653104D01*
X142277666Y-69615009D01*
X142315761Y-69576914D01*
X142315761Y-69653104D01*
X143039571Y-69119771D02*
X143039571Y-69653104D01*
X142696714Y-69119771D02*
X142696714Y-69538819D01*
X142734809Y-69615009D01*
X142811000Y-69653104D01*
X142925285Y-69653104D01*
X143001476Y-69615009D01*
X143039571Y-69576914D01*
X143420523Y-69653104D02*
X143420523Y-68853104D01*
X143496714Y-69348342D02*
X143725285Y-69653104D01*
X143725285Y-69119771D02*
X143420523Y-69424533D01*
X129248095Y-83928000D02*
X129171904Y-83889904D01*
X129057619Y-83889904D01*
X128943333Y-83928000D01*
X128867142Y-84004190D01*
X128829047Y-84080380D01*
X128790952Y-84232761D01*
X128790952Y-84347047D01*
X128829047Y-84499428D01*
X128867142Y-84575619D01*
X128943333Y-84651809D01*
X129057619Y-84689904D01*
X129133809Y-84689904D01*
X129248095Y-84651809D01*
X129286190Y-84613714D01*
X129286190Y-84347047D01*
X129133809Y-84347047D01*
X129629047Y-84689904D02*
X129629047Y-83889904D01*
X129933809Y-83889904D01*
X130010000Y-83928000D01*
X130048095Y-83966095D01*
X130086190Y-84042285D01*
X130086190Y-84156571D01*
X130048095Y-84232761D01*
X130010000Y-84270857D01*
X129933809Y-84308952D01*
X129629047Y-84308952D01*
X130429047Y-84689904D02*
X130429047Y-83889904D01*
X130962380Y-83889904D02*
X131114761Y-83889904D01*
X131190952Y-83928000D01*
X131267142Y-84004190D01*
X131305238Y-84156571D01*
X131305238Y-84423238D01*
X131267142Y-84575619D01*
X131190952Y-84651809D01*
X131114761Y-84689904D01*
X130962380Y-84689904D01*
X130886190Y-84651809D01*
X130810000Y-84575619D01*
X130771904Y-84423238D01*
X130771904Y-84156571D01*
X130810000Y-84004190D01*
X130886190Y-83928000D01*
X130962380Y-83889904D01*
X132067142Y-84689904D02*
X131610000Y-84689904D01*
X131838571Y-84689904D02*
X131838571Y-83889904D01*
X131762380Y-84004190D01*
X131686190Y-84080380D01*
X131610000Y-84118476D01*
X132333809Y-83889904D02*
X132829047Y-83889904D01*
X132562380Y-84194666D01*
X132676666Y-84194666D01*
X132752857Y-84232761D01*
X132790952Y-84270857D01*
X132829047Y-84347047D01*
X132829047Y-84537523D01*
X132790952Y-84613714D01*
X132752857Y-84651809D01*
X132676666Y-84689904D01*
X132448095Y-84689904D01*
X132371904Y-84651809D01*
X132333809Y-84613714D01*
%TO.C,R5*%
X117684504Y-70338933D02*
X117303552Y-70605600D01*
X117684504Y-70796076D02*
X116884504Y-70796076D01*
X116884504Y-70491314D01*
X116922600Y-70415123D01*
X116960695Y-70377028D01*
X117036885Y-70338933D01*
X117151171Y-70338933D01*
X117227361Y-70377028D01*
X117265457Y-70415123D01*
X117303552Y-70491314D01*
X117303552Y-70796076D01*
X116884504Y-69615123D02*
X116884504Y-69996076D01*
X117265457Y-70034171D01*
X117227361Y-69996076D01*
X117189266Y-69919885D01*
X117189266Y-69729409D01*
X117227361Y-69653219D01*
X117265457Y-69615123D01*
X117341647Y-69577028D01*
X117532123Y-69577028D01*
X117608314Y-69615123D01*
X117646409Y-69653219D01*
X117684504Y-69729409D01*
X117684504Y-69919885D01*
X117646409Y-69996076D01*
X117608314Y-70034171D01*
%TO.C,R9*%
X130422666Y-79914704D02*
X130156000Y-79533752D01*
X129965523Y-79914704D02*
X129965523Y-79114704D01*
X130270285Y-79114704D01*
X130346476Y-79152800D01*
X130384571Y-79190895D01*
X130422666Y-79267085D01*
X130422666Y-79381371D01*
X130384571Y-79457561D01*
X130346476Y-79495657D01*
X130270285Y-79533752D01*
X129965523Y-79533752D01*
X130803619Y-79914704D02*
X130956000Y-79914704D01*
X131032190Y-79876609D01*
X131070285Y-79838514D01*
X131146476Y-79724228D01*
X131184571Y-79571847D01*
X131184571Y-79267085D01*
X131146476Y-79190895D01*
X131108380Y-79152800D01*
X131032190Y-79114704D01*
X130879809Y-79114704D01*
X130803619Y-79152800D01*
X130765523Y-79190895D01*
X130727428Y-79267085D01*
X130727428Y-79457561D01*
X130765523Y-79533752D01*
X130803619Y-79571847D01*
X130879809Y-79609942D01*
X131032190Y-79609942D01*
X131108380Y-79571847D01*
X131146476Y-79533752D01*
X131184571Y-79457561D01*
%TO.C,R8*%
X125393466Y-79127304D02*
X125126800Y-78746352D01*
X124936323Y-79127304D02*
X124936323Y-78327304D01*
X125241085Y-78327304D01*
X125317276Y-78365400D01*
X125355371Y-78403495D01*
X125393466Y-78479685D01*
X125393466Y-78593971D01*
X125355371Y-78670161D01*
X125317276Y-78708257D01*
X125241085Y-78746352D01*
X124936323Y-78746352D01*
X125850609Y-78670161D02*
X125774419Y-78632066D01*
X125736323Y-78593971D01*
X125698228Y-78517780D01*
X125698228Y-78479685D01*
X125736323Y-78403495D01*
X125774419Y-78365400D01*
X125850609Y-78327304D01*
X126002990Y-78327304D01*
X126079180Y-78365400D01*
X126117276Y-78403495D01*
X126155371Y-78479685D01*
X126155371Y-78517780D01*
X126117276Y-78593971D01*
X126079180Y-78632066D01*
X126002990Y-78670161D01*
X125850609Y-78670161D01*
X125774419Y-78708257D01*
X125736323Y-78746352D01*
X125698228Y-78822542D01*
X125698228Y-78974923D01*
X125736323Y-79051114D01*
X125774419Y-79089209D01*
X125850609Y-79127304D01*
X126002990Y-79127304D01*
X126079180Y-79089209D01*
X126117276Y-79051114D01*
X126155371Y-78974923D01*
X126155371Y-78822542D01*
X126117276Y-78746352D01*
X126079180Y-78708257D01*
X126002990Y-78670161D01*
%TO.C,SW2*%
X135153533Y-83077009D02*
X135267819Y-83115104D01*
X135458295Y-83115104D01*
X135534485Y-83077009D01*
X135572580Y-83038914D01*
X135610676Y-82962723D01*
X135610676Y-82886533D01*
X135572580Y-82810342D01*
X135534485Y-82772247D01*
X135458295Y-82734152D01*
X135305914Y-82696057D01*
X135229723Y-82657961D01*
X135191628Y-82619866D01*
X135153533Y-82543676D01*
X135153533Y-82467485D01*
X135191628Y-82391295D01*
X135229723Y-82353200D01*
X135305914Y-82315104D01*
X135496390Y-82315104D01*
X135610676Y-82353200D01*
X135877342Y-82315104D02*
X136067819Y-83115104D01*
X136220200Y-82543676D01*
X136372580Y-83115104D01*
X136563057Y-82315104D01*
X136829723Y-82391295D02*
X136867819Y-82353200D01*
X136944009Y-82315104D01*
X137134485Y-82315104D01*
X137210676Y-82353200D01*
X137248771Y-82391295D01*
X137286866Y-82467485D01*
X137286866Y-82543676D01*
X137248771Y-82657961D01*
X136791628Y-83115104D01*
X137286866Y-83115104D01*
%TO.C,D1*%
X142055923Y-76460304D02*
X142055923Y-75660304D01*
X142246400Y-75660304D01*
X142360685Y-75698400D01*
X142436876Y-75774590D01*
X142474971Y-75850780D01*
X142513066Y-76003161D01*
X142513066Y-76117447D01*
X142474971Y-76269828D01*
X142436876Y-76346019D01*
X142360685Y-76422209D01*
X142246400Y-76460304D01*
X142055923Y-76460304D01*
X143274971Y-76460304D02*
X142817828Y-76460304D01*
X143046400Y-76460304D02*
X143046400Y-75660304D01*
X142970209Y-75774590D01*
X142894019Y-75850780D01*
X142817828Y-75888876D01*
%TO.C,RESET*%
X131821419Y-73248780D02*
X131488085Y-72772590D01*
X131249990Y-73248780D02*
X131249990Y-72248780D01*
X131630942Y-72248780D01*
X131726180Y-72296400D01*
X131773800Y-72344019D01*
X131821419Y-72439257D01*
X131821419Y-72582114D01*
X131773800Y-72677352D01*
X131726180Y-72724971D01*
X131630942Y-72772590D01*
X131249990Y-72772590D01*
X132249990Y-72724971D02*
X132583323Y-72724971D01*
X132726180Y-73248780D02*
X132249990Y-73248780D01*
X132249990Y-72248780D01*
X132726180Y-72248780D01*
X133107133Y-73201161D02*
X133249990Y-73248780D01*
X133488085Y-73248780D01*
X133583323Y-73201161D01*
X133630942Y-73153542D01*
X133678561Y-73058304D01*
X133678561Y-72963066D01*
X133630942Y-72867828D01*
X133583323Y-72820209D01*
X133488085Y-72772590D01*
X133297609Y-72724971D01*
X133202371Y-72677352D01*
X133154752Y-72629733D01*
X133107133Y-72534495D01*
X133107133Y-72439257D01*
X133154752Y-72344019D01*
X133202371Y-72296400D01*
X133297609Y-72248780D01*
X133535704Y-72248780D01*
X133678561Y-72296400D01*
X134107133Y-72724971D02*
X134440466Y-72724971D01*
X134583323Y-73248780D02*
X134107133Y-73248780D01*
X134107133Y-72248780D01*
X134583323Y-72248780D01*
X134869038Y-72248780D02*
X135440466Y-72248780D01*
X135154752Y-73248780D02*
X135154752Y-72248780D01*
%TO.C,R6*%
X117595666Y-80168704D02*
X117329000Y-79787752D01*
X117138523Y-80168704D02*
X117138523Y-79368704D01*
X117443285Y-79368704D01*
X117519476Y-79406800D01*
X117557571Y-79444895D01*
X117595666Y-79521085D01*
X117595666Y-79635371D01*
X117557571Y-79711561D01*
X117519476Y-79749657D01*
X117443285Y-79787752D01*
X117138523Y-79787752D01*
X118281380Y-79368704D02*
X118129000Y-79368704D01*
X118052809Y-79406800D01*
X118014714Y-79444895D01*
X117938523Y-79559180D01*
X117900428Y-79711561D01*
X117900428Y-80016323D01*
X117938523Y-80092514D01*
X117976619Y-80130609D01*
X118052809Y-80168704D01*
X118205190Y-80168704D01*
X118281380Y-80130609D01*
X118319476Y-80092514D01*
X118357571Y-80016323D01*
X118357571Y-79825847D01*
X118319476Y-79749657D01*
X118281380Y-79711561D01*
X118205190Y-79673466D01*
X118052809Y-79673466D01*
X117976619Y-79711561D01*
X117938523Y-79749657D01*
X117900428Y-79825847D01*
%TO.C,U5*%
X120294476Y-83432704D02*
X120294476Y-84080323D01*
X120332571Y-84156514D01*
X120370666Y-84194609D01*
X120446857Y-84232704D01*
X120599238Y-84232704D01*
X120675428Y-84194609D01*
X120713523Y-84156514D01*
X120751619Y-84080323D01*
X120751619Y-83432704D01*
X121513523Y-83432704D02*
X121132571Y-83432704D01*
X121094476Y-83813657D01*
X121132571Y-83775561D01*
X121208761Y-83737466D01*
X121399238Y-83737466D01*
X121475428Y-83775561D01*
X121513523Y-83813657D01*
X121551619Y-83889847D01*
X121551619Y-84080323D01*
X121513523Y-84156514D01*
X121475428Y-84194609D01*
X121399238Y-84232704D01*
X121208761Y-84232704D01*
X121132571Y-84194609D01*
X121094476Y-84156514D01*
%TO.C,SW1*%
X126491133Y-87242609D02*
X126605419Y-87280704D01*
X126795895Y-87280704D01*
X126872085Y-87242609D01*
X126910180Y-87204514D01*
X126948276Y-87128323D01*
X126948276Y-87052133D01*
X126910180Y-86975942D01*
X126872085Y-86937847D01*
X126795895Y-86899752D01*
X126643514Y-86861657D01*
X126567323Y-86823561D01*
X126529228Y-86785466D01*
X126491133Y-86709276D01*
X126491133Y-86633085D01*
X126529228Y-86556895D01*
X126567323Y-86518800D01*
X126643514Y-86480704D01*
X126833990Y-86480704D01*
X126948276Y-86518800D01*
X127214942Y-86480704D02*
X127405419Y-87280704D01*
X127557800Y-86709276D01*
X127710180Y-87280704D01*
X127900657Y-86480704D01*
X128624466Y-87280704D02*
X128167323Y-87280704D01*
X128395895Y-87280704D02*
X128395895Y-86480704D01*
X128319704Y-86594990D01*
X128243514Y-86671180D01*
X128167323Y-86709276D01*
%TO.C,C3*%
X120796066Y-74910914D02*
X120757971Y-74949009D01*
X120643685Y-74987104D01*
X120567495Y-74987104D01*
X120453209Y-74949009D01*
X120377019Y-74872819D01*
X120338923Y-74796628D01*
X120300828Y-74644247D01*
X120300828Y-74529961D01*
X120338923Y-74377580D01*
X120377019Y-74301390D01*
X120453209Y-74225200D01*
X120567495Y-74187104D01*
X120643685Y-74187104D01*
X120757971Y-74225200D01*
X120796066Y-74263295D01*
X121062733Y-74187104D02*
X121557971Y-74187104D01*
X121291304Y-74491866D01*
X121405590Y-74491866D01*
X121481780Y-74529961D01*
X121519876Y-74568057D01*
X121557971Y-74644247D01*
X121557971Y-74834723D01*
X121519876Y-74910914D01*
X121481780Y-74949009D01*
X121405590Y-74987104D01*
X121177019Y-74987104D01*
X121100828Y-74949009D01*
X121062733Y-74910914D01*
%TO.C,R2*%
X124021866Y-74987104D02*
X123755200Y-74606152D01*
X123564723Y-74987104D02*
X123564723Y-74187104D01*
X123869485Y-74187104D01*
X123945676Y-74225200D01*
X123983771Y-74263295D01*
X124021866Y-74339485D01*
X124021866Y-74453771D01*
X123983771Y-74529961D01*
X123945676Y-74568057D01*
X123869485Y-74606152D01*
X123564723Y-74606152D01*
X124326628Y-74263295D02*
X124364723Y-74225200D01*
X124440914Y-74187104D01*
X124631390Y-74187104D01*
X124707580Y-74225200D01*
X124745676Y-74263295D01*
X124783771Y-74339485D01*
X124783771Y-74415676D01*
X124745676Y-74529961D01*
X124288533Y-74987104D01*
X124783771Y-74987104D01*
%TO.C,R4*%
X123882104Y-70338933D02*
X123501152Y-70605600D01*
X123882104Y-70796076D02*
X123082104Y-70796076D01*
X123082104Y-70491314D01*
X123120200Y-70415123D01*
X123158295Y-70377028D01*
X123234485Y-70338933D01*
X123348771Y-70338933D01*
X123424961Y-70377028D01*
X123463057Y-70415123D01*
X123501152Y-70491314D01*
X123501152Y-70796076D01*
X123348771Y-69653219D02*
X123882104Y-69653219D01*
X123044009Y-69843695D02*
X123615438Y-70034171D01*
X123615438Y-69538933D01*
%TO.C,R7*%
X128670066Y-79914704D02*
X128403400Y-79533752D01*
X128212923Y-79914704D02*
X128212923Y-79114704D01*
X128517685Y-79114704D01*
X128593876Y-79152800D01*
X128631971Y-79190895D01*
X128670066Y-79267085D01*
X128670066Y-79381371D01*
X128631971Y-79457561D01*
X128593876Y-79495657D01*
X128517685Y-79533752D01*
X128212923Y-79533752D01*
X128936733Y-79114704D02*
X129470066Y-79114704D01*
X129127209Y-79914704D01*
%TO.C,U2*%
X127889076Y-73983904D02*
X127889076Y-74631523D01*
X127927171Y-74707714D01*
X127965266Y-74745809D01*
X128041457Y-74783904D01*
X128193838Y-74783904D01*
X128270028Y-74745809D01*
X128308123Y-74707714D01*
X128346219Y-74631523D01*
X128346219Y-73983904D01*
X128689076Y-74060095D02*
X128727171Y-74022000D01*
X128803361Y-73983904D01*
X128993838Y-73983904D01*
X129070028Y-74022000D01*
X129108123Y-74060095D01*
X129146219Y-74136285D01*
X129146219Y-74212476D01*
X129108123Y-74326761D01*
X128650980Y-74783904D01*
X129146219Y-74783904D01*
%TO.C,J2*%
X143141733Y-86683904D02*
X143141733Y-87255333D01*
X143103638Y-87369619D01*
X143027447Y-87445809D01*
X142913161Y-87483904D01*
X142836971Y-87483904D01*
X143484590Y-86760095D02*
X143522685Y-86722000D01*
X143598876Y-86683904D01*
X143789352Y-86683904D01*
X143865542Y-86722000D01*
X143903638Y-86760095D01*
X143941733Y-86836285D01*
X143941733Y-86912476D01*
X143903638Y-87026761D01*
X143446495Y-87483904D01*
X143941733Y-87483904D01*
%TO.C,C1*%
X131514866Y-74860114D02*
X131476771Y-74898209D01*
X131362485Y-74936304D01*
X131286295Y-74936304D01*
X131172009Y-74898209D01*
X131095819Y-74822019D01*
X131057723Y-74745828D01*
X131019628Y-74593447D01*
X131019628Y-74479161D01*
X131057723Y-74326780D01*
X131095819Y-74250590D01*
X131172009Y-74174400D01*
X131286295Y-74136304D01*
X131362485Y-74136304D01*
X131476771Y-74174400D01*
X131514866Y-74212495D01*
X132276771Y-74936304D02*
X131819628Y-74936304D01*
X132048200Y-74936304D02*
X132048200Y-74136304D01*
X131972009Y-74250590D01*
X131895819Y-74326780D01*
X131819628Y-74364876D01*
%TO.C,FLASH*%
X135342523Y-84256571D02*
X135009190Y-84256571D01*
X135009190Y-84780380D02*
X135009190Y-83780380D01*
X135485380Y-83780380D01*
X136342523Y-84780380D02*
X135866333Y-84780380D01*
X135866333Y-83780380D01*
X136628238Y-84494666D02*
X137104428Y-84494666D01*
X136533000Y-84780380D02*
X136866333Y-83780380D01*
X137199666Y-84780380D01*
X137485380Y-84732761D02*
X137628238Y-84780380D01*
X137866333Y-84780380D01*
X137961571Y-84732761D01*
X138009190Y-84685142D01*
X138056809Y-84589904D01*
X138056809Y-84494666D01*
X138009190Y-84399428D01*
X137961571Y-84351809D01*
X137866333Y-84304190D01*
X137675857Y-84256571D01*
X137580619Y-84208952D01*
X137533000Y-84161333D01*
X137485380Y-84066095D01*
X137485380Y-83970857D01*
X137533000Y-83875619D01*
X137580619Y-83828000D01*
X137675857Y-83780380D01*
X137913952Y-83780380D01*
X138056809Y-83828000D01*
X138485380Y-84780380D02*
X138485380Y-83780380D01*
X138485380Y-84256571D02*
X139056809Y-84256571D01*
X139056809Y-84780380D02*
X139056809Y-83780380D01*
%TO.C,U1*%
X116205076Y-78225704D02*
X116205076Y-78873323D01*
X116243171Y-78949514D01*
X116281266Y-78987609D01*
X116357457Y-79025704D01*
X116509838Y-79025704D01*
X116586028Y-78987609D01*
X116624123Y-78949514D01*
X116662219Y-78873323D01*
X116662219Y-78225704D01*
X117462219Y-79025704D02*
X117005076Y-79025704D01*
X117233647Y-79025704D02*
X117233647Y-78225704D01*
X117157457Y-78339990D01*
X117081266Y-78416180D01*
X117005076Y-78454276D01*
%TO.C,R3*%
X122173954Y-70338933D02*
X121793002Y-70605600D01*
X122173954Y-70796076D02*
X121373954Y-70796076D01*
X121373954Y-70491314D01*
X121412050Y-70415123D01*
X121450145Y-70377028D01*
X121526335Y-70338933D01*
X121640621Y-70338933D01*
X121716811Y-70377028D01*
X121754907Y-70415123D01*
X121793002Y-70491314D01*
X121793002Y-70796076D01*
X121373954Y-70072266D02*
X121373954Y-69577028D01*
X121678716Y-69843695D01*
X121678716Y-69729409D01*
X121716811Y-69653219D01*
X121754907Y-69615123D01*
X121831097Y-69577028D01*
X122021573Y-69577028D01*
X122097764Y-69615123D01*
X122135859Y-69653219D01*
X122173954Y-69729409D01*
X122173954Y-69957980D01*
X122135859Y-70034171D01*
X122097764Y-70072266D01*
%TO.C,C2*%
X125469666Y-74910914D02*
X125431571Y-74949009D01*
X125317285Y-74987104D01*
X125241095Y-74987104D01*
X125126809Y-74949009D01*
X125050619Y-74872819D01*
X125012523Y-74796628D01*
X124974428Y-74644247D01*
X124974428Y-74529961D01*
X125012523Y-74377580D01*
X125050619Y-74301390D01*
X125126809Y-74225200D01*
X125241095Y-74187104D01*
X125317285Y-74187104D01*
X125431571Y-74225200D01*
X125469666Y-74263295D01*
X125774428Y-74263295D02*
X125812523Y-74225200D01*
X125888714Y-74187104D01*
X126079190Y-74187104D01*
X126155380Y-74225200D01*
X126193476Y-74263295D01*
X126231571Y-74339485D01*
X126231571Y-74415676D01*
X126193476Y-74529961D01*
X125736333Y-74987104D01*
X126231571Y-74987104D01*
%TO.C,C4*%
X122523266Y-74910914D02*
X122485171Y-74949009D01*
X122370885Y-74987104D01*
X122294695Y-74987104D01*
X122180409Y-74949009D01*
X122104219Y-74872819D01*
X122066123Y-74796628D01*
X122028028Y-74644247D01*
X122028028Y-74529961D01*
X122066123Y-74377580D01*
X122104219Y-74301390D01*
X122180409Y-74225200D01*
X122294695Y-74187104D01*
X122370885Y-74187104D01*
X122485171Y-74225200D01*
X122523266Y-74263295D01*
X123208980Y-74453771D02*
X123208980Y-74987104D01*
X123018504Y-74149009D02*
X122828028Y-74720438D01*
X123323266Y-74720438D01*
%TO.C,C8*%
X133153114Y-69551533D02*
X133191209Y-69589628D01*
X133229304Y-69703914D01*
X133229304Y-69780104D01*
X133191209Y-69894390D01*
X133115019Y-69970580D01*
X133038828Y-70008676D01*
X132886447Y-70046771D01*
X132772161Y-70046771D01*
X132619780Y-70008676D01*
X132543590Y-69970580D01*
X132467400Y-69894390D01*
X132429304Y-69780104D01*
X132429304Y-69703914D01*
X132467400Y-69589628D01*
X132505495Y-69551533D01*
X132772161Y-69094390D02*
X132734066Y-69170580D01*
X132695971Y-69208676D01*
X132619780Y-69246771D01*
X132581685Y-69246771D01*
X132505495Y-69208676D01*
X132467400Y-69170580D01*
X132429304Y-69094390D01*
X132429304Y-68942009D01*
X132467400Y-68865819D01*
X132505495Y-68827723D01*
X132581685Y-68789628D01*
X132619780Y-68789628D01*
X132695971Y-68827723D01*
X132734066Y-68865819D01*
X132772161Y-68942009D01*
X132772161Y-69094390D01*
X132810257Y-69170580D01*
X132848352Y-69208676D01*
X132924542Y-69246771D01*
X133076923Y-69246771D01*
X133153114Y-69208676D01*
X133191209Y-69170580D01*
X133229304Y-69094390D01*
X133229304Y-68942009D01*
X133191209Y-68865819D01*
X133153114Y-68827723D01*
X133076923Y-68789628D01*
X132924542Y-68789628D01*
X132848352Y-68827723D01*
X132810257Y-68865819D01*
X132772161Y-68942009D01*
%TO.C,R11*%
X140925504Y-76200885D02*
X140544552Y-76467552D01*
X140925504Y-76658028D02*
X140125504Y-76658028D01*
X140125504Y-76353266D01*
X140163600Y-76277076D01*
X140201695Y-76238980D01*
X140277885Y-76200885D01*
X140392171Y-76200885D01*
X140468361Y-76238980D01*
X140506457Y-76277076D01*
X140544552Y-76353266D01*
X140544552Y-76658028D01*
X140925504Y-75438980D02*
X140925504Y-75896123D01*
X140925504Y-75667552D02*
X140125504Y-75667552D01*
X140239790Y-75743742D01*
X140315980Y-75819933D01*
X140354076Y-75896123D01*
X140925504Y-74677076D02*
X140925504Y-75134219D01*
X140925504Y-74905647D02*
X140125504Y-74905647D01*
X140239790Y-74981838D01*
X140315980Y-75058028D01*
X140354076Y-75134219D01*
%TO.C,C6*%
X118986264Y-70338933D02*
X119024359Y-70377028D01*
X119062454Y-70491314D01*
X119062454Y-70567504D01*
X119024359Y-70681790D01*
X118948169Y-70757980D01*
X118871978Y-70796076D01*
X118719597Y-70834171D01*
X118605311Y-70834171D01*
X118452930Y-70796076D01*
X118376740Y-70757980D01*
X118300550Y-70681790D01*
X118262454Y-70567504D01*
X118262454Y-70491314D01*
X118300550Y-70377028D01*
X118338645Y-70338933D01*
X118262454Y-69653219D02*
X118262454Y-69805600D01*
X118300550Y-69881790D01*
X118338645Y-69919885D01*
X118452930Y-69996076D01*
X118605311Y-70034171D01*
X118910073Y-70034171D01*
X118986264Y-69996076D01*
X119024359Y-69957980D01*
X119062454Y-69881790D01*
X119062454Y-69729409D01*
X119024359Y-69653219D01*
X118986264Y-69615123D01*
X118910073Y-69577028D01*
X118719597Y-69577028D01*
X118643407Y-69615123D01*
X118605311Y-69653219D01*
X118567216Y-69729409D01*
X118567216Y-69881790D01*
X118605311Y-69957980D01*
X118643407Y-69996076D01*
X118719597Y-70034171D01*
%TO.C,R10*%
X120708000Y-85127266D02*
X120474666Y-84793933D01*
X120308000Y-85127266D02*
X120308000Y-84427266D01*
X120574666Y-84427266D01*
X120641333Y-84460600D01*
X120674666Y-84493933D01*
X120708000Y-84560600D01*
X120708000Y-84660600D01*
X120674666Y-84727266D01*
X120641333Y-84760600D01*
X120574666Y-84793933D01*
X120308000Y-84793933D01*
X121374666Y-85127266D02*
X120974666Y-85127266D01*
X121174666Y-85127266D02*
X121174666Y-84427266D01*
X121108000Y-84527266D01*
X121041333Y-84593933D01*
X120974666Y-84627266D01*
X121808000Y-84427266D02*
X121874666Y-84427266D01*
X121941333Y-84460600D01*
X121974666Y-84493933D01*
X122008000Y-84560600D01*
X122041333Y-84693933D01*
X122041333Y-84860600D01*
X122008000Y-84993933D01*
X121974666Y-85060600D01*
X121941333Y-85093933D01*
X121874666Y-85127266D01*
X121808000Y-85127266D01*
X121741333Y-85093933D01*
X121708000Y-85060600D01*
X121674666Y-84993933D01*
X121641333Y-84860600D01*
X121641333Y-84693933D01*
X121674666Y-84560600D01*
X121708000Y-84493933D01*
X121741333Y-84460600D01*
X121808000Y-84427266D01*
%TO.C,C7*%
X116871714Y-81921333D02*
X116909809Y-81959428D01*
X116947904Y-82073714D01*
X116947904Y-82149904D01*
X116909809Y-82264190D01*
X116833619Y-82340380D01*
X116757428Y-82378476D01*
X116605047Y-82416571D01*
X116490761Y-82416571D01*
X116338380Y-82378476D01*
X116262190Y-82340380D01*
X116186000Y-82264190D01*
X116147904Y-82149904D01*
X116147904Y-82073714D01*
X116186000Y-81959428D01*
X116224095Y-81921333D01*
X116147904Y-81654666D02*
X116147904Y-81121333D01*
X116947904Y-81464190D01*
%TO.C,R1*%
X116503466Y-84689904D02*
X116236800Y-84308952D01*
X116046323Y-84689904D02*
X116046323Y-83889904D01*
X116351085Y-83889904D01*
X116427276Y-83928000D01*
X116465371Y-83966095D01*
X116503466Y-84042285D01*
X116503466Y-84156571D01*
X116465371Y-84232761D01*
X116427276Y-84270857D01*
X116351085Y-84308952D01*
X116046323Y-84308952D01*
X117265371Y-84689904D02*
X116808228Y-84689904D01*
X117036800Y-84689904D02*
X117036800Y-83889904D01*
X116960609Y-84004190D01*
X116884419Y-84080380D01*
X116808228Y-84118476D01*
%TO.C,C5*%
X120351514Y-70338933D02*
X120389609Y-70377028D01*
X120427704Y-70491314D01*
X120427704Y-70567504D01*
X120389609Y-70681790D01*
X120313419Y-70757980D01*
X120237228Y-70796076D01*
X120084847Y-70834171D01*
X119970561Y-70834171D01*
X119818180Y-70796076D01*
X119741990Y-70757980D01*
X119665800Y-70681790D01*
X119627704Y-70567504D01*
X119627704Y-70491314D01*
X119665800Y-70377028D01*
X119703895Y-70338933D01*
X119627704Y-69615123D02*
X119627704Y-69996076D01*
X120008657Y-70034171D01*
X119970561Y-69996076D01*
X119932466Y-69919885D01*
X119932466Y-69729409D01*
X119970561Y-69653219D01*
X120008657Y-69615123D01*
X120084847Y-69577028D01*
X120275323Y-69577028D01*
X120351514Y-69615123D01*
X120389609Y-69653219D01*
X120427704Y-69729409D01*
X120427704Y-69919885D01*
X120389609Y-69996076D01*
X120351514Y-70034171D01*
%TO.C,U4*%
X126441276Y-83585104D02*
X126441276Y-84232723D01*
X126479371Y-84308914D01*
X126517466Y-84347009D01*
X126593657Y-84385104D01*
X126746038Y-84385104D01*
X126822228Y-84347009D01*
X126860323Y-84308914D01*
X126898419Y-84232723D01*
X126898419Y-83585104D01*
X127622228Y-83851771D02*
X127622228Y-84385104D01*
X127431752Y-83547009D02*
X127241276Y-84118438D01*
X127736514Y-84118438D01*
%TO.C,R12*%
X124733114Y-69754704D02*
X124466447Y-69373752D01*
X124275971Y-69754704D02*
X124275971Y-68954704D01*
X124580733Y-68954704D01*
X124656923Y-68992800D01*
X124695019Y-69030895D01*
X124733114Y-69107085D01*
X124733114Y-69221371D01*
X124695019Y-69297561D01*
X124656923Y-69335657D01*
X124580733Y-69373752D01*
X124275971Y-69373752D01*
X125495019Y-69754704D02*
X125037876Y-69754704D01*
X125266447Y-69754704D02*
X125266447Y-68954704D01*
X125190257Y-69068990D01*
X125114066Y-69145180D01*
X125037876Y-69183276D01*
X125799780Y-69030895D02*
X125837876Y-68992800D01*
X125914066Y-68954704D01*
X126104542Y-68954704D01*
X126180733Y-68992800D01*
X126218828Y-69030895D01*
X126256923Y-69107085D01*
X126256923Y-69183276D01*
X126218828Y-69297561D01*
X125761685Y-69754704D01*
X126256923Y-69754704D01*
D11*
%TO.C,R5*%
X116673100Y-72203542D02*
X116673100Y-72678058D01*
X117718100Y-72203542D02*
X117718100Y-72678058D01*
%TO.C,R9*%
X129957300Y-81745858D02*
X129957300Y-81271342D01*
X131002300Y-81745858D02*
X131002300Y-81271342D01*
%TO.C,R8*%
X123554258Y-79592700D02*
X123079742Y-79592700D01*
X123554258Y-78547700D02*
X123079742Y-78547700D01*
%TO.C,SW2*%
X135394000Y-81752000D02*
X136894000Y-81752000D01*
X139394000Y-80502000D02*
X139394000Y-76002000D01*
X132894000Y-76002000D02*
X132894000Y-80502000D01*
X136894000Y-74752000D02*
X135394000Y-74752000D01*
%TO.C,D1*%
X141661000Y-79917000D02*
X143581000Y-79917000D01*
X141661000Y-77232000D02*
X141661000Y-79917000D01*
X143581000Y-79917000D02*
X143581000Y-77232000D01*
%TO.C,RESET*%
X130111400Y-73279000D02*
X130111400Y-73579000D01*
X130111400Y-70439000D02*
X130111400Y-70739000D01*
X125971400Y-70439000D02*
X130111400Y-70439000D01*
X125971400Y-70739000D02*
X125971400Y-70439000D01*
X130111400Y-73579000D02*
X125971400Y-73579000D01*
X125971400Y-73579000D02*
X125971400Y-73279000D01*
%TO.C,R6*%
X120201458Y-79567300D02*
X119726942Y-79567300D01*
X120201458Y-78522300D02*
X119726942Y-78522300D01*
%TO.C,U5*%
X120954800Y-80151800D02*
X120154800Y-80151800D01*
X120954800Y-83271800D02*
X120154800Y-83271800D01*
X120954800Y-80151800D02*
X121754800Y-80151800D01*
X120954800Y-83271800D02*
X122754800Y-83271800D01*
%TO.C,SW1*%
X134261000Y-85266400D02*
X121261000Y-85266400D01*
X134261000Y-88266400D02*
X134261000Y-87766400D01*
X134261000Y-85766400D02*
X134261000Y-85266400D01*
X121261000Y-87766400D02*
X121261000Y-88266400D01*
X121261000Y-85266400D02*
X121261000Y-85766400D01*
X121261000Y-88266400D02*
X134261000Y-88266400D01*
%TO.C,C3*%
X120495600Y-76491220D02*
X120495600Y-76772380D01*
X121515600Y-76491220D02*
X121515600Y-76772380D01*
%TO.C,R2*%
X124626900Y-76869058D02*
X124626900Y-76394542D01*
X123581900Y-76869058D02*
X123581900Y-76394542D01*
%TO.C,R4*%
X123941100Y-72678058D02*
X123941100Y-72203542D01*
X122896100Y-72678058D02*
X122896100Y-72203542D01*
%TO.C,R7*%
X128179300Y-81745858D02*
X128179300Y-81271342D01*
X129224300Y-81745858D02*
X129224300Y-81271342D01*
%TO.C,U2*%
X128473200Y-75046400D02*
X129273200Y-75046400D01*
X128473200Y-78166400D02*
X129273200Y-78166400D01*
X128473200Y-78166400D02*
X127673200Y-78166400D01*
X128473200Y-75046400D02*
X126673200Y-75046400D01*
%TO.C,J2*%
X146770400Y-86609000D02*
X146770400Y-87939000D01*
X146770400Y-85339000D02*
X146770400Y-75119000D01*
X144110400Y-85339000D02*
X144110400Y-75119000D01*
X146770400Y-85339000D02*
X144110400Y-85339000D01*
X146770400Y-75119000D02*
X144110400Y-75119000D01*
X146770400Y-87939000D02*
X145440400Y-87939000D01*
%TO.C,C1*%
X132107400Y-76364220D02*
X132107400Y-76645380D01*
X131087400Y-76364220D02*
X131087400Y-76645380D01*
%TO.C,FLASH*%
X143103600Y-81673800D02*
X143403600Y-81673800D01*
X140263600Y-81673800D02*
X140563600Y-81673800D01*
X140563600Y-85813800D02*
X140263600Y-85813800D01*
X143403600Y-81673800D02*
X143403600Y-85813800D01*
X140263600Y-85813800D02*
X140263600Y-81673800D01*
X143403600Y-85813800D02*
X143103600Y-85813800D01*
%TO.C,U1*%
X118135400Y-74868600D02*
X116335400Y-74868600D01*
X118135400Y-77988600D02*
X118935400Y-77988600D01*
X118135400Y-74868600D02*
X118935400Y-74868600D01*
X118135400Y-77988600D02*
X117335400Y-77988600D01*
%TO.C,R3*%
X122385350Y-72678058D02*
X122385350Y-72203542D01*
X121340350Y-72678058D02*
X121340350Y-72203542D01*
%TO.C,C2*%
X126138400Y-76491220D02*
X126138400Y-76772380D01*
X125118400Y-76491220D02*
X125118400Y-76772380D01*
%TO.C,C4*%
X122045000Y-76491220D02*
X122045000Y-76772380D01*
X123065000Y-76491220D02*
X123065000Y-76772380D01*
%TO.C,C8*%
X130694820Y-69826600D02*
X130975980Y-69826600D01*
X130694820Y-68806600D02*
X130975980Y-68806600D01*
%TO.C,R11*%
X141213100Y-78489258D02*
X141213100Y-78014742D01*
X140168100Y-78489258D02*
X140168100Y-78014742D01*
%TO.C,C6*%
X118241350Y-72300220D02*
X118241350Y-72581380D01*
X119261350Y-72300220D02*
X119261350Y-72581380D01*
%TO.C,R10*%
X123460742Y-84748900D02*
X123935258Y-84748900D01*
X123460742Y-83703900D02*
X123935258Y-83703900D01*
%TO.C,C7*%
X117244400Y-81903180D02*
X117244400Y-81622020D01*
X118264400Y-81903180D02*
X118264400Y-81622020D01*
%TO.C,R1*%
X118931458Y-83729300D02*
X118456942Y-83729300D01*
X118931458Y-84774300D02*
X118456942Y-84774300D01*
%TO.C,C5*%
X120817100Y-72300220D02*
X120817100Y-72581380D01*
X119797100Y-72300220D02*
X119797100Y-72581380D01*
%TO.C,U4*%
X125222000Y-83297200D02*
X127022000Y-83297200D01*
X125222000Y-80177200D02*
X124422000Y-80177200D01*
X125222000Y-80177200D02*
X126022000Y-80177200D01*
X125222000Y-83297200D02*
X124422000Y-83297200D01*
%TO.C,R12*%
X127973858Y-68794100D02*
X127499342Y-68794100D01*
X127973858Y-69839100D02*
X127499342Y-69839100D01*
%TD*%
M02*
