M48
; DRILL file {KiCad (6.0.0)} date Wed Mar  2 17:10:48 2022
; FORMAT={-:-/ absolute / inch / decimal}
; #@! TF.CreationDate,2022-03-02T17:10:48+00:00
; #@! TF.GenerationSoftware,Kicad,Pcbnew,(6.0.0)
; #@! TF.FileFunction,Plated,1,2,PTH
FMAT,2
INCH
; #@! TA.AperFunction,Plated,PTH,ViaDrill
T1C0.0157
; #@! TA.AperFunction,Plated,PTH,ComponentDrill
T2C0.0295
; #@! TA.AperFunction,Plated,PTH,ComponentDrill
T3C0.0394
; #@! TA.AperFunction,Plated,PTH,ComponentDrill
T4C0.0433
%
G90
G05
T1
X4.626Y-2.696
X4.6455Y-2.774
X4.65Y-3.111
X4.717Y-3.22
X4.7242Y-2.774
X4.797Y-2.9185
X4.8458Y-3.2859
X4.933Y-3.13
X4.9537Y-3.314
X5.022Y-2.859
X5.101Y-3.272
X5.192Y-3.377
X5.1988Y-2.7702
X5.217Y-3.402
X5.23Y-3.37
X5.345Y-3.4045
X5.347Y-3.136
X5.52Y-3.4288
X5.54Y-3.162
T2
X5.7235Y-2.7626
X5.7235Y-2.8414
T3
X5.716Y-3.1098
X5.716Y-3.3098
X5.736Y-3.0098
X5.736Y-3.2098
X5.736Y-3.4098
T4
X5.2714Y-2.9528
X5.2714Y-3.2087
X5.4486Y-2.9528
X5.4486Y-3.2087
T0
M30
