%TF.GenerationSoftware,KiCad,Pcbnew,(6.0.0)*%
%TF.CreationDate,2022-03-02T17:10:44+00:00*%
%TF.ProjectId,Window sensor V5,57696e64-6f77-4207-9365-6e736f722056,rev?*%
%TF.SameCoordinates,Original*%
%TF.FileFunction,Copper,L2,Bot*%
%TF.FilePolarity,Positive*%
%FSLAX46Y46*%
G04 Gerber Fmt 4.6, Leading zero omitted, Abs format (unit mm)*
G04 Created by KiCad (PCBNEW (6.0.0)) date 2022-03-02 17:10:44*
%MOMM*%
%LPD*%
G01*
G04 APERTURE LIST*
G04 Aperture macros list*
%AMRoundRect*
0 Rectangle with rounded corners*
0 $1 Rounding radius*
0 $2 $3 $4 $5 $6 $7 $8 $9 X,Y pos of 4 corners*
0 Add a 4 corners polygon primitive as box body*
4,1,4,$2,$3,$4,$5,$6,$7,$8,$9,$2,$3,0*
0 Add four circle primitives for the rounded corners*
1,1,$1+$1,$2,$3*
1,1,$1+$1,$4,$5*
1,1,$1+$1,$6,$7*
1,1,$1+$1,$8,$9*
0 Add four rect primitives between the rounded corners*
20,1,$1+$1,$2,$3,$4,$5,0*
20,1,$1+$1,$4,$5,$6,$7,0*
20,1,$1+$1,$6,$7,$8,$9,0*
20,1,$1+$1,$8,$9,$2,$3,0*%
G04 Aperture macros list end*
%TA.AperFunction,ComponentPad*%
%ADD10C,2.000000*%
%TD*%
%TA.AperFunction,ComponentPad*%
%ADD11R,1.700000X1.700000*%
%TD*%
%TA.AperFunction,ComponentPad*%
%ADD12O,1.700000X1.700000*%
%TD*%
%TA.AperFunction,SMDPad,CuDef*%
%ADD13R,1.000000X2.500000*%
%TD*%
%TA.AperFunction,ComponentPad*%
%ADD14RoundRect,0.250000X0.625000X-0.350000X0.625000X0.350000X-0.625000X0.350000X-0.625000X-0.350000X0*%
%TD*%
%TA.AperFunction,ComponentPad*%
%ADD15O,1.750000X1.200000*%
%TD*%
%TA.AperFunction,ViaPad*%
%ADD16C,0.800000*%
%TD*%
%TA.AperFunction,Conductor*%
%ADD17C,0.600000*%
%TD*%
%TA.AperFunction,Conductor*%
%ADD18C,0.250000*%
%TD*%
G04 APERTURE END LIST*
D10*
%TO.P,SW2,1,1*%
%TO.N,+BATT*%
X138394000Y-75002000D03*
X138394000Y-81502000D03*
%TO.P,SW2,2,2*%
%TO.N,INPUT*%
X133894000Y-75002000D03*
X133894000Y-81502000D03*
%TD*%
D11*
%TO.P,J2,1,Pin_1*%
%TO.N,Net-(J2-Pad1)*%
X145694400Y-86609000D03*
D12*
%TO.P,J2,2,Pin_2*%
%TO.N,Net-(J2-Pad2)*%
X145186400Y-84069000D03*
%TO.P,J2,3,Pin_3*%
%TO.N,VCC*%
X145694400Y-81529000D03*
%TO.P,J2,4,Pin_4*%
%TO.N,unconnected-(J2-Pad4)*%
X145186400Y-78989000D03*
%TO.P,J2,5,Pin_5*%
%TO.N,GND*%
X145694400Y-76449000D03*
%TD*%
D13*
%TO.P,U3,1,~{RST}*%
%TO.N,Net-(RESET1-Pad2)*%
X116896000Y-70403400D03*
%TO.P,U3,2,ADC*%
%TO.N,Net-(C6-Pad1)*%
X118896000Y-70403400D03*
%TO.P,U3,3,EN*%
%TO.N,Net-(C5-Pad1)*%
X120896000Y-70403400D03*
%TO.P,U3,4,GPIO16*%
%TO.N,END*%
X122896000Y-70403400D03*
%TO.P,U3,5,GPIO14*%
%TO.N,unconnected-(U3-Pad5)*%
X124896000Y-70403400D03*
%TO.P,U3,6,GPIO12*%
%TO.N,Net-(C8-Pad1)*%
X126896000Y-70403400D03*
%TO.P,U3,7,GPIO13*%
%TO.N,GPIO13*%
X128896000Y-70403400D03*
%TO.P,U3,8,VCC*%
%TO.N,VCC*%
X130896000Y-70403400D03*
%TO.P,U3,15,GND*%
%TO.N,GND*%
X130896000Y-85603400D03*
%TO.P,U3,16,GPIO15*%
%TO.N,Net-(R9-Pad1)*%
X128896000Y-85603400D03*
%TO.P,U3,17,GPIO2*%
%TO.N,unconnected-(U3-Pad17)*%
X126896000Y-85603400D03*
%TO.P,U3,18,GPIO0*%
%TO.N,Net-(FLASH1-Pad1)*%
X124896000Y-85603400D03*
%TO.P,U3,19,GPIO4*%
%TO.N,unconnected-(U3-Pad19)*%
X122896000Y-85603400D03*
%TO.P,U3,20,GPIO5*%
%TO.N,unconnected-(U3-Pad20)*%
X120896000Y-85603400D03*
%TO.P,U3,21,GPIO3/RXD*%
%TO.N,Net-(J2-Pad2)*%
X118896000Y-85603400D03*
%TO.P,U3,22,GPIO1/TXD*%
%TO.N,Net-(J2-Pad1)*%
X116896000Y-85603400D03*
%TD*%
D14*
%TO.P,J1,1,Pin_1*%
%TO.N,+BATT*%
X145375800Y-72170800D03*
D15*
%TO.P,J1,2,Pin_2*%
%TO.N,GND*%
X145375800Y-70170800D03*
%TD*%
D16*
%TO.N,GND*%
X132842000Y-85598000D03*
X132511800Y-86410800D03*
X131876800Y-85775800D03*
%TO.N,Net-(C5-Pad1)*%
X119995502Y-70459600D03*
%TO.N,Net-(C6-Pad1)*%
X117995502Y-70459600D03*
%TO.N,VCC*%
X140716000Y-80314800D03*
X119811800Y-81788000D03*
X121843800Y-74129580D03*
X123082939Y-83461300D03*
%TO.N,Net-(FLASH1-Pad1)*%
X140208000Y-87090980D03*
X125823204Y-84176463D03*
%TO.N,Net-(R1-Pad2)*%
X135813800Y-79654400D03*
X135763000Y-86473700D03*
%TO.N,GPIO13*%
X118110000Y-79019400D03*
%TO.N,INPUT*%
X132050207Y-70362627D03*
%TO.N,END*%
X125298200Y-79502000D03*
%TO.N,Net-(R9-Pad1)*%
X129565400Y-83108800D03*
%TO.N,Net-(RESET1-Pad2)*%
X117500400Y-68478400D03*
%TO.N,Net-(C8-Pad1)*%
X127558800Y-72618600D03*
%TD*%
D17*
%TO.N,+BATT*%
X138419400Y-74956600D02*
X138419400Y-81456600D01*
%TO.N,GND*%
X131876800Y-85775800D02*
X132511800Y-86410800D01*
X130896000Y-85603400D02*
X131704400Y-85603400D01*
X131704400Y-85603400D02*
X131876800Y-85775800D01*
D18*
%TO.N,Net-(C5-Pad1)*%
X120020902Y-70485000D02*
X120814400Y-70485000D01*
X119995502Y-70459600D02*
X120020902Y-70485000D01*
%TO.N,Net-(C6-Pad1)*%
X117995502Y-70459600D02*
X118839800Y-70459600D01*
%TO.N,Net-(FLASH1-Pad1)*%
X140100780Y-87198200D02*
X125095000Y-87198200D01*
X125095000Y-87198200D02*
X124917200Y-87020400D01*
X124917200Y-87020400D02*
X124917200Y-86374600D01*
X125823204Y-84676196D02*
X124896000Y-85603400D01*
X140208000Y-87090980D02*
X140100780Y-87198200D01*
X125823204Y-84176463D02*
X125823204Y-84676196D01*
%TO.N,Net-(J2-Pad1)*%
X116890800Y-88011000D02*
X117144800Y-88265000D01*
X116890800Y-86358600D02*
X116890800Y-88011000D01*
X145237200Y-88265000D02*
X145440400Y-88061800D01*
X117144800Y-88265000D02*
X145237200Y-88265000D01*
X145440400Y-88061800D02*
X145440400Y-86609000D01*
%TO.N,Net-(J2-Pad2)*%
X144018000Y-84251800D02*
X144200800Y-84069000D01*
X143840200Y-87815480D02*
X144018000Y-87637680D01*
X119100600Y-87815480D02*
X143840200Y-87815480D01*
X118896000Y-85603400D02*
X118896000Y-87610880D01*
X144200800Y-84069000D02*
X145440400Y-84069000D01*
X118896000Y-87610880D02*
X119100600Y-87815480D01*
X144018000Y-87637680D02*
X144018000Y-84251800D01*
%TO.N,Net-(R1-Pad2)*%
X135813800Y-79654400D02*
X135813800Y-86422900D01*
X135813800Y-86422900D02*
X135763000Y-86473700D01*
%TO.N,GPIO13*%
X128879600Y-74168000D02*
X124028200Y-79019400D01*
X128879600Y-71169800D02*
X128879600Y-74168000D01*
X124028200Y-79019400D02*
X118110000Y-79019400D01*
%TO.N,INPUT*%
X132050207Y-70362627D02*
X133710227Y-70362627D01*
X133919400Y-75027400D02*
X133919400Y-81476600D01*
X133894000Y-70546400D02*
X133894000Y-75002000D01*
X133710227Y-70362627D02*
X133894000Y-70546400D01*
%TO.N,END*%
X116535200Y-72288400D02*
X122525800Y-72288400D01*
X125145800Y-79806800D02*
X116535200Y-79806800D01*
X125171200Y-79629000D02*
X125171200Y-79832200D01*
X116535200Y-79806800D02*
X116382800Y-79654400D01*
X116382800Y-79654400D02*
X116382800Y-72440800D01*
X125171200Y-79832200D02*
X125145800Y-79806800D01*
X116382800Y-72440800D02*
X116535200Y-72288400D01*
X125298200Y-79502000D02*
X125171200Y-79629000D01*
X122896000Y-71918200D02*
X122896000Y-70403400D01*
X122525800Y-72288400D02*
X122896000Y-71918200D01*
%TO.N,Net-(R9-Pad1)*%
X129565400Y-84306763D02*
X128896000Y-84976163D01*
X129565400Y-83108800D02*
X129565400Y-84306763D01*
%TO.N,Net-(RESET1-Pad2)*%
X117500400Y-68478400D02*
X117297200Y-68478400D01*
X117297200Y-68478400D02*
X116896000Y-68879600D01*
X116896000Y-68879600D02*
X116896000Y-70403400D01*
%TO.N,Net-(C8-Pad1)*%
X126896000Y-71955800D02*
X127558800Y-72618600D01*
X126896000Y-70403400D02*
X126896000Y-71955800D01*
%TD*%
%TA.AperFunction,Conductor*%
%TO.N,VCC*%
G36*
X146985921Y-68114202D02*
G01*
X147032414Y-68167858D01*
X147043800Y-68220200D01*
X147043800Y-80687868D01*
X147023798Y-80755989D01*
X146970142Y-80802482D01*
X146899868Y-80812586D01*
X146835288Y-80783092D01*
X146812008Y-80756308D01*
X146776827Y-80701926D01*
X146770536Y-80693757D01*
X146627206Y-80536240D01*
X146619673Y-80529215D01*
X146452539Y-80397222D01*
X146443952Y-80391517D01*
X146257517Y-80288599D01*
X146248105Y-80284369D01*
X146047359Y-80213280D01*
X146037388Y-80210646D01*
X145966237Y-80197972D01*
X145952940Y-80199432D01*
X145948400Y-80213989D01*
X145948400Y-82847517D01*
X145952464Y-82861359D01*
X145965878Y-82863393D01*
X145972584Y-82862534D01*
X145982662Y-82860392D01*
X146186655Y-82799191D01*
X146196242Y-82795433D01*
X146387495Y-82701739D01*
X146396345Y-82696464D01*
X146569728Y-82572792D01*
X146577600Y-82566139D01*
X146728452Y-82415812D01*
X146735123Y-82407972D01*
X146815477Y-82296148D01*
X146871472Y-82252500D01*
X146942175Y-82246054D01*
X147005140Y-82278857D01*
X147040374Y-82340493D01*
X147043800Y-82369674D01*
X147043800Y-88167600D01*
X147023798Y-88235721D01*
X146970142Y-88282214D01*
X146917800Y-88293600D01*
X145880210Y-88293600D01*
X145812089Y-88273598D01*
X145765596Y-88219942D01*
X145756124Y-88145723D01*
X145757533Y-88137731D01*
X145759908Y-88127017D01*
X145769663Y-88090607D01*
X145768404Y-88076210D01*
X145766379Y-88053069D01*
X145765900Y-88042088D01*
X145765900Y-87785500D01*
X145785902Y-87717379D01*
X145839558Y-87670886D01*
X145891900Y-87659500D01*
X146564148Y-87659500D01*
X146584207Y-87655510D01*
X146610461Y-87650288D01*
X146610462Y-87650288D01*
X146622631Y-87647867D01*
X146688952Y-87603552D01*
X146733267Y-87537231D01*
X146744900Y-87478748D01*
X146744900Y-85739252D01*
X146733267Y-85680769D01*
X146688952Y-85614448D01*
X146622631Y-85570133D01*
X146610462Y-85567712D01*
X146610461Y-85567712D01*
X146570216Y-85559707D01*
X146564148Y-85558500D01*
X144824652Y-85558500D01*
X144818584Y-85559707D01*
X144778339Y-85567712D01*
X144778338Y-85567712D01*
X144766169Y-85570133D01*
X144699848Y-85614448D01*
X144655533Y-85680769D01*
X144643900Y-85739252D01*
X144643900Y-87478748D01*
X144655533Y-87537231D01*
X144699848Y-87603552D01*
X144766169Y-87647867D01*
X144778338Y-87650288D01*
X144778339Y-87650288D01*
X144804593Y-87655510D01*
X144824652Y-87659500D01*
X144988900Y-87659500D01*
X145057021Y-87679502D01*
X145103514Y-87733158D01*
X145114900Y-87785500D01*
X145114900Y-87813500D01*
X145094898Y-87881621D01*
X145041242Y-87928114D01*
X144988900Y-87939500D01*
X144437789Y-87939500D01*
X144369668Y-87919498D01*
X144323175Y-87865842D01*
X144313071Y-87795568D01*
X144317641Y-87777360D01*
X144317561Y-87777339D01*
X144318088Y-87775374D01*
X144318340Y-87774574D01*
X144318910Y-87772304D01*
X144319506Y-87770079D01*
X144319996Y-87768733D01*
X144320779Y-87766843D01*
X144321386Y-87764919D01*
X144323079Y-87760268D01*
X144328588Y-87750725D01*
X144335134Y-87713604D01*
X144337508Y-87702897D01*
X144347263Y-87666487D01*
X144344919Y-87639687D01*
X144343979Y-87628949D01*
X144343500Y-87617968D01*
X144343500Y-85003829D01*
X144363502Y-84935708D01*
X144417158Y-84889215D01*
X144487432Y-84879111D01*
X144551162Y-84907875D01*
X144583964Y-84935791D01*
X144763798Y-85036297D01*
X144834988Y-85059428D01*
X144953871Y-85098056D01*
X144953875Y-85098057D01*
X144959729Y-85099959D01*
X145164294Y-85124351D01*
X145170429Y-85123879D01*
X145170431Y-85123879D01*
X145226439Y-85119569D01*
X145369700Y-85108546D01*
X145375630Y-85106890D01*
X145375632Y-85106890D01*
X145499504Y-85072304D01*
X145568125Y-85053145D01*
X145573614Y-85050372D01*
X145573620Y-85050370D01*
X145746516Y-84963033D01*
X145752010Y-84960258D01*
X145914351Y-84833424D01*
X145928442Y-84817100D01*
X146044940Y-84682134D01*
X146044940Y-84682133D01*
X146048964Y-84677472D01*
X146150723Y-84498344D01*
X146215751Y-84302863D01*
X146241571Y-84098474D01*
X146241983Y-84069000D01*
X146221880Y-83863970D01*
X146162335Y-83666749D01*
X146065618Y-83484849D01*
X145992259Y-83394902D01*
X145939306Y-83329975D01*
X145939303Y-83329972D01*
X145935411Y-83325200D01*
X145872543Y-83273191D01*
X145781425Y-83197811D01*
X145781421Y-83197809D01*
X145776675Y-83193882D01*
X145595455Y-83095897D01*
X145495588Y-83064983D01*
X145436429Y-83025731D01*
X145407882Y-82960727D01*
X145419011Y-82890608D01*
X145430098Y-82876866D01*
X145440400Y-82848065D01*
X145440400Y-81801115D01*
X145435925Y-81785876D01*
X145434535Y-81784671D01*
X145426852Y-81783000D01*
X144377625Y-81783000D01*
X144364094Y-81786973D01*
X144362657Y-81796966D01*
X144392965Y-81931446D01*
X144396045Y-81941275D01*
X144476170Y-82138603D01*
X144480813Y-82147794D01*
X144592094Y-82329388D01*
X144598177Y-82337699D01*
X144737613Y-82498667D01*
X144744980Y-82505883D01*
X144908834Y-82641916D01*
X144917281Y-82647831D01*
X145101156Y-82755279D01*
X145110449Y-82759732D01*
X145155187Y-82776816D01*
X145211690Y-82819803D01*
X145235982Y-82886515D01*
X145220351Y-82955769D01*
X145169760Y-83005579D01*
X145121658Y-83020005D01*
X145059167Y-83025692D01*
X144994741Y-83031555D01*
X144994737Y-83031556D01*
X144988603Y-83032114D01*
X144790972Y-83090280D01*
X144608402Y-83185726D01*
X144603601Y-83189586D01*
X144603598Y-83189588D01*
X144499617Y-83273191D01*
X144447847Y-83314815D01*
X144315424Y-83472630D01*
X144312456Y-83478028D01*
X144312453Y-83478033D01*
X144257429Y-83578123D01*
X144216176Y-83653162D01*
X144214314Y-83659032D01*
X144214313Y-83659034D01*
X144211493Y-83667924D01*
X144171830Y-83726808D01*
X144113274Y-83753911D01*
X144098610Y-83756497D01*
X144098606Y-83756499D01*
X144087755Y-83758412D01*
X144078212Y-83763921D01*
X144074935Y-83765114D01*
X144071764Y-83766593D01*
X144061116Y-83769446D01*
X144052087Y-83775768D01*
X144030249Y-83791059D01*
X144020979Y-83796964D01*
X143997892Y-83810293D01*
X143997888Y-83810296D01*
X143988345Y-83815806D01*
X143981260Y-83824250D01*
X143964125Y-83844670D01*
X143956700Y-83852773D01*
X143801778Y-84007696D01*
X143793674Y-84015122D01*
X143764806Y-84039345D01*
X143759293Y-84048894D01*
X143745961Y-84071985D01*
X143740055Y-84081256D01*
X143718446Y-84112116D01*
X143715592Y-84122766D01*
X143714115Y-84125934D01*
X143712923Y-84129210D01*
X143707412Y-84138755D01*
X143703294Y-84162112D01*
X143700870Y-84175858D01*
X143698492Y-84186585D01*
X143688736Y-84222993D01*
X143689697Y-84233978D01*
X143689697Y-84233980D01*
X143692020Y-84260528D01*
X143692500Y-84271510D01*
X143692500Y-87363980D01*
X143672498Y-87432101D01*
X143618842Y-87478594D01*
X143566500Y-87489980D01*
X140881278Y-87489980D01*
X140813157Y-87469978D01*
X140766664Y-87416322D01*
X140756560Y-87346048D01*
X140764869Y-87315762D01*
X140789884Y-87255371D01*
X140793044Y-87247742D01*
X140813682Y-87090980D01*
X140793044Y-86934218D01*
X140732536Y-86788139D01*
X140636282Y-86662698D01*
X140510841Y-86566444D01*
X140364762Y-86505936D01*
X140208000Y-86485298D01*
X140051238Y-86505936D01*
X139905159Y-86566444D01*
X139779718Y-86662698D01*
X139683464Y-86788139D01*
X139680303Y-86795769D01*
X139676175Y-86802920D01*
X139674833Y-86802145D01*
X139636107Y-86850199D01*
X139564247Y-86872700D01*
X136436278Y-86872700D01*
X136368157Y-86852698D01*
X136321664Y-86799042D01*
X136311560Y-86728768D01*
X136319869Y-86698482D01*
X136344884Y-86638091D01*
X136348044Y-86630462D01*
X136368682Y-86473700D01*
X136348044Y-86316938D01*
X136287536Y-86170859D01*
X136191282Y-86045418D01*
X136184736Y-86040395D01*
X136178891Y-86034550D01*
X136180784Y-86032657D01*
X136146729Y-85986020D01*
X136139300Y-85943394D01*
X136139300Y-81470440D01*
X137188770Y-81470440D01*
X137203200Y-81690604D01*
X137204621Y-81696200D01*
X137204622Y-81696205D01*
X137230213Y-81796966D01*
X137257511Y-81904452D01*
X137259928Y-81909694D01*
X137259928Y-81909695D01*
X137298046Y-81992379D01*
X137349883Y-82104821D01*
X137477222Y-82285002D01*
X137635264Y-82438961D01*
X137640060Y-82442166D01*
X137640063Y-82442168D01*
X137731282Y-82503118D01*
X137818717Y-82561540D01*
X137824020Y-82563818D01*
X137824023Y-82563820D01*
X138005797Y-82641916D01*
X138021436Y-82648635D01*
X138101088Y-82666658D01*
X138230995Y-82696054D01*
X138231001Y-82696055D01*
X138236632Y-82697329D01*
X138242403Y-82697556D01*
X138242405Y-82697556D01*
X138310211Y-82700220D01*
X138457098Y-82705991D01*
X138587635Y-82687064D01*
X138669738Y-82675160D01*
X138669743Y-82675159D01*
X138675452Y-82674331D01*
X138680916Y-82672476D01*
X138680921Y-82672475D01*
X138878907Y-82605268D01*
X138878912Y-82605266D01*
X138884379Y-82603410D01*
X138909591Y-82589291D01*
X139028536Y-82522678D01*
X139076884Y-82495602D01*
X139172821Y-82415812D01*
X139242086Y-82358204D01*
X139246518Y-82354518D01*
X139387602Y-82184884D01*
X139495410Y-81992379D01*
X139497266Y-81986912D01*
X139497268Y-81986907D01*
X139564475Y-81788921D01*
X139564476Y-81788916D01*
X139566331Y-81783452D01*
X139567159Y-81777743D01*
X139567160Y-81777738D01*
X139597458Y-81568772D01*
X139597991Y-81565098D01*
X139599643Y-81502000D01*
X139579454Y-81282289D01*
X139577399Y-81275000D01*
X139521134Y-81075500D01*
X139519565Y-81069936D01*
X139421980Y-80872053D01*
X139335311Y-80755989D01*
X139293420Y-80699891D01*
X139293420Y-80699890D01*
X139289967Y-80695267D01*
X139127949Y-80545499D01*
X138978665Y-80451308D01*
X138931726Y-80398041D01*
X138919900Y-80344746D01*
X138919900Y-78974262D01*
X144130920Y-78974262D01*
X144131436Y-78980406D01*
X144147187Y-79167974D01*
X144148159Y-79179553D01*
X144149858Y-79185478D01*
X144199669Y-79359189D01*
X144204944Y-79377586D01*
X144207759Y-79383063D01*
X144207760Y-79383066D01*
X144228647Y-79423707D01*
X144299112Y-79560818D01*
X144427077Y-79722270D01*
X144431770Y-79726264D01*
X144431771Y-79726265D01*
X144515133Y-79797211D01*
X144583964Y-79855791D01*
X144589342Y-79858797D01*
X144589344Y-79858798D01*
X144620963Y-79876469D01*
X144763798Y-79956297D01*
X144815651Y-79973145D01*
X144953871Y-80018056D01*
X144953875Y-80018057D01*
X144959729Y-80019959D01*
X145117624Y-80038786D01*
X145182898Y-80066713D01*
X145222711Y-80125496D01*
X145224423Y-80196472D01*
X145187491Y-80257107D01*
X145160887Y-80275663D01*
X144972858Y-80373545D01*
X144964138Y-80379036D01*
X144793833Y-80506905D01*
X144786126Y-80513748D01*
X144638990Y-80667717D01*
X144632504Y-80675727D01*
X144512498Y-80851649D01*
X144507400Y-80860623D01*
X144417738Y-81053783D01*
X144414175Y-81063470D01*
X144358789Y-81263183D01*
X144360312Y-81271607D01*
X144372692Y-81275000D01*
X145422285Y-81275000D01*
X145437524Y-81270525D01*
X145438729Y-81269135D01*
X145440400Y-81261452D01*
X145440400Y-80212102D01*
X145430654Y-80178912D01*
X145411681Y-80149388D01*
X145411681Y-80078392D01*
X145450065Y-80018665D01*
X145498693Y-79992532D01*
X145562188Y-79974804D01*
X145562201Y-79974799D01*
X145568125Y-79973145D01*
X145573614Y-79970372D01*
X145573620Y-79970370D01*
X145746516Y-79883033D01*
X145752010Y-79880258D01*
X145914351Y-79753424D01*
X145938951Y-79724925D01*
X146044940Y-79602134D01*
X146044940Y-79602133D01*
X146048964Y-79597472D01*
X146069787Y-79560818D01*
X146107851Y-79493812D01*
X146150723Y-79418344D01*
X146215751Y-79222863D01*
X146241571Y-79018474D01*
X146241983Y-78989000D01*
X146221880Y-78783970D01*
X146162335Y-78586749D01*
X146065618Y-78404849D01*
X145992259Y-78314902D01*
X145939306Y-78249975D01*
X145939303Y-78249972D01*
X145935411Y-78245200D01*
X145918186Y-78230950D01*
X145781425Y-78117811D01*
X145781421Y-78117809D01*
X145776675Y-78113882D01*
X145595455Y-78015897D01*
X145398654Y-77954977D01*
X145392529Y-77954333D01*
X145392528Y-77954333D01*
X145199898Y-77934087D01*
X145199896Y-77934087D01*
X145193769Y-77933443D01*
X145106929Y-77941346D01*
X144994742Y-77951555D01*
X144994739Y-77951556D01*
X144988603Y-77952114D01*
X144790972Y-78010280D01*
X144608402Y-78105726D01*
X144603601Y-78109586D01*
X144603598Y-78109588D01*
X144593371Y-78117811D01*
X144447847Y-78234815D01*
X144315424Y-78392630D01*
X144312456Y-78398028D01*
X144312453Y-78398033D01*
X144256457Y-78499891D01*
X144216176Y-78573162D01*
X144153884Y-78769532D01*
X144153198Y-78775649D01*
X144153197Y-78775653D01*
X144142522Y-78870826D01*
X144130920Y-78974262D01*
X138919900Y-78974262D01*
X138919900Y-76434262D01*
X144638920Y-76434262D01*
X144656159Y-76639553D01*
X144712944Y-76837586D01*
X144715759Y-76843063D01*
X144715760Y-76843066D01*
X144736647Y-76883707D01*
X144807112Y-77020818D01*
X144935077Y-77182270D01*
X145091964Y-77315791D01*
X145271798Y-77416297D01*
X145366638Y-77447113D01*
X145461871Y-77478056D01*
X145461875Y-77478057D01*
X145467729Y-77479959D01*
X145672294Y-77504351D01*
X145678429Y-77503879D01*
X145678431Y-77503879D01*
X145734439Y-77499569D01*
X145877700Y-77488546D01*
X145883630Y-77486890D01*
X145883632Y-77486890D01*
X146070197Y-77434800D01*
X146070196Y-77434800D01*
X146076125Y-77433145D01*
X146081614Y-77430372D01*
X146081620Y-77430370D01*
X146254516Y-77343033D01*
X146260010Y-77340258D01*
X146422351Y-77213424D01*
X146556964Y-77057472D01*
X146577787Y-77020818D01*
X146655676Y-76883707D01*
X146658723Y-76878344D01*
X146723751Y-76682863D01*
X146749571Y-76478474D01*
X146749983Y-76449000D01*
X146729880Y-76243970D01*
X146670335Y-76046749D01*
X146573618Y-75864849D01*
X146500259Y-75774902D01*
X146447306Y-75709975D01*
X146447303Y-75709972D01*
X146443411Y-75705200D01*
X146424223Y-75689326D01*
X146289425Y-75577811D01*
X146289421Y-75577809D01*
X146284675Y-75573882D01*
X146103455Y-75475897D01*
X145906654Y-75414977D01*
X145900529Y-75414333D01*
X145900528Y-75414333D01*
X145707898Y-75394087D01*
X145707896Y-75394087D01*
X145701769Y-75393443D01*
X145614929Y-75401346D01*
X145502742Y-75411555D01*
X145502739Y-75411556D01*
X145496603Y-75412114D01*
X145298972Y-75470280D01*
X145293507Y-75473137D01*
X145207687Y-75518003D01*
X145116402Y-75565726D01*
X145111601Y-75569586D01*
X145111598Y-75569588D01*
X144974473Y-75679839D01*
X144955847Y-75694815D01*
X144823424Y-75852630D01*
X144820456Y-75858028D01*
X144820453Y-75858033D01*
X144746854Y-75991911D01*
X144724176Y-76033162D01*
X144661884Y-76229532D01*
X144661198Y-76235649D01*
X144661197Y-76235653D01*
X144639607Y-76428137D01*
X144638920Y-76434262D01*
X138919900Y-76434262D01*
X138919900Y-76157367D01*
X138939902Y-76089246D01*
X138984333Y-76047433D01*
X139076884Y-75995602D01*
X139246518Y-75854518D01*
X139366734Y-75709975D01*
X139383908Y-75689326D01*
X139383910Y-75689323D01*
X139387602Y-75684884D01*
X139495410Y-75492379D01*
X139497266Y-75486912D01*
X139497268Y-75486907D01*
X139564475Y-75288921D01*
X139564476Y-75288916D01*
X139566331Y-75283452D01*
X139567159Y-75277743D01*
X139567160Y-75277738D01*
X139597458Y-75068772D01*
X139597991Y-75065098D01*
X139599643Y-75002000D01*
X139579454Y-74782289D01*
X139519565Y-74569936D01*
X139421980Y-74372053D01*
X139322270Y-74238525D01*
X139293420Y-74199891D01*
X139293420Y-74199890D01*
X139289967Y-74195267D01*
X139192586Y-74105249D01*
X139132189Y-74049418D01*
X139132186Y-74049416D01*
X139127949Y-74045499D01*
X138941350Y-73927764D01*
X138798811Y-73870897D01*
X138741785Y-73848146D01*
X138736421Y-73846006D01*
X138730761Y-73844880D01*
X138730757Y-73844879D01*
X138525691Y-73804089D01*
X138525688Y-73804089D01*
X138520024Y-73802962D01*
X138514249Y-73802886D01*
X138514245Y-73802886D01*
X138403504Y-73801437D01*
X138299406Y-73800074D01*
X138293709Y-73801053D01*
X138293708Y-73801053D01*
X138087654Y-73836459D01*
X138087653Y-73836459D01*
X138081957Y-73837438D01*
X137874957Y-73913804D01*
X137685341Y-74026614D01*
X137519457Y-74172090D01*
X137382863Y-74345360D01*
X137280131Y-74540620D01*
X137214703Y-74751333D01*
X137188770Y-74970440D01*
X137203200Y-75190604D01*
X137204621Y-75196200D01*
X137204622Y-75196205D01*
X137254715Y-75393443D01*
X137257511Y-75404452D01*
X137259928Y-75409694D01*
X137259928Y-75409695D01*
X137298046Y-75492379D01*
X137349883Y-75604821D01*
X137477222Y-75785002D01*
X137635264Y-75938961D01*
X137640060Y-75942166D01*
X137640063Y-75942168D01*
X137724255Y-75998423D01*
X137818717Y-76061540D01*
X137824024Y-76063820D01*
X137824026Y-76063821D01*
X137842637Y-76071817D01*
X137897330Y-76117084D01*
X137918900Y-76187585D01*
X137918900Y-80316010D01*
X137898898Y-80384131D01*
X137857323Y-80424295D01*
X137718469Y-80506905D01*
X137685341Y-80526614D01*
X137519457Y-80672090D01*
X137382863Y-80845360D01*
X137280131Y-81040620D01*
X137214703Y-81251333D01*
X137188770Y-81470440D01*
X136139300Y-81470440D01*
X136139300Y-80223686D01*
X136159302Y-80155565D01*
X136188596Y-80123723D01*
X136190567Y-80122211D01*
X136225558Y-80095361D01*
X136235536Y-80087705D01*
X136242082Y-80082682D01*
X136338336Y-79957241D01*
X136398844Y-79811162D01*
X136419482Y-79654400D01*
X136398844Y-79497638D01*
X136338336Y-79351559D01*
X136242082Y-79226118D01*
X136116641Y-79129864D01*
X135970562Y-79069356D01*
X135813800Y-79048718D01*
X135657038Y-79069356D01*
X135510959Y-79129864D01*
X135385518Y-79226118D01*
X135289264Y-79351559D01*
X135228756Y-79497638D01*
X135208118Y-79654400D01*
X135228756Y-79811162D01*
X135289264Y-79957241D01*
X135385518Y-80082682D01*
X135392064Y-80087705D01*
X135402042Y-80095361D01*
X135437034Y-80122211D01*
X135439004Y-80123723D01*
X135480871Y-80181061D01*
X135488300Y-80223686D01*
X135488300Y-85865434D01*
X135468298Y-85933555D01*
X135439004Y-85965397D01*
X135351349Y-86032657D01*
X135334718Y-86045418D01*
X135238464Y-86170859D01*
X135177956Y-86316938D01*
X135157318Y-86473700D01*
X135177956Y-86630462D01*
X135181116Y-86638091D01*
X135206131Y-86698482D01*
X135213720Y-86769071D01*
X135181941Y-86832558D01*
X135120883Y-86868786D01*
X135089722Y-86872700D01*
X133599464Y-86872700D01*
X133531343Y-86852698D01*
X133484850Y-86799042D01*
X133474558Y-86742000D01*
X133473800Y-86742000D01*
X133473800Y-84911200D01*
X133469230Y-84868688D01*
X133457844Y-84816346D01*
X133455422Y-84806438D01*
X133413564Y-84727886D01*
X133367071Y-84674230D01*
X133349949Y-84656755D01*
X133272267Y-84613303D01*
X133238802Y-84603477D01*
X133208469Y-84594570D01*
X133208465Y-84594569D01*
X133204146Y-84593301D01*
X133199698Y-84592661D01*
X133199691Y-84592660D01*
X133152248Y-84585839D01*
X133152241Y-84585839D01*
X133147800Y-84585200D01*
X131722500Y-84585200D01*
X131654379Y-84565198D01*
X131607886Y-84511542D01*
X131596500Y-84459200D01*
X131596500Y-84333652D01*
X131590376Y-84302863D01*
X131587288Y-84287339D01*
X131587288Y-84287338D01*
X131584867Y-84275169D01*
X131540552Y-84208848D01*
X131474231Y-84164533D01*
X131462062Y-84162112D01*
X131462061Y-84162112D01*
X131421816Y-84154107D01*
X131415748Y-84152900D01*
X130376252Y-84152900D01*
X130370184Y-84154107D01*
X130329939Y-84162112D01*
X130329938Y-84162112D01*
X130317769Y-84164533D01*
X130251448Y-84208848D01*
X130207133Y-84275169D01*
X130204712Y-84287338D01*
X130204712Y-84287339D01*
X130201624Y-84302863D01*
X130195500Y-84333652D01*
X130195500Y-86746700D01*
X130175498Y-86814821D01*
X130121842Y-86861314D01*
X130069500Y-86872700D01*
X129722500Y-86872700D01*
X129654379Y-86852698D01*
X129607886Y-86799042D01*
X129596500Y-86746700D01*
X129596500Y-84788179D01*
X129616502Y-84720058D01*
X129633405Y-84699084D01*
X129781615Y-84550874D01*
X129789719Y-84543447D01*
X129810149Y-84526304D01*
X129818594Y-84519218D01*
X129827549Y-84503707D01*
X129837439Y-84486578D01*
X129843345Y-84477307D01*
X129858630Y-84455478D01*
X129864954Y-84446447D01*
X129867808Y-84435797D01*
X129869285Y-84432629D01*
X129870477Y-84429353D01*
X129875988Y-84419808D01*
X129882530Y-84382705D01*
X129884909Y-84371973D01*
X129894664Y-84335570D01*
X129891379Y-84298020D01*
X129890900Y-84287039D01*
X129890900Y-83678086D01*
X129910902Y-83609965D01*
X129940196Y-83578123D01*
X129987136Y-83542105D01*
X129993682Y-83537082D01*
X130089936Y-83411641D01*
X130150444Y-83265562D01*
X130171082Y-83108800D01*
X130150444Y-82952038D01*
X130089936Y-82805959D01*
X130006756Y-82697556D01*
X129998705Y-82687064D01*
X129993682Y-82680518D01*
X129868241Y-82584264D01*
X129722162Y-82523756D01*
X129565400Y-82503118D01*
X129408638Y-82523756D01*
X129262559Y-82584264D01*
X129137118Y-82680518D01*
X129132095Y-82687064D01*
X129124044Y-82697556D01*
X129040864Y-82805959D01*
X128980356Y-82952038D01*
X128959718Y-83108800D01*
X128980356Y-83265562D01*
X129040864Y-83411641D01*
X129137118Y-83537082D01*
X129143664Y-83542105D01*
X129190604Y-83578123D01*
X129232471Y-83635461D01*
X129239900Y-83678086D01*
X129239900Y-84026900D01*
X129219898Y-84095021D01*
X129166242Y-84141514D01*
X129113900Y-84152900D01*
X128376252Y-84152900D01*
X128370184Y-84154107D01*
X128329939Y-84162112D01*
X128329938Y-84162112D01*
X128317769Y-84164533D01*
X128251448Y-84208848D01*
X128207133Y-84275169D01*
X128204712Y-84287338D01*
X128204712Y-84287339D01*
X128201624Y-84302863D01*
X128195500Y-84333652D01*
X128195500Y-86746700D01*
X128175498Y-86814821D01*
X128121842Y-86861314D01*
X128069500Y-86872700D01*
X127722500Y-86872700D01*
X127654379Y-86852698D01*
X127607886Y-86799042D01*
X127596500Y-86746700D01*
X127596500Y-84333652D01*
X127590376Y-84302863D01*
X127587288Y-84287339D01*
X127587288Y-84287338D01*
X127584867Y-84275169D01*
X127540552Y-84208848D01*
X127474231Y-84164533D01*
X127462062Y-84162112D01*
X127462061Y-84162112D01*
X127421816Y-84154107D01*
X127415748Y-84152900D01*
X126536283Y-84152900D01*
X126468162Y-84132898D01*
X126421669Y-84079242D01*
X126411361Y-84043347D01*
X126409326Y-84027889D01*
X126408248Y-84019701D01*
X126347740Y-83873622D01*
X126251486Y-83748181D01*
X126126045Y-83651927D01*
X125979966Y-83591419D01*
X125823204Y-83570781D01*
X125666442Y-83591419D01*
X125520363Y-83651927D01*
X125394922Y-83748181D01*
X125298668Y-83873622D01*
X125238160Y-84019701D01*
X125237082Y-84027889D01*
X125235047Y-84043347D01*
X125206324Y-84108274D01*
X125147059Y-84147365D01*
X125110125Y-84152900D01*
X124376252Y-84152900D01*
X124370184Y-84154107D01*
X124329939Y-84162112D01*
X124329938Y-84162112D01*
X124317769Y-84164533D01*
X124251448Y-84208848D01*
X124207133Y-84275169D01*
X124204712Y-84287338D01*
X124204712Y-84287339D01*
X124201624Y-84302863D01*
X124195500Y-84333652D01*
X124195500Y-86873148D01*
X124207133Y-86931631D01*
X124251448Y-86997952D01*
X124317769Y-87042267D01*
X124329938Y-87044688D01*
X124329939Y-87044688D01*
X124370184Y-87052693D01*
X124376252Y-87053900D01*
X124491471Y-87053900D01*
X124559592Y-87073902D01*
X124605443Y-87126818D01*
X124606612Y-87133445D01*
X124612126Y-87142995D01*
X124613319Y-87146273D01*
X124614791Y-87149431D01*
X124617646Y-87160084D01*
X124623970Y-87169115D01*
X124639255Y-87190944D01*
X124645161Y-87200215D01*
X124658493Y-87223306D01*
X124664006Y-87232855D01*
X124692875Y-87257079D01*
X124700979Y-87264506D01*
X124711358Y-87274885D01*
X124745384Y-87337197D01*
X124740319Y-87408012D01*
X124697772Y-87464848D01*
X124631252Y-87489659D01*
X124622263Y-87489980D01*
X119347500Y-87489980D01*
X119279379Y-87469978D01*
X119232886Y-87416322D01*
X119221500Y-87363980D01*
X119221500Y-87179900D01*
X119241502Y-87111779D01*
X119295158Y-87065286D01*
X119347500Y-87053900D01*
X119415748Y-87053900D01*
X119421816Y-87052693D01*
X119462061Y-87044688D01*
X119462062Y-87044688D01*
X119474231Y-87042267D01*
X119540552Y-86997952D01*
X119584867Y-86931631D01*
X119596500Y-86873148D01*
X120195500Y-86873148D01*
X120207133Y-86931631D01*
X120251448Y-86997952D01*
X120317769Y-87042267D01*
X120329938Y-87044688D01*
X120329939Y-87044688D01*
X120370184Y-87052693D01*
X120376252Y-87053900D01*
X121415748Y-87053900D01*
X121421816Y-87052693D01*
X121462061Y-87044688D01*
X121462062Y-87044688D01*
X121474231Y-87042267D01*
X121540552Y-86997952D01*
X121584867Y-86931631D01*
X121596500Y-86873148D01*
X122195500Y-86873148D01*
X122207133Y-86931631D01*
X122251448Y-86997952D01*
X122317769Y-87042267D01*
X122329938Y-87044688D01*
X122329939Y-87044688D01*
X122370184Y-87052693D01*
X122376252Y-87053900D01*
X123415748Y-87053900D01*
X123421816Y-87052693D01*
X123462061Y-87044688D01*
X123462062Y-87044688D01*
X123474231Y-87042267D01*
X123540552Y-86997952D01*
X123584867Y-86931631D01*
X123596500Y-86873148D01*
X123596500Y-84333652D01*
X123590376Y-84302863D01*
X123587288Y-84287339D01*
X123587288Y-84287338D01*
X123584867Y-84275169D01*
X123540552Y-84208848D01*
X123474231Y-84164533D01*
X123462062Y-84162112D01*
X123462061Y-84162112D01*
X123421816Y-84154107D01*
X123415748Y-84152900D01*
X122376252Y-84152900D01*
X122370184Y-84154107D01*
X122329939Y-84162112D01*
X122329938Y-84162112D01*
X122317769Y-84164533D01*
X122251448Y-84208848D01*
X122207133Y-84275169D01*
X122204712Y-84287338D01*
X122204712Y-84287339D01*
X122201624Y-84302863D01*
X122195500Y-84333652D01*
X122195500Y-86873148D01*
X121596500Y-86873148D01*
X121596500Y-84333652D01*
X121590376Y-84302863D01*
X121587288Y-84287339D01*
X121587288Y-84287338D01*
X121584867Y-84275169D01*
X121540552Y-84208848D01*
X121474231Y-84164533D01*
X121462062Y-84162112D01*
X121462061Y-84162112D01*
X121421816Y-84154107D01*
X121415748Y-84152900D01*
X120376252Y-84152900D01*
X120370184Y-84154107D01*
X120329939Y-84162112D01*
X120329938Y-84162112D01*
X120317769Y-84164533D01*
X120251448Y-84208848D01*
X120207133Y-84275169D01*
X120204712Y-84287338D01*
X120204712Y-84287339D01*
X120201624Y-84302863D01*
X120195500Y-84333652D01*
X120195500Y-86873148D01*
X119596500Y-86873148D01*
X119596500Y-84333652D01*
X119590376Y-84302863D01*
X119587288Y-84287339D01*
X119587288Y-84287338D01*
X119584867Y-84275169D01*
X119540552Y-84208848D01*
X119474231Y-84164533D01*
X119462062Y-84162112D01*
X119462061Y-84162112D01*
X119421816Y-84154107D01*
X119415748Y-84152900D01*
X118376252Y-84152900D01*
X118370184Y-84154107D01*
X118329939Y-84162112D01*
X118329938Y-84162112D01*
X118317769Y-84164533D01*
X118251448Y-84208848D01*
X118207133Y-84275169D01*
X118204712Y-84287338D01*
X118204712Y-84287339D01*
X118201624Y-84302863D01*
X118195500Y-84333652D01*
X118195500Y-86873148D01*
X118207133Y-86931631D01*
X118251448Y-86997952D01*
X118317769Y-87042267D01*
X118329938Y-87044688D01*
X118329939Y-87044688D01*
X118370184Y-87052693D01*
X118376252Y-87053900D01*
X118444500Y-87053900D01*
X118512621Y-87073902D01*
X118559114Y-87127558D01*
X118570500Y-87179900D01*
X118570500Y-87591170D01*
X118570020Y-87602152D01*
X118568155Y-87623474D01*
X118566736Y-87639687D01*
X118576491Y-87676090D01*
X118578870Y-87686822D01*
X118585412Y-87723925D01*
X118590923Y-87733471D01*
X118592117Y-87736751D01*
X118593593Y-87739916D01*
X118596446Y-87750564D01*
X118602768Y-87759592D01*
X118603075Y-87760251D01*
X118613736Y-87830443D01*
X118584755Y-87895256D01*
X118525335Y-87934111D01*
X118488880Y-87939500D01*
X117342300Y-87939500D01*
X117274179Y-87919498D01*
X117227686Y-87865842D01*
X117216300Y-87813500D01*
X117216300Y-87179900D01*
X117236302Y-87111779D01*
X117289958Y-87065286D01*
X117342300Y-87053900D01*
X117415748Y-87053900D01*
X117421816Y-87052693D01*
X117462061Y-87044688D01*
X117462062Y-87044688D01*
X117474231Y-87042267D01*
X117540552Y-86997952D01*
X117584867Y-86931631D01*
X117596500Y-86873148D01*
X117596500Y-84333652D01*
X117590376Y-84302863D01*
X117587288Y-84287339D01*
X117587288Y-84287338D01*
X117584867Y-84275169D01*
X117540552Y-84208848D01*
X117474231Y-84164533D01*
X117462062Y-84162112D01*
X117462061Y-84162112D01*
X117421816Y-84154107D01*
X117415748Y-84152900D01*
X116376252Y-84152900D01*
X116370184Y-84154107D01*
X116329939Y-84162112D01*
X116329938Y-84162112D01*
X116317769Y-84164533D01*
X116251448Y-84208848D01*
X116244557Y-84219161D01*
X116229365Y-84241897D01*
X116174887Y-84287424D01*
X116104444Y-84296271D01*
X116040400Y-84265630D01*
X116003089Y-84205228D01*
X115998600Y-84171894D01*
X115998600Y-80034716D01*
X116018602Y-79966595D01*
X116072258Y-79920102D01*
X116142532Y-79909998D01*
X116207112Y-79939492D01*
X116213695Y-79945621D01*
X116291089Y-80023015D01*
X116298516Y-80031119D01*
X116322745Y-80059994D01*
X116332294Y-80065507D01*
X116355385Y-80078839D01*
X116364656Y-80084745D01*
X116395516Y-80106354D01*
X116406167Y-80109208D01*
X116409340Y-80110688D01*
X116412612Y-80111879D01*
X116422155Y-80117388D01*
X116459276Y-80123934D01*
X116469983Y-80126308D01*
X116506393Y-80136063D01*
X116517368Y-80135103D01*
X116517370Y-80135103D01*
X116543931Y-80132779D01*
X116554912Y-80132300D01*
X125016967Y-80132300D01*
X125049573Y-80136593D01*
X125067930Y-80141511D01*
X125078384Y-80144807D01*
X125113806Y-80157700D01*
X125124831Y-80157700D01*
X125128267Y-80158306D01*
X125131742Y-80158610D01*
X125142393Y-80161464D01*
X125153379Y-80160503D01*
X125153381Y-80160503D01*
X125179928Y-80158180D01*
X125190910Y-80157700D01*
X125228594Y-80157700D01*
X125238956Y-80153928D01*
X125242405Y-80153320D01*
X125245767Y-80152419D01*
X125256745Y-80151459D01*
X125288626Y-80136593D01*
X125290897Y-80135534D01*
X125301051Y-80131328D01*
X125326100Y-80122211D01*
X125326101Y-80122210D01*
X125336460Y-80118440D01*
X125344906Y-80111352D01*
X125345231Y-80111165D01*
X125391787Y-80095361D01*
X125454962Y-80087044D01*
X125601041Y-80026536D01*
X125691348Y-79957241D01*
X125719936Y-79935305D01*
X125726482Y-79930282D01*
X125822736Y-79804841D01*
X125883244Y-79658762D01*
X125903882Y-79502000D01*
X125883244Y-79345238D01*
X125822736Y-79199159D01*
X125726482Y-79073718D01*
X125719393Y-79068278D01*
X125654486Y-79018474D01*
X125601041Y-78977464D01*
X125454962Y-78916956D01*
X125298200Y-78896318D01*
X125141438Y-78916956D01*
X124995359Y-78977464D01*
X124941914Y-79018474D01*
X124877008Y-79068278D01*
X124869918Y-79073718D01*
X124773664Y-79199159D01*
X124713156Y-79345238D01*
X124712078Y-79353426D01*
X124709666Y-79371747D01*
X124680943Y-79436674D01*
X124621678Y-79475765D01*
X124584744Y-79481300D01*
X124335133Y-79481300D01*
X124267012Y-79461298D01*
X124220519Y-79407642D01*
X124210415Y-79337368D01*
X124239762Y-79273109D01*
X124240655Y-79272594D01*
X124264885Y-79243717D01*
X124272311Y-79235615D01*
X129095815Y-74412111D01*
X129103919Y-74404684D01*
X129124349Y-74387541D01*
X129132794Y-74380455D01*
X129140316Y-74367426D01*
X129151639Y-74347815D01*
X129157545Y-74338544D01*
X129172830Y-74316715D01*
X129179154Y-74307684D01*
X129182008Y-74297034D01*
X129183485Y-74293866D01*
X129184677Y-74290590D01*
X129190188Y-74281045D01*
X129196730Y-74243942D01*
X129199109Y-74233210D01*
X129208864Y-74196807D01*
X129205579Y-74159257D01*
X129205100Y-74148276D01*
X129205100Y-71979900D01*
X129225102Y-71911779D01*
X129278758Y-71865286D01*
X129331100Y-71853900D01*
X129415748Y-71853900D01*
X129421816Y-71852693D01*
X129462061Y-71844688D01*
X129462062Y-71844688D01*
X129474231Y-71842267D01*
X129540552Y-71797952D01*
X129584867Y-71731631D01*
X129591543Y-71698069D01*
X129888001Y-71698069D01*
X129888371Y-71704890D01*
X129893895Y-71755752D01*
X129897521Y-71771004D01*
X129942676Y-71891454D01*
X129951214Y-71907049D01*
X130027715Y-72009124D01*
X130040276Y-72021685D01*
X130142351Y-72098186D01*
X130157946Y-72106724D01*
X130278394Y-72151878D01*
X130293649Y-72155505D01*
X130344514Y-72161031D01*
X130351328Y-72161400D01*
X130623885Y-72161400D01*
X130639124Y-72156925D01*
X130640329Y-72155535D01*
X130642000Y-72147852D01*
X130642000Y-72143284D01*
X131150000Y-72143284D01*
X131154475Y-72158523D01*
X131155865Y-72159728D01*
X131163548Y-72161399D01*
X131440669Y-72161399D01*
X131447490Y-72161029D01*
X131498352Y-72155505D01*
X131513604Y-72151879D01*
X131634054Y-72106724D01*
X131649649Y-72098186D01*
X131751724Y-72021685D01*
X131764285Y-72009124D01*
X131840786Y-71907049D01*
X131849324Y-71891454D01*
X131894478Y-71771006D01*
X131898105Y-71755751D01*
X131903631Y-71704886D01*
X131904000Y-71698072D01*
X131904000Y-71092736D01*
X131924002Y-71024615D01*
X131977658Y-70978122D01*
X132033761Y-70969714D01*
X132033761Y-70967231D01*
X132042019Y-70967231D01*
X132050207Y-70968309D01*
X132058395Y-70967231D01*
X132198781Y-70948749D01*
X132206969Y-70947671D01*
X132353048Y-70887163D01*
X132478489Y-70790909D01*
X132519530Y-70737423D01*
X132576868Y-70695556D01*
X132619493Y-70688127D01*
X133442500Y-70688127D01*
X133510621Y-70708129D01*
X133557114Y-70761785D01*
X133568500Y-70814127D01*
X133568500Y-73754586D01*
X133548498Y-73822707D01*
X133494842Y-73869200D01*
X133486111Y-73872797D01*
X133374957Y-73913804D01*
X133185341Y-74026614D01*
X133019457Y-74172090D01*
X132882863Y-74345360D01*
X132780131Y-74540620D01*
X132714703Y-74751333D01*
X132688770Y-74970440D01*
X132703200Y-75190604D01*
X132704621Y-75196200D01*
X132704622Y-75196205D01*
X132754715Y-75393443D01*
X132757511Y-75404452D01*
X132759928Y-75409694D01*
X132759928Y-75409695D01*
X132798046Y-75492379D01*
X132849883Y-75604821D01*
X132977222Y-75785002D01*
X133135264Y-75938961D01*
X133140060Y-75942166D01*
X133140063Y-75942168D01*
X133224255Y-75998423D01*
X133318717Y-76061540D01*
X133324020Y-76063818D01*
X133324023Y-76063820D01*
X133438537Y-76113019D01*
X133517639Y-76147004D01*
X133572331Y-76192271D01*
X133593900Y-76262771D01*
X133593900Y-80245215D01*
X133573898Y-80313336D01*
X133520242Y-80359829D01*
X133511510Y-80363427D01*
X133380376Y-80411804D01*
X133380368Y-80411808D01*
X133374957Y-80413804D01*
X133369996Y-80416756D01*
X133369995Y-80416756D01*
X133311919Y-80451308D01*
X133185341Y-80526614D01*
X133019457Y-80672090D01*
X132882863Y-80845360D01*
X132780131Y-81040620D01*
X132714703Y-81251333D01*
X132688770Y-81470440D01*
X132703200Y-81690604D01*
X132704621Y-81696200D01*
X132704622Y-81696205D01*
X132730213Y-81796966D01*
X132757511Y-81904452D01*
X132759928Y-81909694D01*
X132759928Y-81909695D01*
X132798046Y-81992379D01*
X132849883Y-82104821D01*
X132977222Y-82285002D01*
X133135264Y-82438961D01*
X133140060Y-82442166D01*
X133140063Y-82442168D01*
X133231282Y-82503118D01*
X133318717Y-82561540D01*
X133324020Y-82563818D01*
X133324023Y-82563820D01*
X133505797Y-82641916D01*
X133521436Y-82648635D01*
X133601088Y-82666658D01*
X133730995Y-82696054D01*
X133731001Y-82696055D01*
X133736632Y-82697329D01*
X133742403Y-82697556D01*
X133742405Y-82697556D01*
X133810211Y-82700220D01*
X133957098Y-82705991D01*
X134087635Y-82687064D01*
X134169738Y-82675160D01*
X134169743Y-82675159D01*
X134175452Y-82674331D01*
X134180916Y-82672476D01*
X134180921Y-82672475D01*
X134378907Y-82605268D01*
X134378912Y-82605266D01*
X134384379Y-82603410D01*
X134409591Y-82589291D01*
X134528536Y-82522678D01*
X134576884Y-82495602D01*
X134672821Y-82415812D01*
X134742086Y-82358204D01*
X134746518Y-82354518D01*
X134887602Y-82184884D01*
X134995410Y-81992379D01*
X134997266Y-81986912D01*
X134997268Y-81986907D01*
X135064475Y-81788921D01*
X135064476Y-81788916D01*
X135066331Y-81783452D01*
X135067159Y-81777743D01*
X135067160Y-81777738D01*
X135097458Y-81568772D01*
X135097991Y-81565098D01*
X135099643Y-81502000D01*
X135079454Y-81282289D01*
X135077399Y-81275000D01*
X135021134Y-81075500D01*
X135019565Y-81069936D01*
X134921980Y-80872053D01*
X134835311Y-80755989D01*
X134793420Y-80699891D01*
X134793420Y-80699890D01*
X134789967Y-80695267D01*
X134627949Y-80545499D01*
X134441350Y-80427764D01*
X134401346Y-80411804D01*
X134324210Y-80381030D01*
X134268351Y-80337209D01*
X134244900Y-80264000D01*
X134244900Y-76241047D01*
X134264902Y-76172926D01*
X134318558Y-76126433D01*
X134330399Y-76121734D01*
X134378908Y-76105268D01*
X134378916Y-76105264D01*
X134384379Y-76103410D01*
X134576884Y-75995602D01*
X134746518Y-75854518D01*
X134866734Y-75709975D01*
X134883908Y-75689326D01*
X134883910Y-75689323D01*
X134887602Y-75684884D01*
X134995410Y-75492379D01*
X134997266Y-75486912D01*
X134997268Y-75486907D01*
X135064475Y-75288921D01*
X135064476Y-75288916D01*
X135066331Y-75283452D01*
X135067159Y-75277743D01*
X135067160Y-75277738D01*
X135097458Y-75068772D01*
X135097991Y-75065098D01*
X135099643Y-75002000D01*
X135079454Y-74782289D01*
X135019565Y-74569936D01*
X134921980Y-74372053D01*
X134822270Y-74238525D01*
X134793420Y-74199891D01*
X134793420Y-74199890D01*
X134789967Y-74195267D01*
X134692586Y-74105249D01*
X134632189Y-74049418D01*
X134632186Y-74049416D01*
X134627949Y-74045499D01*
X134441350Y-73927764D01*
X134298809Y-73870896D01*
X134242951Y-73827077D01*
X134219500Y-73753867D01*
X134219500Y-72574634D01*
X144300300Y-72574634D01*
X144303281Y-72606169D01*
X144348166Y-72733984D01*
X144353758Y-72741554D01*
X144353759Y-72741557D01*
X144378728Y-72775362D01*
X144428650Y-72842950D01*
X144436221Y-72848542D01*
X144530043Y-72917841D01*
X144530046Y-72917842D01*
X144537616Y-72923434D01*
X144665431Y-72968319D01*
X144673077Y-72969042D01*
X144673078Y-72969042D01*
X144679048Y-72969606D01*
X144696966Y-72971300D01*
X146054634Y-72971300D01*
X146072552Y-72969606D01*
X146078522Y-72969042D01*
X146078523Y-72969042D01*
X146086169Y-72968319D01*
X146213984Y-72923434D01*
X146221554Y-72917842D01*
X146221557Y-72917841D01*
X146315379Y-72848542D01*
X146322950Y-72842950D01*
X146372872Y-72775362D01*
X146397841Y-72741557D01*
X146397842Y-72741554D01*
X146403434Y-72733984D01*
X146448319Y-72606169D01*
X146451300Y-72574634D01*
X146451300Y-71766966D01*
X146448319Y-71735431D01*
X146403434Y-71607616D01*
X146397842Y-71600046D01*
X146397841Y-71600043D01*
X146328542Y-71506221D01*
X146322950Y-71498650D01*
X146306006Y-71486135D01*
X146221557Y-71423759D01*
X146221554Y-71423758D01*
X146213984Y-71418166D01*
X146086169Y-71373281D01*
X146078523Y-71372558D01*
X146078522Y-71372558D01*
X146072552Y-71371994D01*
X146054634Y-71370300D01*
X144696966Y-71370300D01*
X144679048Y-71371994D01*
X144673078Y-71372558D01*
X144673077Y-71372558D01*
X144665431Y-71373281D01*
X144537616Y-71418166D01*
X144530046Y-71423758D01*
X144530043Y-71423759D01*
X144445594Y-71486135D01*
X144428650Y-71498650D01*
X144423058Y-71506221D01*
X144353759Y-71600043D01*
X144353758Y-71600046D01*
X144348166Y-71607616D01*
X144303281Y-71735431D01*
X144300300Y-71766966D01*
X144300300Y-72574634D01*
X134219500Y-72574634D01*
X134219500Y-70566113D01*
X134219979Y-70555132D01*
X134222303Y-70528570D01*
X134222303Y-70528568D01*
X134223263Y-70517593D01*
X134213508Y-70481183D01*
X134211133Y-70470472D01*
X134206501Y-70444206D01*
X134204588Y-70433355D01*
X134199078Y-70423811D01*
X134197886Y-70420535D01*
X134196407Y-70417364D01*
X134193554Y-70406716D01*
X134171940Y-70375848D01*
X134166036Y-70366579D01*
X134152707Y-70343492D01*
X134152704Y-70343488D01*
X134147194Y-70333945D01*
X134118330Y-70309725D01*
X134110227Y-70302300D01*
X133973102Y-70165176D01*
X144295255Y-70165176D01*
X144295991Y-70172179D01*
X144295991Y-70172180D01*
X144310076Y-70306189D01*
X144314027Y-70343783D01*
X144316298Y-70350454D01*
X144369574Y-70506951D01*
X144371903Y-70513793D01*
X144375593Y-70519791D01*
X144375594Y-70519793D01*
X144418955Y-70590274D01*
X144466006Y-70666755D01*
X144470932Y-70671786D01*
X144470935Y-70671789D01*
X144494210Y-70695556D01*
X144591659Y-70795068D01*
X144597584Y-70798887D01*
X144597586Y-70798888D01*
X144726762Y-70882136D01*
X144742617Y-70892354D01*
X144749237Y-70894763D01*
X144749240Y-70894765D01*
X144904761Y-70951370D01*
X144904764Y-70951371D01*
X144911378Y-70953778D01*
X144937921Y-70957131D01*
X145046155Y-70970804D01*
X145046158Y-70970804D01*
X145050083Y-70971300D01*
X145695955Y-70971300D01*
X145829272Y-70956346D01*
X145836647Y-70953778D01*
X145961358Y-70910349D01*
X145998873Y-70897285D01*
X146006765Y-70892354D01*
X146145201Y-70805849D01*
X146151175Y-70802116D01*
X146245820Y-70708129D01*
X146273610Y-70680533D01*
X146273613Y-70680529D01*
X146278607Y-70675570D01*
X146374837Y-70523936D01*
X146403228Y-70444206D01*
X146432719Y-70361386D01*
X146432720Y-70361381D01*
X146435081Y-70354751D01*
X146435914Y-70347765D01*
X146435915Y-70347761D01*
X146455511Y-70183417D01*
X146456345Y-70176424D01*
X146453329Y-70147729D01*
X146438310Y-70004825D01*
X146438309Y-70004821D01*
X146437573Y-69997817D01*
X146416210Y-69935064D01*
X146381968Y-69834477D01*
X146381967Y-69834474D01*
X146379697Y-69827807D01*
X146285594Y-69674845D01*
X146280668Y-69669814D01*
X146280665Y-69669811D01*
X146219824Y-69607683D01*
X146159941Y-69546532D01*
X146143213Y-69535751D01*
X146014909Y-69453065D01*
X146008983Y-69449246D01*
X146002363Y-69446837D01*
X146002360Y-69446835D01*
X145846839Y-69390230D01*
X145846836Y-69390229D01*
X145840222Y-69387822D01*
X145783492Y-69380656D01*
X145705445Y-69370796D01*
X145705442Y-69370796D01*
X145701517Y-69370300D01*
X145055645Y-69370300D01*
X144922328Y-69385254D01*
X144915675Y-69387571D01*
X144915674Y-69387571D01*
X144847349Y-69411364D01*
X144752727Y-69444315D01*
X144746753Y-69448048D01*
X144746751Y-69448049D01*
X144738724Y-69453065D01*
X144600425Y-69539484D01*
X144536435Y-69603029D01*
X144477990Y-69661067D01*
X144477987Y-69661071D01*
X144472993Y-69666030D01*
X144376763Y-69817664D01*
X144374398Y-69824306D01*
X144318881Y-69980214D01*
X144318880Y-69980219D01*
X144316519Y-69986849D01*
X144315686Y-69993835D01*
X144315685Y-69993839D01*
X144307946Y-70058742D01*
X144295255Y-70165176D01*
X133973102Y-70165176D01*
X133954331Y-70146405D01*
X133946904Y-70138300D01*
X133929768Y-70117878D01*
X133922682Y-70109433D01*
X133913133Y-70103920D01*
X133890042Y-70090588D01*
X133880771Y-70084682D01*
X133858942Y-70069397D01*
X133849911Y-70063073D01*
X133839261Y-70060219D01*
X133836093Y-70058742D01*
X133832817Y-70057550D01*
X133823272Y-70052039D01*
X133789528Y-70046089D01*
X133786169Y-70045497D01*
X133775442Y-70043119D01*
X133739034Y-70033363D01*
X133728049Y-70034324D01*
X133728047Y-70034324D01*
X133701499Y-70036647D01*
X133690517Y-70037127D01*
X132619493Y-70037127D01*
X132551372Y-70017125D01*
X132519530Y-69987831D01*
X132518777Y-69986849D01*
X132478489Y-69934345D01*
X132353048Y-69838091D01*
X132206969Y-69777583D01*
X132050207Y-69756945D01*
X132042019Y-69758023D01*
X132033760Y-69758023D01*
X132033760Y-69755463D01*
X131976292Y-69746499D01*
X131923195Y-69699369D01*
X131903999Y-69632518D01*
X131903999Y-69108731D01*
X131903629Y-69101910D01*
X131898105Y-69051048D01*
X131894479Y-69035796D01*
X131849324Y-68915346D01*
X131840786Y-68899751D01*
X131764285Y-68797676D01*
X131751724Y-68785115D01*
X131649649Y-68708614D01*
X131634054Y-68700076D01*
X131513606Y-68654922D01*
X131498351Y-68651295D01*
X131447486Y-68645769D01*
X131440672Y-68645400D01*
X131168115Y-68645400D01*
X131152876Y-68649875D01*
X131151671Y-68651265D01*
X131150000Y-68658948D01*
X131150000Y-72143284D01*
X130642000Y-72143284D01*
X130642000Y-70675515D01*
X130637525Y-70660276D01*
X130636135Y-70659071D01*
X130628452Y-70657400D01*
X129906116Y-70657400D01*
X129890877Y-70661875D01*
X129889672Y-70663265D01*
X129888001Y-70670948D01*
X129888001Y-71698069D01*
X129591543Y-71698069D01*
X129596500Y-71673148D01*
X129596500Y-70131285D01*
X129888000Y-70131285D01*
X129892475Y-70146524D01*
X129893865Y-70147729D01*
X129901548Y-70149400D01*
X130623885Y-70149400D01*
X130639124Y-70144925D01*
X130640329Y-70143535D01*
X130642000Y-70135852D01*
X130642000Y-68663516D01*
X130637525Y-68648277D01*
X130636135Y-68647072D01*
X130628452Y-68645401D01*
X130351331Y-68645401D01*
X130344510Y-68645771D01*
X130293648Y-68651295D01*
X130278396Y-68654921D01*
X130157946Y-68700076D01*
X130142351Y-68708614D01*
X130040276Y-68785115D01*
X130027715Y-68797676D01*
X129951214Y-68899751D01*
X129942676Y-68915346D01*
X129897522Y-69035794D01*
X129893895Y-69051049D01*
X129888369Y-69101914D01*
X129888000Y-69108728D01*
X129888000Y-70131285D01*
X129596500Y-70131285D01*
X129596500Y-69133652D01*
X129590186Y-69101910D01*
X129587288Y-69087339D01*
X129587288Y-69087338D01*
X129584867Y-69075169D01*
X129577033Y-69063444D01*
X129547443Y-69019161D01*
X129540552Y-69008848D01*
X129474231Y-68964533D01*
X129462062Y-68962112D01*
X129462061Y-68962112D01*
X129421816Y-68954107D01*
X129415748Y-68952900D01*
X128376252Y-68952900D01*
X128370184Y-68954107D01*
X128329939Y-68962112D01*
X128329938Y-68962112D01*
X128317769Y-68964533D01*
X128251448Y-69008848D01*
X128244557Y-69019161D01*
X128214968Y-69063444D01*
X128207133Y-69075169D01*
X128204712Y-69087338D01*
X128204712Y-69087339D01*
X128201814Y-69101910D01*
X128195500Y-69133652D01*
X128195500Y-71673148D01*
X128207133Y-71731631D01*
X128251448Y-71797952D01*
X128317769Y-71842267D01*
X128329938Y-71844688D01*
X128329939Y-71844688D01*
X128370184Y-71852693D01*
X128376252Y-71853900D01*
X128428100Y-71853900D01*
X128496221Y-71873902D01*
X128542714Y-71927558D01*
X128554100Y-71979900D01*
X128554100Y-73980984D01*
X128534098Y-74049105D01*
X128517195Y-74070079D01*
X123930279Y-78656995D01*
X123867967Y-78691021D01*
X123841184Y-78693900D01*
X118679286Y-78693900D01*
X118611165Y-78673898D01*
X118579323Y-78644604D01*
X118543305Y-78597664D01*
X118538282Y-78591118D01*
X118412841Y-78494864D01*
X118266762Y-78434356D01*
X118110000Y-78413718D01*
X117953238Y-78434356D01*
X117807159Y-78494864D01*
X117681718Y-78591118D01*
X117585464Y-78716559D01*
X117524956Y-78862638D01*
X117504318Y-79019400D01*
X117524956Y-79176162D01*
X117528116Y-79183791D01*
X117579185Y-79307082D01*
X117586774Y-79377672D01*
X117554995Y-79441159D01*
X117493937Y-79477386D01*
X117462776Y-79481300D01*
X116834300Y-79481300D01*
X116766179Y-79461298D01*
X116719686Y-79407642D01*
X116708300Y-79355300D01*
X116708300Y-72739900D01*
X116728302Y-72671779D01*
X116781958Y-72625286D01*
X116834300Y-72613900D01*
X122506090Y-72613900D01*
X122517072Y-72614380D01*
X122543620Y-72616703D01*
X122543622Y-72616703D01*
X122554607Y-72617664D01*
X122591015Y-72607908D01*
X122601742Y-72605530D01*
X122605101Y-72604938D01*
X122638845Y-72598988D01*
X122648390Y-72593477D01*
X122651666Y-72592285D01*
X122654834Y-72590808D01*
X122665484Y-72587954D01*
X122696344Y-72566345D01*
X122705615Y-72560439D01*
X122728706Y-72547107D01*
X122738255Y-72541594D01*
X122762485Y-72512717D01*
X122769911Y-72504615D01*
X123112215Y-72162311D01*
X123120319Y-72154884D01*
X123140749Y-72137741D01*
X123149194Y-72130655D01*
X123154707Y-72121106D01*
X123168039Y-72098015D01*
X123173945Y-72088744D01*
X123178901Y-72081666D01*
X123195554Y-72057884D01*
X123198408Y-72047234D01*
X123199885Y-72044066D01*
X123201077Y-72040790D01*
X123206588Y-72031245D01*
X123212538Y-71997501D01*
X123213130Y-71994142D01*
X123215509Y-71983410D01*
X123217009Y-71977812D01*
X123225189Y-71947286D01*
X123262140Y-71886666D01*
X123326001Y-71855644D01*
X123346895Y-71853900D01*
X123415748Y-71853900D01*
X123421816Y-71852693D01*
X123462061Y-71844688D01*
X123462062Y-71844688D01*
X123474231Y-71842267D01*
X123540552Y-71797952D01*
X123584867Y-71731631D01*
X123596500Y-71673148D01*
X124195500Y-71673148D01*
X124207133Y-71731631D01*
X124251448Y-71797952D01*
X124317769Y-71842267D01*
X124329938Y-71844688D01*
X124329939Y-71844688D01*
X124370184Y-71852693D01*
X124376252Y-71853900D01*
X125415748Y-71853900D01*
X125421816Y-71852693D01*
X125462061Y-71844688D01*
X125462062Y-71844688D01*
X125474231Y-71842267D01*
X125540552Y-71797952D01*
X125584867Y-71731631D01*
X125596500Y-71673148D01*
X126195500Y-71673148D01*
X126207133Y-71731631D01*
X126251448Y-71797952D01*
X126317769Y-71842267D01*
X126329938Y-71844688D01*
X126329939Y-71844688D01*
X126370184Y-71852693D01*
X126376252Y-71853900D01*
X126441765Y-71853900D01*
X126509886Y-71873902D01*
X126556379Y-71927558D01*
X126567286Y-71968919D01*
X126567697Y-71973620D01*
X126566736Y-71984607D01*
X126574509Y-72013613D01*
X126576491Y-72021010D01*
X126578870Y-72031742D01*
X126585412Y-72068845D01*
X126590923Y-72078390D01*
X126592115Y-72081666D01*
X126593592Y-72084834D01*
X126596446Y-72095484D01*
X126602770Y-72104515D01*
X126618055Y-72126344D01*
X126623961Y-72135615D01*
X126635086Y-72154884D01*
X126642806Y-72168255D01*
X126671682Y-72192485D01*
X126679785Y-72199911D01*
X126926091Y-72446217D01*
X126960117Y-72508529D01*
X126961918Y-72551757D01*
X126953118Y-72618600D01*
X126954196Y-72626788D01*
X126969306Y-72741557D01*
X126973756Y-72775362D01*
X127034264Y-72921441D01*
X127130518Y-73046882D01*
X127255959Y-73143136D01*
X127402038Y-73203644D01*
X127558800Y-73224282D01*
X127566988Y-73223204D01*
X127707374Y-73204722D01*
X127715562Y-73203644D01*
X127861641Y-73143136D01*
X127987082Y-73046882D01*
X128083336Y-72921441D01*
X128143844Y-72775362D01*
X128148295Y-72741557D01*
X128163404Y-72626788D01*
X128164482Y-72618600D01*
X128143844Y-72461838D01*
X128083336Y-72315759D01*
X127987082Y-72190318D01*
X127978334Y-72183605D01*
X127868192Y-72099091D01*
X127861641Y-72094064D01*
X127715562Y-72033556D01*
X127707374Y-72032478D01*
X127603009Y-72018738D01*
X127538082Y-71990015D01*
X127498991Y-71930750D01*
X127498146Y-71859759D01*
X127530322Y-71804788D01*
X127540552Y-71797952D01*
X127584867Y-71731631D01*
X127596500Y-71673148D01*
X127596500Y-69133652D01*
X127590186Y-69101910D01*
X127587288Y-69087339D01*
X127587288Y-69087338D01*
X127584867Y-69075169D01*
X127577033Y-69063444D01*
X127547443Y-69019161D01*
X127540552Y-69008848D01*
X127474231Y-68964533D01*
X127462062Y-68962112D01*
X127462061Y-68962112D01*
X127421816Y-68954107D01*
X127415748Y-68952900D01*
X126376252Y-68952900D01*
X126370184Y-68954107D01*
X126329939Y-68962112D01*
X126329938Y-68962112D01*
X126317769Y-68964533D01*
X126251448Y-69008848D01*
X126244557Y-69019161D01*
X126214968Y-69063444D01*
X126207133Y-69075169D01*
X126204712Y-69087338D01*
X126204712Y-69087339D01*
X126201814Y-69101910D01*
X126195500Y-69133652D01*
X126195500Y-71673148D01*
X125596500Y-71673148D01*
X125596500Y-69133652D01*
X125590186Y-69101910D01*
X125587288Y-69087339D01*
X125587288Y-69087338D01*
X125584867Y-69075169D01*
X125577033Y-69063444D01*
X125547443Y-69019161D01*
X125540552Y-69008848D01*
X125474231Y-68964533D01*
X125462062Y-68962112D01*
X125462061Y-68962112D01*
X125421816Y-68954107D01*
X125415748Y-68952900D01*
X124376252Y-68952900D01*
X124370184Y-68954107D01*
X124329939Y-68962112D01*
X124329938Y-68962112D01*
X124317769Y-68964533D01*
X124251448Y-69008848D01*
X124244557Y-69019161D01*
X124214968Y-69063444D01*
X124207133Y-69075169D01*
X124204712Y-69087338D01*
X124204712Y-69087339D01*
X124201814Y-69101910D01*
X124195500Y-69133652D01*
X124195500Y-71673148D01*
X123596500Y-71673148D01*
X123596500Y-69133652D01*
X123590186Y-69101910D01*
X123587288Y-69087339D01*
X123587288Y-69087338D01*
X123584867Y-69075169D01*
X123577033Y-69063444D01*
X123547443Y-69019161D01*
X123540552Y-69008848D01*
X123474231Y-68964533D01*
X123462062Y-68962112D01*
X123462061Y-68962112D01*
X123421816Y-68954107D01*
X123415748Y-68952900D01*
X122376252Y-68952900D01*
X122370184Y-68954107D01*
X122329939Y-68962112D01*
X122329938Y-68962112D01*
X122317769Y-68964533D01*
X122251448Y-69008848D01*
X122244557Y-69019161D01*
X122214968Y-69063444D01*
X122207133Y-69075169D01*
X122204712Y-69087338D01*
X122204712Y-69087339D01*
X122201814Y-69101910D01*
X122195500Y-69133652D01*
X122195500Y-71673148D01*
X122207133Y-71731631D01*
X122214025Y-71741946D01*
X122214027Y-71741950D01*
X122230697Y-71766898D01*
X122251912Y-71834651D01*
X122233129Y-71903118D01*
X122180312Y-71950561D01*
X122125932Y-71962900D01*
X121666068Y-71962900D01*
X121597947Y-71942898D01*
X121551454Y-71889242D01*
X121541350Y-71818968D01*
X121561303Y-71766898D01*
X121577973Y-71741950D01*
X121577975Y-71741946D01*
X121584867Y-71731631D01*
X121596500Y-71673148D01*
X121596500Y-69133652D01*
X121590186Y-69101910D01*
X121587288Y-69087339D01*
X121587288Y-69087338D01*
X121584867Y-69075169D01*
X121577033Y-69063444D01*
X121547443Y-69019161D01*
X121540552Y-69008848D01*
X121474231Y-68964533D01*
X121462062Y-68962112D01*
X121462061Y-68962112D01*
X121421816Y-68954107D01*
X121415748Y-68952900D01*
X120376252Y-68952900D01*
X120370184Y-68954107D01*
X120329939Y-68962112D01*
X120329938Y-68962112D01*
X120317769Y-68964533D01*
X120251448Y-69008848D01*
X120244557Y-69019161D01*
X120214968Y-69063444D01*
X120207133Y-69075169D01*
X120204712Y-69087338D01*
X120204712Y-69087339D01*
X120201814Y-69101910D01*
X120195500Y-69133652D01*
X120195500Y-69736573D01*
X120175498Y-69804694D01*
X120121842Y-69851187D01*
X120053054Y-69861495D01*
X119995502Y-69853918D01*
X119838740Y-69874556D01*
X119770717Y-69902732D01*
X119700129Y-69910321D01*
X119636642Y-69878542D01*
X119600414Y-69817484D01*
X119596500Y-69786323D01*
X119596500Y-69133652D01*
X119590186Y-69101910D01*
X119587288Y-69087339D01*
X119587288Y-69087338D01*
X119584867Y-69075169D01*
X119577033Y-69063444D01*
X119547443Y-69019161D01*
X119540552Y-69008848D01*
X119474231Y-68964533D01*
X119462062Y-68962112D01*
X119462061Y-68962112D01*
X119421816Y-68954107D01*
X119415748Y-68952900D01*
X118376252Y-68952900D01*
X118370184Y-68954107D01*
X118329939Y-68962112D01*
X118329938Y-68962112D01*
X118317769Y-68964533D01*
X118251448Y-69008848D01*
X118244557Y-69019161D01*
X118214968Y-69063444D01*
X118207133Y-69075169D01*
X118204712Y-69087338D01*
X118204712Y-69087339D01*
X118201814Y-69101910D01*
X118195500Y-69133652D01*
X118195500Y-69736573D01*
X118175498Y-69804694D01*
X118121842Y-69851187D01*
X118053054Y-69861495D01*
X117995502Y-69853918D01*
X117838740Y-69874556D01*
X117770717Y-69902732D01*
X117700129Y-69910321D01*
X117636642Y-69878542D01*
X117600414Y-69817484D01*
X117596500Y-69786323D01*
X117596500Y-69172762D01*
X117616502Y-69104641D01*
X117674282Y-69056353D01*
X117764070Y-69019161D01*
X117803241Y-69002936D01*
X117928682Y-68906682D01*
X118024936Y-68781241D01*
X118085444Y-68635162D01*
X118106082Y-68478400D01*
X118085444Y-68321638D01*
X118082284Y-68314010D01*
X118082283Y-68314005D01*
X118063400Y-68268417D01*
X118055811Y-68197827D01*
X118087591Y-68134341D01*
X118148649Y-68098114D01*
X118179809Y-68094200D01*
X146917800Y-68094200D01*
X146985921Y-68114202D01*
G37*
%TD.AperFunction*%
%TD*%
%TA.AperFunction,Conductor*%
%TO.N,GND*%
G36*
X133215921Y-84805202D02*
G01*
X133262414Y-84858858D01*
X133273800Y-84911200D01*
X133273800Y-86742000D01*
X133253798Y-86810121D01*
X133200142Y-86856614D01*
X133147800Y-86868000D01*
X131012200Y-86868000D01*
X130944079Y-86847998D01*
X130897586Y-86794342D01*
X130886200Y-86742000D01*
X130886200Y-84911200D01*
X130906202Y-84843079D01*
X130959858Y-84796586D01*
X131012200Y-84785200D01*
X133147800Y-84785200D01*
X133215921Y-84805202D01*
G37*
%TD.AperFunction*%
%TD*%
M02*
