%TF.GenerationSoftware,KiCad,Pcbnew,(6.0.0)*%
%TF.CreationDate,2022-03-02T17:10:44+00:00*%
%TF.ProjectId,Window sensor V5,57696e64-6f77-4207-9365-6e736f722056,rev?*%
%TF.SameCoordinates,Original*%
%TF.FileFunction,Soldermask,Top*%
%TF.FilePolarity,Negative*%
%FSLAX46Y46*%
G04 Gerber Fmt 4.6, Leading zero omitted, Abs format (unit mm)*
G04 Created by KiCad (PCBNEW (6.0.0)) date 2022-03-02 17:10:44*
%MOMM*%
%LPD*%
G01*
G04 APERTURE LIST*
G04 Aperture macros list*
%AMRoundRect*
0 Rectangle with rounded corners*
0 $1 Rounding radius*
0 $2 $3 $4 $5 $6 $7 $8 $9 X,Y pos of 4 corners*
0 Add a 4 corners polygon primitive as box body*
4,1,4,$2,$3,$4,$5,$6,$7,$8,$9,$2,$3,0*
0 Add four circle primitives for the rounded corners*
1,1,$1+$1,$2,$3*
1,1,$1+$1,$4,$5*
1,1,$1+$1,$6,$7*
1,1,$1+$1,$8,$9*
0 Add four rect primitives between the rounded corners*
20,1,$1+$1,$2,$3,$4,$5,0*
20,1,$1+$1,$4,$5,$6,$7,0*
20,1,$1+$1,$6,$7,$8,$9,0*
20,1,$1+$1,$8,$9,$2,$3,0*%
G04 Aperture macros list end*
%ADD10RoundRect,0.200000X-0.275000X0.200000X-0.275000X-0.200000X0.275000X-0.200000X0.275000X0.200000X0*%
%ADD11RoundRect,0.200000X0.275000X-0.200000X0.275000X0.200000X-0.275000X0.200000X-0.275000X-0.200000X0*%
%ADD12RoundRect,0.200000X0.200000X0.275000X-0.200000X0.275000X-0.200000X-0.275000X0.200000X-0.275000X0*%
%ADD13C,2.000000*%
%ADD14RoundRect,0.243750X0.456250X-0.243750X0.456250X0.243750X-0.456250X0.243750X-0.456250X-0.243750X0*%
%ADD15RoundRect,0.200000X0.200000X0.800000X-0.200000X0.800000X-0.200000X-0.800000X0.200000X-0.800000X0*%
%ADD16RoundRect,0.150000X0.512500X0.150000X-0.512500X0.150000X-0.512500X-0.150000X0.512500X-0.150000X0*%
%ADD17R,2.000000X2.000000*%
%ADD18RoundRect,0.225000X-0.250000X0.225000X-0.250000X-0.225000X0.250000X-0.225000X0.250000X0.225000X0*%
%ADD19RoundRect,0.150000X-0.512500X-0.150000X0.512500X-0.150000X0.512500X0.150000X-0.512500X0.150000X0*%
%ADD20R,1.700000X1.700000*%
%ADD21O,1.700000X1.700000*%
%ADD22RoundRect,0.200000X0.800000X-0.200000X0.800000X0.200000X-0.800000X0.200000X-0.800000X-0.200000X0*%
%ADD23RoundRect,0.225000X-0.225000X-0.250000X0.225000X-0.250000X0.225000X0.250000X-0.225000X0.250000X0*%
%ADD24RoundRect,0.200000X-0.200000X-0.275000X0.200000X-0.275000X0.200000X0.275000X-0.200000X0.275000X0*%
%ADD25RoundRect,0.225000X0.250000X-0.225000X0.250000X0.225000X-0.250000X0.225000X-0.250000X-0.225000X0*%
%ADD26RoundRect,0.250000X0.625000X-0.350000X0.625000X0.350000X-0.625000X0.350000X-0.625000X-0.350000X0*%
%ADD27O,1.750000X1.200000*%
G04 APERTURE END LIST*
D10*
%TO.C,R5*%
X117195600Y-71615800D03*
X117195600Y-73265800D03*
%TD*%
D11*
%TO.C,R9*%
X130479800Y-82333600D03*
X130479800Y-80683600D03*
%TD*%
D12*
%TO.C,R8*%
X124142000Y-79070200D03*
X122492000Y-79070200D03*
%TD*%
D13*
%TO.C,SW2*%
X138394000Y-75002000D03*
X138394000Y-81502000D03*
X133894000Y-75002000D03*
X133894000Y-81502000D03*
%TD*%
D14*
%TO.C,D1*%
X142621000Y-79169500D03*
X142621000Y-77294500D03*
%TD*%
D15*
%TO.C,RESET*%
X130141400Y-72009000D03*
X125941400Y-72009000D03*
%TD*%
D12*
%TO.C,R6*%
X120789200Y-79044800D03*
X119139200Y-79044800D03*
%TD*%
D16*
%TO.C,U5*%
X122092300Y-82661800D03*
X122092300Y-81711800D03*
X122092300Y-80761800D03*
X119817300Y-80761800D03*
X119817300Y-82661800D03*
%TD*%
D17*
%TO.C,SW1*%
X117559000Y-86766400D03*
X137945000Y-86766400D03*
%TD*%
D18*
%TO.C,C3*%
X121005600Y-75856800D03*
X121005600Y-77406800D03*
%TD*%
D11*
%TO.C,R2*%
X124104400Y-77456800D03*
X124104400Y-75806800D03*
%TD*%
%TO.C,R4*%
X123418600Y-73265800D03*
X123418600Y-71615800D03*
%TD*%
%TO.C,R7*%
X128701800Y-82333600D03*
X128701800Y-80683600D03*
%TD*%
D19*
%TO.C,U2*%
X127335700Y-75656400D03*
X127335700Y-76606400D03*
X127335700Y-77556400D03*
X129610700Y-77556400D03*
X129610700Y-75656400D03*
%TD*%
D20*
%TO.C,J2*%
X145694400Y-86609000D03*
D21*
X145186400Y-84069000D03*
X145694400Y-81529000D03*
X145186400Y-78989000D03*
X145694400Y-76449000D03*
%TD*%
D18*
%TO.C,C1*%
X131597400Y-75729800D03*
X131597400Y-77279800D03*
%TD*%
D22*
%TO.C,FLASH*%
X141833600Y-85843800D03*
X141833600Y-81643800D03*
%TD*%
D19*
%TO.C,U1*%
X116997900Y-75478600D03*
X116997900Y-76428600D03*
X116997900Y-77378600D03*
X119272900Y-77378600D03*
X119272900Y-75478600D03*
%TD*%
D11*
%TO.C,R3*%
X121862850Y-73265800D03*
X121862850Y-71615800D03*
%TD*%
D18*
%TO.C,C2*%
X125628400Y-75856800D03*
X125628400Y-77406800D03*
%TD*%
%TO.C,C4*%
X122555000Y-75856800D03*
X122555000Y-77406800D03*
%TD*%
D23*
%TO.C,C8*%
X130060400Y-69316600D03*
X131610400Y-69316600D03*
%TD*%
D11*
%TO.C,R11*%
X140690600Y-79077000D03*
X140690600Y-77427000D03*
%TD*%
D18*
%TO.C,C6*%
X118751350Y-71665800D03*
X118751350Y-73215800D03*
%TD*%
D24*
%TO.C,R10*%
X122873000Y-84226400D03*
X124523000Y-84226400D03*
%TD*%
D25*
%TO.C,C7*%
X117754400Y-82537600D03*
X117754400Y-80987600D03*
%TD*%
D12*
%TO.C,R1*%
X119519200Y-84251800D03*
X117869200Y-84251800D03*
%TD*%
D18*
%TO.C,C5*%
X120307100Y-71665800D03*
X120307100Y-73215800D03*
%TD*%
D16*
%TO.C,U4*%
X126359500Y-82687200D03*
X126359500Y-81737200D03*
X126359500Y-80787200D03*
X124084500Y-80787200D03*
X124084500Y-82687200D03*
%TD*%
D12*
%TO.C,R12*%
X128561600Y-69316600D03*
X126911600Y-69316600D03*
%TD*%
D26*
%TO.C,J1*%
X145375800Y-72170800D03*
D27*
X145375800Y-70170800D03*
%TD*%
M02*
